<?xml version="1.0" standalone="no"?>
<!DOCTYPE svg PUBLIC "-//W3C//DTD SVG 1.1//EN" "http://www.w3.org/Graphics/SVG/1.1/DTD/svg11.dtd" >
<svg xmlns="http://www.w3.org/2000/svg">
<metadata></metadata>
<defs>
<font id="MardianDemoRegular" horiz-adv-x="450" >
<font-face units-per-em="2048" ascent="1536" descent="-512" />
<missing-glyph horiz-adv-x="471" />
<glyph unicode="&#xfb01;" horiz-adv-x="638" d="M-264 -520q-89 51 48 350q127 279 392 655l-24 -4q-20 -4 -21 19q-4 19 19 24l59 8q207 287 312.5 399.5t178.5 178.5q162 145 293 178q12 4 17.5 3t8.5 -1t8 -4q23 -18 -28 -82q-189 -226 -434 -434l-235 -207l-11 -14l299 63q8 2 24 -10q51 -40 37.5 -84.5t-42.5 -88.5 t-70 -92t-77 -99q-86 -126 -76 -211q97 71 204 168l31 28v-28l-129 -111q-89 -73 -102 -80q-37 51 -37 105.5t21.5 107.5t58.5 104.5t72.5 97.5t64.5 86t33 68l-342 -71q-6 -10 -13.5 -19.5t-13.5 -19.5q130 6 -20 -315q-131 -278 -330 -528q-121 -152 -168 -144q-4 0 -8 4z M-262 -514q33 -7 143 136q163 211 303 494q87 177 92 273q3 47 -28 55q-45 -68 -105.5 -157.5t-122 -186t-119 -193.5t-99.5 -181q-92 -183 -64 -240zM389 647l207 187q340 313 408 413q2 2 2 6t-2 4l-3 3l-6 -3q-6 0 -8 -6q-236 -166 -469 -440q-69 -82 -129 -164zM788 887 l103 88l6 -88l-102 -90z" />
<glyph unicode="&#xfb02;" horiz-adv-x="679" d="M-264 -520q-133 76 226 676q129 215 262.5 398t197 261t134.5 153.5t144 141.5q162 145 293 178q12 4 17.5 3t8.5 -1t8 -4q23 -18 -28 -82q-189 -226 -434 -434l-235 -207l-11 -14l-4 -4q23 -53 79.5 -79t127.5 1q131 255 326 483q208 242 366 310q8 4 14.5 6t12.5 5 t17 3q22 0 22 -14q7 -27 -34 -81q-156 -210 -400 -454l-221 -219q-8 -14 -31 -48t-49.5 -78t-52 -94t-42.5 -100q-41 -113 -4 -166q100 71 216 175l38 36q-4 -10 -7 -19t-7 -19q-171 -153 -225 -189q-111 34 -23 278q27 72 68 154q-77 -41 -144 -9q-52 25 -67 85 q-12 -20 -19.5 -29.5t-13.5 -19.5q130 6 -20 -315q-131 -278 -330 -528q-121 -152 -168 -144q-4 0 -8 4zM-262 -514q33 -7 143 136q163 211 303 494q87 177 92 273q3 47 -28 55q-47 -70 -106.5 -158.5t-121 -185t-119 -193.5t-99.5 -181q-92 -183 -64 -240zM389 647l207 187 q340 313 408 413q2 2 2 6t-2 4l-3 3l-6 -3q-6 0 -8 -6q-236 -166 -469 -440q-69 -82 -129 -164zM678 590q49 51 98 100t122 126q211 225 345 396q4 4 6 8.5t4 8.5t2 7t-1 3t-1 2h-6q-2 0 -2 -1t-2 -1t-8 -6q-307 -247 -557 -643z" />
<glyph horiz-adv-x="0" />
<glyph horiz-adv-x="2048" />
<glyph unicode="&#xd;" horiz-adv-x="1024" />
<glyph unicode=" "  horiz-adv-x="471" />
<glyph unicode="&#x09;" horiz-adv-x="471" />
<glyph unicode="&#xa0;" horiz-adv-x="471" />
<glyph unicode="!" horiz-adv-x="905" d="M78 129l6 -90l102 90l-6 88zM299 461q0 -4 23 45q-23 -41 -23 -45zM322 506q36 74 397 866l129 33q-121 -205 -195.5 -331t-120 -203.5t-86 -147.5t-73.5 -126t-51 -91z" />
<glyph unicode="&#x22;" horiz-adv-x="337" d="M207 651q10 33 17 66t20 63q49 121 96 171t65.5 41t-2 -72.5t-73.5 -129.5q-66 -82 -123 -139zM350 651q10 33 17.5 66t19.5 63q49 121 96 171t65.5 41t-2 -72.5t-74.5 -129.5q-65 -82 -122 -139z" />
<glyph unicode="#" horiz-adv-x="2312" d="M135 -451h37l21 -96l18 96h37l18 -96l23 96h35l-37 -127v-6h-37l-21 97l-20 -97h-37l-37 129v4zM205 379v579l315 68l-12 43l47 14l-10 47l49 11l-6 51l47 4v47h43l4 43l47 -6l8 47l51 -8l13 47l45 -12l18 43l47 -19l25 45l43 -22l25 41l43 -29l30 39l39 -31l33 33 l31 -29l30 27l31 -35l41 27l27 -43l45 24l22 -41l43 19l21 -47l49 14l14 -45l45 10l11 -49l51 4l2 -30l473 102v-580l-217 -47l4 -4l-27 -31l27 -32l-37 -31l27 -41l-43 -27l26 -43l-43 -24l19 -43l-47 -21l16 -49l-45 -14l8 -45l-49 -11l4 -51l-47 -4v-47h-41l-6 -43l-45 4 l-10 -45l-50 8l-14 -47l-45 15l-16 -48l-50 21l-22 -45l-43 22l-27 -41l-43 27l-28 -37l-37 31l-35 -33l-31 29l-33 -29l-28 37l-41 -27l-29 43l-43 -24l-22 41l-45 -19l-21 47l-47 -14l-14 45l-47 -10l-11 49l-49 -4l-6 47h-47v43l-41 4l4 47l-47 8l10 50l-49 14l14 45 l-32 12zM330 -451h35l22 -96l19 96h34l21 -96l20 96h37l-37 -127l-2 -6h-35l-22 97l-21 -97h-36l-35 129v4zM334 -212q0 27 4 47.5t13 30.5q29 34 71 34h6q17 0 25 -4q26 -15 33 -25q14 -20 14 -31h-39q0 12 -17 23q-10 6 -18 6t-12 -2h-8l-17 -12q-16 -16 -16 -43t4 -41 t13 -19q11 -5 26 -10h6q14 0 20 6q10 0 17.5 13.5t7.5 19.5h-43v33h76v-99h-25l-4 23q-11 -19 -22 -21t-15 -6l-22 -2q-18 0 -32 7.5t-22 19.5q-24 24 -24 52zM334 543q0 -2 2 -4h10l10 6l13 12l8 12l12 13q2 4 10 12l74 102q6 10 12.5 17.5t10.5 17.5l24 37q6 10 12.5 18.5 t10.5 18.5q6 10 11 18q18 29 3 29q-7 0 -20 -8l-21 -23l-18 -24q-10 -10 -17 -23l-18 -22l-66 -95l-30 -49l-31 -55l-2 -6v-4zM383 778q-4 -24 12 -35l21 -6q35 0 35 8q0 2 -2 3h-7q-4 0 -4 -3q-37 -4 -43 8.5t-6 18.5q0 8 10 29l21 22q9 9 20.5 16t17.5 11q14 9 26 13.5 l20 7.5t15 5.5t18 6.5l32 6q20 4 31 4q10 0 20.5 -3t15.5 -4q7 -1 14 -13.5t7 -22.5t-4 -27l-12 -22q-13 -25 -23 -33t-15 -14t-12 -11.5t-13 -11.5l-27 -16l-29 -13l-16 -6q-6 0 -14 -4h-7q-10 0 -10 -4q-4 0 -4 -3t2 -3h6q4 0 6 2h7l30 10l62 27l30 18l27 19l25 22l20 23 q8 12 13 24q15 37 -3 62q-21 16 -35 17t-27 1t-32 -3q-65 -11 -90 -22.5t-37 -17.5q-44 -22 -56.5 -34.5t-25.5 -28.5zM522 -215q0 21 6 35t18 21q14 9 40.5 9t36.5 -8t16 -22q8 -19 8 -41v-8h-92q0 -12 8 -21.5t19.5 -9.5t19.5 4q8 8 8 10h37q-17 -43 -59 -43q-66 0 -66 74 zM522 -451h37l21 -96l18 96h37l18 -96l21 96h37l-37 -127l-2 -6h-35l-21 97l-22 -97h-35l-37 129v4zM559 -205h53q-8 23 -14 26t-12 3q-23 0 -27 -29zM641 557h2q23 0 23 -18v-56q0 -34 53 -34q51 0 51 38v58l10 10h2l2 2h9v4h-56v-4h13q18 -6 18 -29v-39q0 -16 -10 -26 l-15 -10h-18q-37 0 -37 30v56q0 12 4 15t17 3h8v4h-76v-4zM657 -152h19v35h35v-35h20v-24h-20v-72q0 -8 2 -10l12 -2l4 2h2v-27h-20q-16 0 -23 4q-12 0 -12 23v82h-19v24zM657 678q8 -23 30 -22q39 2 77 26q18 8 37 25l28 24l17 19q0 2 4 6q0 4 4 4l4 8l19 18l18 25 q13 13 20 25q15 -8 15 -19q0 -2 -8 -10l-19 -21l-16 -22l-15 -23l-6 -20q-2 -4 -2 -10v-9q7 -10 13 -10t22 4l19 13q27 20 33.5 28t13 14.5t8.5 10.5l10 12l4 6q10 10 10 13l15 18l24 35l6 -33l5 -8q-20 -8 -29 -14l-23 -19q-18 -18 -18 -41q4 -12 27 -11q37 2 63 28 q10 6 18 20l11 20q6 12 6 23v18q0 23 -19 45q0 7 -8 15v6q2 2 2 4h-10l-4 -4q-6 -2 -14 -10l-7 -15l-2 -2l-49 -67l-6 -10l-2 -3v-2q-1 0 -16 -20l-19 -23l-24 -22q-12 -12 -29 -12h-2l2 2l8 12l17 22q2 1 18 27l10 19q8 21 7 27.5t-1 12.5l-4 7q0 4 -2 6v26q14 22 6 27.5 t-22 0.5q-35 -12 -35 -38q0 -10 10 -20l-6 -9l-57 -69q-2 0 -6 -4v-2l-2 -2q0 -2 -2 -2l-13 -17l-15 -15q-20 -20 -40 -31t-26.5 -12t-17.5 -5t-17 -2q-11 0 -11 12l8 20l13 21q8 -4 17 -4q26 0 42 9t35 24l18 18q9 9 21 35q0 17 -14 26q-25 8 -43 -4q-38 -9 -68.5 -35 t-42.5 -49q-16 -16 -23 -45v-20zM711 -547h37v-37h-37v37zM723 737l18 25l21 24q10 14 13 15.5t5 5.5l13 10l14 6q10 2 16 0q3 -7 -3.5 -16.5t-10.5 -16t-5 -8.5t-5 -4q-4 -8 -24 -26.5t-32 -18.5t-20 4zM780 -451h33v-20q12 25 37.5 25t38.5 -23q8 21 30 21q29 1 46 -23 q4 -4 4 -21v-92h-33v80q0 27 -22 27t-21 -27v-80h-37v92q0 15 -21.5 15t-21.5 -25v-82h-33v133zM807 532q0 -10 12 -22l15 -6q2 -2 8 -3l24 -7q12 -4 17 -5q6 0 12 -6t6 -12.5t-14 -17.5h-13q-12 0 -18 2l-20 8l-13 12q-10 14 -10 25h-4v-51h4q0 12 14 12q2 0 2 -1t5 -1 l8 -2q21 -8 29.5 -8t16.5 2q23 5 23 10.5t4 9.5v23l-6 8q-6 4 -14 8l-21 8h-12l-2 2l-16 4q-4 2 -6 2q-4 0 -11 6q-4 4 -4 9.5t1 5.5t5 8l9 4l12 2q8 0 16 -4q15 0 29 -14q4 -4 5 -9.5t5 -11.5h4v37h-4q-2 -8 -8 -8l-47 12q-10 0 -23 -4l-14 -10q-6 -10 -6 -17zM809 -152h18 v11q0 37 39 37h19v-27h-11q-12 0 -12 -6v-15h23v-24h-23v-109h-35v109h-18v24zM905 -152h35v-81q0 -25 23 -25q12 0 24 12l4 17v77h33v-133h-33v19q-14 -23 -37 -23q-47 0 -49 49v88zM928 451h119v45q-4 -4 -5 -8q0 -5 -10 -17q-15 -18 -39 -18h-18v49h2q16 0 27 -15 q4 -16 4 -18h2v72h-2v-11q-14 -24 -27 -24h-6v51h20q18 0 25 -2l10 -8l6 -12l6 -17h5v43h-119v-4h4q18 0 18 -18v-66q0 -20 -18 -20h-4v-2zM987 733v10l4 13q17 22 31 30l27 13l2 -13q-2 -4 -2 -10l-2 -12q-7 -14 -15 -23q-16 -12 -28 -12q-6 -7 -17 4zM991 -546q0 31 39 40 l33 4q10 4 10 10q0 16 -20 17l-17 -2q-6 -12 -6 -17h-33q0 14 7 27q15 15 49 21q36 0 53 -23q2 -6 2 -16v-72q0 -10 2 -14q0 -6 6 -7v-6h-37q0 2 -2 4v2q-2 4 -2 11q-19 -19 -37 -19t-25 2t-14 15q-8 6 -8 23zM1026 -547q0 -14 18 -14h7l6 2l12 8q4 4 4 14v19q-6 -6 -12 -6 q-35 -4 -35 -23zM1057 -104h35v-181h-35v181zM1118 -104h33v-181h-33v181zM1120 506q0 -37 29 -47q6 -2 17 -6t32 -4t37 19t16 34q0 21 -16 43q-10 10 -23 12q-12 6 -30.5 6t-28.5 -6q-13 -8 -25 -22q-8 -14 -8 -29zM1126 -451h37l21 -96l18 96h35l20 -96l23 96h35l-37 -127 v-6h-37l-20 97l-21 -97h-37l-37 129v4zM1133 772q0 -10 16 -18q13 0 25 1t32 9l31 16l49 43l17 23l12 20l6 21q2 12 0 18q0 19 -35 23q-21 0 -51 -15l-29 -18q-8 -4 -14 -10t-12 -11l-21 -22l-14 -23q-20 -32 -12 -57zM1157 467q-21 57 6 84q0 2 9.5 6t15.5 4l8 -2l8 -4 l10 -10q2 -4 4.5 -8.5t4.5 -10.5l2 -20q0 -12 -5 -26q-9 -27 -27.5 -27t-21.5 4q-8 0 -14 10zM1159 773q0 14 12 31q24 34 39 52l19 25q6 6 20 22.5t36 16.5q7 0 7 -8q0 -5 -10 -27q-19 -40 -39 -60l-18 -22l-23 -23q-18 -18 -37 -18q-6 6 -6 11zM1241 -152h19v11 q0 37 38 37h17v-27h-8q-10 0 -13 -6v-15h25v-24h-25v-109h-34v109h-19v24zM1268 451h57v2l-20 4q-9 13 -9 24v66l95 -96h4v77q0 29 24 29v4h-55v-4h10q0 -2 4 -2q12 -12 13 -27v-47l-78 80h-43v-4h2q20 0 20 -16v-64q0 -24 -24 -24v-2zM1290 776l6 -2q8 0 21 8l8 11l6 6 q0 2 4 6l64 74l59 57q4 2 12 10l13 8l14 7q2 0 2 -3h-2l-6 -6q-2 -6 -8 -8l-6 -8l-15 -16q-17 -17 -30 -43l-17 -25q-16 -24 -8 -41q4 -8 13 -8t16.5 2t13.5 6t16 9t21 16l24 22l2 2q-2 -2 -2 -8q0 -33 39 -23q20 8 29 15l25 18q12 12 16 17l16 14q-2 -2 -2 -6l-2 -6v-9 q-4 -6 0 -10q4 -14 8 -15t11 -1q5 0 43 20l37 31l20 21q-10 -25 -10 -37v-7q6 -6 10 -6t10 3t9 5l20 13l12 12q13 7 21 17t14 16l21 24q2 2 2 5q-2 2 -6 2q-5 0 -11 -11l-26 -30q-7 -8 -15 -15l-16 -14l-8 -6l-11 -4l-2 -2q-2 0 -4 2h2l9 16q4 8 13 20.5t13 20.5l74 109 q12 12 16 20l62 68q10 12 19 24.5t20 24.5l12 20v11q-2 2 -8 2t-12.5 -2t-9.5 -4.5t-9 -5.5q-20 -10 -45 -35l-21 -23q-8 -8 -16 -20.5t-19 -26.5t-18.5 -26.5t-15.5 -24.5l-53 -90l-9 -19q-2 0 -2 -2l-16 -16q-5 -8 -23 -23l-32 -29l-9 -6l-4 -2l-6 -4h-10l12 23q0 2 1 2 t1 2l2 2q4 8 9.5 15t10.5 16q12 20 21 32l17 25l8 14q4 4 8 13q2 2 3 4t2 2t5 5q7 9 -6 9l-12 -4l-12 -6l-21 -15l-16 -16q0 8 -2 12q0 4 -8 9q-21 3 -44.5 -7t-32.5 -16q-12 -8 -32.5 -25.5t-36.5 -40t-20 -33t-4 -11.5t-3 -1q-53 -53 -71 -53h-4q-1 1 14 25l39 49 q6 8 12 15t10 18l11 20q4 12 2 19q0 12 -8 12q-13 0 -41 -16q-25 -25 -37 -31l-25 -25q-6 -6 -12 -11l-35 -38l64 90q0 2 1 2q5 0 5 15l-6 6l-9 2l-10 -2l-12 -6l-6 -7q-4 -2 -4 -4t-9 -12l-90 -156q-2 -2 -2 -8zM1329 -224q0 54 39 70q8 4 29 4q33 0 49 -16q18 -22 18 -47 q0 -45 -30 -66q-16 -10 -38 -10t-38 10q-12 10 -20.5 25.5t-8.5 29.5zM1331 -451h35v-20q14 25 41 25q45 -3 45 -46v-92h-35v80q0 16 -3 21.5t-19 5.5q-27 0 -27 -31v-76h-37v133zM1364 -218q0 -40 33 -40q31 0 32 40t-32 40t-33 -40zM1425 451h125v49h-2q-4 -4 -4 -8 l-6 -17q-2 -2 -8 -9q-11 -13 -29 -13h-28v86q0 18 20 18h8v4h-76v-4h7q18 0 18 -18v-66q0 -20 -18 -20h-7v-2zM1477 -541h34q0 -18 26 -18t26 10t-15 12l-30 9q-20 7 -28.5 13.5t-8.5 22.5q0 43 53 46q45 0 55 -25l4 -10v-11h-34q0 17 -21.5 17t-21.5 -12q0 -6 12 -9l31 -8 q38 -6 38 -37q0 -45 -57 -45h-12q-13 0 -29 10q-22 13 -22 35zM1489 -152h33v-18q14 20 36.5 20t28.5 -4l17 -14q6 -12 6 -25v-92h-35v80q0 8 -4 21q-6 6 -21 6q-24 0 -24 -31v-76h-37v133zM1542 844l2 4q0 2 10 17q15 22 17 26t10 12l59 76l9 8q17 10 30 10l7 -4l2 -8 q0 -10 -7 -16l-18 -25l-16 -26l-19 -19l-18 -20l-27 -23q-12 -6 -16 -10q-10 -10 -21 -6h-2q-2 2 -2 4zM1544 557h2q20 0 27 -14l35 -45v-25q0 -20 -21 -20h-6v-2h78v2h-8q-21 0 -21 20v27l35 47q8 4 10 6q4 4 17 4v4h-56v-4h6q17 0 17 -10q0 -4 -6 -12l-23 -31l-28 37 q-4 8 -5 8v2q0 6 9 6h10v4h-72v-4zM1624 -547h37v-37h-37v37zM1626 -152h21v35h32v-35h23v-24h-23v-72l2 -10l13 -2l4 2h4v-27h-23q-16 0 -20 4q-10 0 -12 9v96h-21v24zM1686 -520q0 74 59 74q18 0 31 -7q14 -4 20 -18q10 -10 10 -27h-37q0 21 -20 21q-27 0 -29 -37 q0 -33 7.5 -38t19.5 -5q22 0 22 22h37q0 -27 -20 -39t-44 -12q-36 0 -54 35q-2 8 -2 31zM1784 -249q0 21 10 30q12 8 29 12l30 4q12 2 12.5 14t-20.5 12.5t-24 -20.5h-33q4 34 27 43q8 4 14 4h16q41 0 48 -16t8 -20v-86q0 -6 8 -7v-6h-39q-2 0 -2 2v4q0 4 -1 6.5t-1 4.5 q-14 -21 -41 -21q-6 0 -19 4q-4 4 -8 7q-14 8 -14 29zM1819 -248q0 -14 16 -14h10q12 6 17 10q4 8 4 16v17q-6 -6 -15 -6l-16 -4q-16 0 -16 -19zM1823 -518q0 27 16 51q12 12 23 14q8 6 30.5 6.5t49.5 -18.5q4 -4 6 -10t6 -13t4 -28q0 -42 -22.5 -56t-47.5 -14q-39 0 -59 35 q-6 14 -6 33zM1860 -517q0 -40 30 -40q31 0 31 31t-6 40t-25 9q-30 0 -30 -40zM1894 1083l33 45l17 27l30 41l2 2q0 6 4 7t5 -1q0 -6 -12.5 -24.5t-16.5 -20.5l-39 -49l-12 -14q-2 -4 -11 -13zM1917 -152h16v35h37v-35h23v-24h-23v-72l2 -10l10 -2l7 2h4v-27h-23 q-16 0 -22 4q-8 0 -15 23v82h-16v24zM1982 -451h33v-20q14 25 39.5 25t36.5 -23q11 21 32 22t29 -8q13 -6 15 -16q6 -6 6 -21v-92h-35v80q0 27 -21.5 27t-21.5 -27v-80h-35v80q0 10 -2 12q0 15 -18 15q-23 0 -23 -25v-82h-35v133z" />
<glyph unicode="$" horiz-adv-x="2312" d="M135 -451h37l21 -96l18 96h37l18 -96l23 96h35l-37 -127v-6h-37l-21 97l-20 -97h-37l-37 129v4zM205 379v579l315 68l-12 43l47 14l-10 47l49 11l-6 51l47 4v47h43l4 43l47 -6l8 47l51 -8l13 47l45 -12l18 43l47 -19l25 45l43 -22l25 41l43 -29l30 39l39 -31l33 33 l31 -29l30 27l31 -35l41 27l27 -43l45 24l22 -41l43 19l21 -47l49 14l14 -45l45 10l11 -49l51 4l2 -30l473 102v-580l-217 -47l4 -4l-27 -31l27 -32l-37 -31l27 -41l-43 -27l26 -43l-43 -24l19 -43l-47 -21l16 -49l-45 -14l8 -45l-49 -11l4 -51l-47 -4v-47h-41l-6 -43l-45 4 l-10 -45l-50 8l-14 -47l-45 15l-16 -48l-50 21l-22 -45l-43 22l-27 -41l-43 27l-28 -37l-37 31l-35 -33l-31 29l-33 -29l-28 37l-41 -27l-29 43l-43 -24l-22 41l-45 -19l-21 47l-47 -14l-14 45l-47 -10l-11 49l-49 -4l-6 47h-47v43l-41 4l4 47l-47 8l10 50l-49 14l14 45 l-32 12zM330 -451h35l22 -96l19 96h34l21 -96l20 96h37l-37 -127l-2 -6h-35l-22 97l-21 -97h-36l-35 129v4zM334 -212q0 27 4 47.5t13 30.5q29 34 71 34h6q17 0 25 -4q26 -15 33 -25q14 -20 14 -31h-39q0 12 -17 23q-10 6 -18 6t-12 -2h-8l-17 -12q-16 -16 -16 -43t4 -41 t13 -19q11 -5 26 -10h6q14 0 20 6q10 0 17.5 13.5t7.5 19.5h-43v33h76v-99h-25l-4 23q-11 -19 -22 -21t-15 -6l-22 -2q-18 0 -32 7.5t-22 19.5q-24 24 -24 52zM334 543q0 -2 2 -4h10l10 6l13 12l8 12l12 13q2 4 10 12l74 102q6 10 12.5 17.5t10.5 17.5l24 37q6 10 12.5 18.5 t10.5 18.5q6 10 11 18q18 29 3 29q-7 0 -20 -8l-21 -23l-18 -24q-10 -10 -17 -23l-18 -22l-66 -95l-30 -49l-31 -55l-2 -6v-4zM383 778q-4 -24 12 -35l21 -6q35 0 35 8q0 2 -2 3h-7q-4 0 -4 -3q-37 -4 -43 8.5t-6 18.5q0 8 10 29l21 22q9 9 20.5 16t17.5 11q14 9 26 13.5 l20 7.5t15 5.5t18 6.5l32 6q20 4 31 4q10 0 20.5 -3t15.5 -4q7 -1 14 -13.5t7 -22.5t-4 -27l-12 -22q-13 -25 -23 -33t-15 -14t-12 -11.5t-13 -11.5l-27 -16l-29 -13l-16 -6q-6 0 -14 -4h-7q-10 0 -10 -4q-4 0 -4 -3t2 -3h6q4 0 6 2h7l30 10l62 27l30 18l27 19l25 22l20 23 q8 12 13 24q15 37 -3 62q-21 16 -35 17t-27 1t-32 -3q-65 -11 -90 -22.5t-37 -17.5q-44 -22 -56.5 -34.5t-25.5 -28.5zM522 -215q0 21 6 35t18 21q14 9 40.5 9t36.5 -8t16 -22q8 -19 8 -41v-8h-92q0 -12 8 -21.5t19.5 -9.5t19.5 4q8 8 8 10h37q-17 -43 -59 -43q-66 0 -66 74 zM522 -451h37l21 -96l18 96h37l18 -96l21 96h37l-37 -127l-2 -6h-35l-21 97l-22 -97h-35l-37 129v4zM559 -205h53q-8 23 -14 26t-12 3q-23 0 -27 -29zM641 557h2q23 0 23 -18v-56q0 -34 53 -34q51 0 51 38v58l10 10h2l2 2h9v4h-56v-4h13q18 -6 18 -29v-39q0 -16 -10 -26 l-15 -10h-18q-37 0 -37 30v56q0 12 4 15t17 3h8v4h-76v-4zM657 -152h19v35h35v-35h20v-24h-20v-72q0 -8 2 -10l12 -2l4 2h2v-27h-20q-16 0 -23 4q-12 0 -12 23v82h-19v24zM657 678q8 -23 30 -22q39 2 77 26q18 8 37 25l28 24l17 19q0 2 4 6q0 4 4 4l4 8l19 18l18 25 q13 13 20 25q15 -8 15 -19q0 -2 -8 -10l-19 -21l-16 -22l-15 -23l-6 -20q-2 -4 -2 -10v-9q7 -10 13 -10t22 4l19 13q27 20 33.5 28t13 14.5t8.5 10.5l10 12l4 6q10 10 10 13l15 18l24 35l6 -33l5 -8q-20 -8 -29 -14l-23 -19q-18 -18 -18 -41q4 -12 27 -11q37 2 63 28 q10 6 18 20l11 20q6 12 6 23v18q0 23 -19 45q0 7 -8 15v6q2 2 2 4h-10l-4 -4q-6 -2 -14 -10l-7 -15l-2 -2l-49 -67l-6 -10l-2 -3v-2q-1 0 -16 -20l-19 -23l-24 -22q-12 -12 -29 -12h-2l2 2l8 12l17 22q2 1 18 27l10 19q8 21 7 27.5t-1 12.5l-4 7q0 4 -2 6v26q14 22 6 27.5 t-22 0.5q-35 -12 -35 -38q0 -10 10 -20l-6 -9l-57 -69q-2 0 -6 -4v-2l-2 -2q0 -2 -2 -2l-13 -17l-15 -15q-20 -20 -40 -31t-26.5 -12t-17.5 -5t-17 -2q-11 0 -11 12l8 20l13 21q8 -4 17 -4q26 0 42 9t35 24l18 18q9 9 21 35q0 17 -14 26q-25 8 -43 -4q-38 -9 -68.5 -35 t-42.5 -49q-16 -16 -23 -45v-20zM711 -547h37v-37h-37v37zM723 737l18 25l21 24q10 14 13 15.5t5 5.5l13 10l14 6q10 2 16 0q3 -7 -3.5 -16.5t-10.5 -16t-5 -8.5t-5 -4q-4 -8 -24 -26.5t-32 -18.5t-20 4zM780 -451h33v-20q12 25 37.5 25t38.5 -23q8 21 30 21q29 1 46 -23 q4 -4 4 -21v-92h-33v80q0 27 -22 27t-21 -27v-80h-37v92q0 15 -21.5 15t-21.5 -25v-82h-33v133zM807 532q0 -10 12 -22l15 -6q2 -2 8 -3l24 -7q12 -4 17 -5q6 0 12 -6t6 -12.5t-14 -17.5h-13q-12 0 -18 2l-20 8l-13 12q-10 14 -10 25h-4v-51h4q0 12 14 12q2 0 2 -1t5 -1 l8 -2q21 -8 29.5 -8t16.5 2q23 5 23 10.5t4 9.5v23l-6 8q-6 4 -14 8l-21 8h-12l-2 2l-16 4q-4 2 -6 2q-4 0 -11 6q-4 4 -4 9.5t1 5.5t5 8l9 4l12 2q8 0 16 -4q15 0 29 -14q4 -4 5 -9.5t5 -11.5h4v37h-4q-2 -8 -8 -8l-47 12q-10 0 -23 -4l-14 -10q-6 -10 -6 -17zM809 -152h18 v11q0 37 39 37h19v-27h-11q-12 0 -12 -6v-15h23v-24h-23v-109h-35v109h-18v24zM905 -152h35v-81q0 -25 23 -25q12 0 24 12l4 17v77h33v-133h-33v19q-14 -23 -37 -23q-47 0 -49 49v88zM928 451h119v45q-4 -4 -5 -8q0 -5 -10 -17q-15 -18 -39 -18h-18v49h2q16 0 27 -15 q4 -16 4 -18h2v72h-2v-11q-14 -24 -27 -24h-6v51h20q18 0 25 -2l10 -8l6 -12l6 -17h5v43h-119v-4h4q18 0 18 -18v-66q0 -20 -18 -20h-4v-2zM987 733v10l4 13q17 22 31 30l27 13l2 -13q-2 -4 -2 -10l-2 -12q-7 -14 -15 -23q-16 -12 -28 -12q-6 -7 -17 4zM991 -546q0 31 39 40 l33 4q10 4 10 10q0 16 -20 17l-17 -2q-6 -12 -6 -17h-33q0 14 7 27q15 15 49 21q36 0 53 -23q2 -6 2 -16v-72q0 -10 2 -14q0 -6 6 -7v-6h-37q0 2 -2 4v2q-2 4 -2 11q-19 -19 -37 -19t-25 2t-14 15q-8 6 -8 23zM1026 -547q0 -14 18 -14h7l6 2l12 8q4 4 4 14v19q-6 -6 -12 -6 q-35 -4 -35 -23zM1057 -104h35v-181h-35v181zM1118 -104h33v-181h-33v181zM1120 506q0 -37 29 -47q6 -2 17 -6t32 -4t37 19t16 34q0 21 -16 43q-10 10 -23 12q-12 6 -30.5 6t-28.5 -6q-13 -8 -25 -22q-8 -14 -8 -29zM1126 -451h37l21 -96l18 96h35l20 -96l23 96h35l-37 -127 v-6h-37l-20 97l-21 -97h-37l-37 129v4zM1133 772q0 -10 16 -18q13 0 25 1t32 9l31 16l49 43l17 23l12 20l6 21q2 12 0 18q0 19 -35 23q-21 0 -51 -15l-29 -18q-8 -4 -14 -10t-12 -11l-21 -22l-14 -23q-20 -32 -12 -57zM1157 467q-21 57 6 84q0 2 9.5 6t15.5 4l8 -2l8 -4 l10 -10q2 -4 4.5 -8.5t4.5 -10.5l2 -20q0 -12 -5 -26q-9 -27 -27.5 -27t-21.5 4q-8 0 -14 10zM1159 773q0 14 12 31q24 34 39 52l19 25q6 6 20 22.5t36 16.5q7 0 7 -8q0 -5 -10 -27q-19 -40 -39 -60l-18 -22l-23 -23q-18 -18 -37 -18q-6 6 -6 11zM1241 -152h19v11 q0 37 38 37h17v-27h-8q-10 0 -13 -6v-15h25v-24h-25v-109h-34v109h-19v24zM1268 451h57v2l-20 4q-9 13 -9 24v66l95 -96h4v77q0 29 24 29v4h-55v-4h10q0 -2 4 -2q12 -12 13 -27v-47l-78 80h-43v-4h2q20 0 20 -16v-64q0 -24 -24 -24v-2zM1290 776l6 -2q8 0 21 8l8 11l6 6 q0 2 4 6l64 74l59 57q4 2 12 10l13 8l14 7q2 0 2 -3h-2l-6 -6q-2 -6 -8 -8l-6 -8l-15 -16q-17 -17 -30 -43l-17 -25q-16 -24 -8 -41q4 -8 13 -8t16.5 2t13.5 6t16 9t21 16l24 22l2 2q-2 -2 -2 -8q0 -33 39 -23q20 8 29 15l25 18q12 12 16 17l16 14q-2 -2 -2 -6l-2 -6v-9 q-4 -6 0 -10q4 -14 8 -15t11 -1q5 0 43 20l37 31l20 21q-10 -25 -10 -37v-7q6 -6 10 -6t10 3t9 5l20 13l12 12q13 7 21 17t14 16l21 24q2 2 2 5q-2 2 -6 2q-5 0 -11 -11l-26 -30q-7 -8 -15 -15l-16 -14l-8 -6l-11 -4l-2 -2q-2 0 -4 2h2l9 16q4 8 13 20.5t13 20.5l74 109 q12 12 16 20l62 68q10 12 19 24.5t20 24.5l12 20v11q-2 2 -8 2t-12.5 -2t-9.5 -4.5t-9 -5.5q-20 -10 -45 -35l-21 -23q-8 -8 -16 -20.5t-19 -26.5t-18.5 -26.5t-15.5 -24.5l-53 -90l-9 -19q-2 0 -2 -2l-16 -16q-5 -8 -23 -23l-32 -29l-9 -6l-4 -2l-6 -4h-10l12 23q0 2 1 2 t1 2l2 2q4 8 9.5 15t10.5 16q12 20 21 32l17 25l8 14q4 4 8 13q2 2 3 4t2 2t5 5q7 9 -6 9l-12 -4l-12 -6l-21 -15l-16 -16q0 8 -2 12q0 4 -8 9q-21 3 -44.5 -7t-32.5 -16q-12 -8 -32.5 -25.5t-36.5 -40t-20 -33t-4 -11.5t-3 -1q-53 -53 -71 -53h-4q-1 1 14 25l39 49 q6 8 12 15t10 18l11 20q4 12 2 19q0 12 -8 12q-13 0 -41 -16q-25 -25 -37 -31l-25 -25q-6 -6 -12 -11l-35 -38l64 90q0 2 1 2q5 0 5 15l-6 6l-9 2l-10 -2l-12 -6l-6 -7q-4 -2 -4 -4t-9 -12l-90 -156q-2 -2 -2 -8zM1329 -224q0 54 39 70q8 4 29 4q33 0 49 -16q18 -22 18 -47 q0 -45 -30 -66q-16 -10 -38 -10t-38 10q-12 10 -20.5 25.5t-8.5 29.5zM1331 -451h35v-20q14 25 41 25q45 -3 45 -46v-92h-35v80q0 16 -3 21.5t-19 5.5q-27 0 -27 -31v-76h-37v133zM1364 -218q0 -40 33 -40q31 0 32 40t-32 40t-33 -40zM1425 451h125v49h-2q-4 -4 -4 -8 l-6 -17q-2 -2 -8 -9q-11 -13 -29 -13h-28v86q0 18 20 18h8v4h-76v-4h7q18 0 18 -18v-66q0 -20 -18 -20h-7v-2zM1477 -541h34q0 -18 26 -18t26 10t-15 12l-30 9q-20 7 -28.5 13.5t-8.5 22.5q0 43 53 46q45 0 55 -25l4 -10v-11h-34q0 17 -21.5 17t-21.5 -12q0 -6 12 -9l31 -8 q38 -6 38 -37q0 -45 -57 -45h-12q-13 0 -29 10q-22 13 -22 35zM1489 -152h33v-18q14 20 36.5 20t28.5 -4l17 -14q6 -12 6 -25v-92h-35v80q0 8 -4 21q-6 6 -21 6q-24 0 -24 -31v-76h-37v133zM1542 844l2 4q0 2 10 17q15 22 17 26t10 12l59 76l9 8q17 10 30 10l7 -4l2 -8 q0 -10 -7 -16l-18 -25l-16 -26l-19 -19l-18 -20l-27 -23q-12 -6 -16 -10q-10 -10 -21 -6h-2q-2 2 -2 4zM1544 557h2q20 0 27 -14l35 -45v-25q0 -20 -21 -20h-6v-2h78v2h-8q-21 0 -21 20v27l35 47q8 4 10 6q4 4 17 4v4h-56v-4h6q17 0 17 -10q0 -4 -6 -12l-23 -31l-28 37 q-4 8 -5 8v2q0 6 9 6h10v4h-72v-4zM1624 -547h37v-37h-37v37zM1626 -152h21v35h32v-35h23v-24h-23v-72l2 -10l13 -2l4 2h4v-27h-23q-16 0 -20 4q-10 0 -12 9v96h-21v24zM1686 -520q0 74 59 74q18 0 31 -7q14 -4 20 -18q10 -10 10 -27h-37q0 21 -20 21q-27 0 -29 -37 q0 -33 7.5 -38t19.5 -5q22 0 22 22h37q0 -27 -20 -39t-44 -12q-36 0 -54 35q-2 8 -2 31zM1784 -249q0 21 10 30q12 8 29 12l30 4q12 2 12.5 14t-20.5 12.5t-24 -20.5h-33q4 34 27 43q8 4 14 4h16q41 0 48 -16t8 -20v-86q0 -6 8 -7v-6h-39q-2 0 -2 2v4q0 4 -1 6.5t-1 4.5 q-14 -21 -41 -21q-6 0 -19 4q-4 4 -8 7q-14 8 -14 29zM1819 -248q0 -14 16 -14h10q12 6 17 10q4 8 4 16v17q-6 -6 -15 -6l-16 -4q-16 0 -16 -19zM1823 -518q0 27 16 51q12 12 23 14q8 6 30.5 6.5t49.5 -18.5q4 -4 6 -10t6 -13t4 -28q0 -42 -22.5 -56t-47.5 -14q-39 0 -59 35 q-6 14 -6 33zM1860 -517q0 -40 30 -40q31 0 31 31t-6 40t-25 9q-30 0 -30 -40zM1894 1083l33 45l17 27l30 41l2 2q0 6 4 7t5 -1q0 -6 -12.5 -24.5t-16.5 -20.5l-39 -49l-12 -14q-2 -4 -11 -13zM1917 -152h16v35h37v-35h23v-24h-23v-72l2 -10l10 -2l7 2h4v-27h-23 q-16 0 -22 4q-8 0 -15 23v82h-16v24zM1982 -451h33v-20q14 25 39.5 25t36.5 -23q11 21 32 22t29 -8q13 -6 15 -16q6 -6 6 -21v-92h-35v80q0 27 -21.5 27t-21.5 -27v-80h-35v80q0 10 -2 12q0 15 -18 15q-23 0 -23 -25v-82h-35v133z" />
<glyph unicode="%" horiz-adv-x="2334" d="M135 -451h37l21 -96l18 96h37l18 -96l23 96h35l-37 -127v-6h-37l-21 97l-20 -97h-37l-37 129v4zM205 379v579l315 68l-12 43l47 14l-10 47l49 11l-6 51l47 4v47h43l4 43l47 -6l8 47l51 -8l13 47l45 -12l18 43l47 -19l25 45l43 -22l25 41l43 -29l30 39l39 -31l33 33 l31 -29l30 27l31 -35l41 27l27 -43l45 24l22 -41l43 19l21 -47l49 14l14 -45l45 10l11 -49l51 4l2 -30l473 102v-580l-217 -47l4 -4l-27 -31l27 -32l-37 -31l27 -41l-43 -27l26 -43l-43 -24l19 -43l-47 -21l16 -49l-45 -14l8 -45l-49 -11l4 -51l-47 -4v-47h-41l-6 -43l-45 4 l-10 -45l-50 8l-14 -47l-45 15l-16 -48l-50 21l-22 -45l-43 22l-27 -41l-43 27l-28 -37l-37 31l-35 -33l-31 29l-33 -29l-28 37l-41 -27l-29 43l-43 -24l-22 41l-45 -19l-21 47l-47 -14l-14 45l-47 -10l-11 49l-49 -4l-6 47h-47v43l-41 4l4 47l-47 8l10 50l-49 14l14 45 l-32 12zM330 -451h35l22 -96l19 96h34l21 -96l20 96h37l-37 -127l-2 -6h-35l-22 97l-21 -97h-36l-35 129v4zM334 -212q0 27 4 47.5t13 30.5q29 34 71 34h6q17 0 25 -4q26 -15 33 -25q14 -20 14 -31h-39q0 12 -17 23q-10 6 -18 6t-12 -2h-8l-17 -12q-16 -16 -16 -43t4 -41 t13 -19q11 -5 26 -10h6q14 0 20 6q10 0 17.5 13.5t7.5 19.5h-43v33h76v-99h-25l-4 23q-11 -19 -22 -21t-15 -6l-22 -2q-18 0 -32 7.5t-22 19.5q-24 24 -24 52zM334 543q0 -2 2 -4h10l10 6l13 12l8 12l12 13q2 4 10 12l74 102q6 10 12.5 17.5t10.5 17.5l24 37q6 10 12.5 18.5 t10.5 18.5q6 10 11 18q18 29 3 29q-7 0 -20 -8l-21 -23l-18 -24q-10 -10 -17 -23l-18 -22l-66 -95l-30 -49l-31 -55l-2 -6v-4zM383 778q-4 -24 12 -35l21 -6q35 0 35 8q0 2 -2 3h-7q-4 0 -4 -3q-37 -4 -43 8.5t-6 18.5q0 8 10 29l21 22q9 9 20.5 16t17.5 11q14 9 26 13.5 l20 7.5t15 5.5t18 6.5l32 6q20 4 31 4q10 0 20.5 -3t15.5 -4q7 -1 14 -13.5t7 -22.5t-4 -27l-12 -22q-13 -25 -23 -33t-15 -14t-12 -11.5t-13 -11.5l-27 -16l-29 -13l-16 -6q-6 0 -14 -4h-7q-10 0 -10 -4q-4 0 -4 -3t2 -3h6q4 0 6 2h7l30 10l62 27l30 18l27 19l25 22l20 23 q8 12 13 24q15 37 -3 62q-21 16 -35 17t-27 1t-32 -3q-65 -11 -90 -22.5t-37 -17.5q-44 -22 -56.5 -34.5t-25.5 -28.5zM522 -215q0 21 6 35t18 21q14 9 40.5 9t36.5 -8t16 -22q8 -19 8 -41v-8h-92q0 -12 8 -21.5t19.5 -9.5t19.5 4q8 8 8 10h37q-17 -43 -59 -43q-66 0 -66 74 zM522 -451h37l21 -96l18 96h37l18 -96l21 96h37l-37 -127l-2 -6h-35l-21 97l-22 -97h-35l-37 129v4zM559 -205h53q-8 23 -14 26t-12 3q-23 0 -27 -29zM641 557h2q23 0 23 -18v-56q0 -34 53 -34q51 0 51 38v58l10 10h2l2 2h9v4h-56v-4h13q18 -6 18 -29v-39q0 -16 -10 -26 l-15 -10h-18q-37 0 -37 30v56q0 12 4 15t17 3h8v4h-76v-4zM657 -152h19v35h35v-35h20v-24h-20v-72q0 -8 2 -10l12 -2l4 2h2v-27h-20q-16 0 -23 4q-12 0 -12 23v82h-19v24zM657 678q8 -23 30 -22q39 2 77 26q18 8 37 25l28 24l17 19q0 2 4 6q0 4 4 4l4 8l19 18l18 25 q13 13 20 25q15 -8 15 -19q0 -2 -8 -10l-19 -21l-16 -22l-15 -23l-6 -20q-2 -4 -2 -10v-9q7 -10 13 -10t22 4l19 13q27 20 33.5 28t13 14.5t8.5 10.5l10 12l4 6q10 10 10 13l15 18l24 35l6 -33l5 -8q-20 -8 -29 -14l-23 -19q-18 -18 -18 -41q4 -12 27 -11q37 2 63 28 q10 6 18 20l11 20q6 12 6 23v18q0 23 -19 45q0 7 -8 15v6q2 2 2 4h-10l-4 -4q-6 -2 -14 -10l-7 -15l-2 -2l-49 -67l-6 -10l-2 -3v-2q-1 0 -16 -20l-19 -23l-24 -22q-12 -12 -29 -12h-2l2 2l8 12l17 22q2 1 18 27l10 19q8 21 7 27.5t-1 12.5l-4 7q0 4 -2 6v26q14 22 6 27.5 t-22 0.5q-35 -12 -35 -38q0 -10 10 -20l-6 -9l-57 -69q-2 0 -6 -4v-2l-2 -2q0 -2 -2 -2l-13 -17l-15 -15q-20 -20 -40 -31t-26.5 -12t-17.5 -5t-17 -2q-11 0 -11 12l8 20l13 21q8 -4 17 -4q26 0 42 9t35 24l18 18q9 9 21 35q0 17 -14 26q-25 8 -43 -4q-38 -9 -68.5 -35 t-42.5 -49q-16 -16 -23 -45v-20zM711 -547h37v-37h-37v37zM723 737l18 25l21 24q10 14 13 15.5t5 5.5l13 10l14 6q10 2 16 0q3 -7 -3.5 -16.5t-10.5 -16t-5 -8.5t-5 -4q-4 -8 -24 -26.5t-32 -18.5t-20 4zM780 -451h33v-20q12 25 37.5 25t38.5 -23q8 21 30 21q29 1 46 -23 q4 -4 4 -21v-92h-33v80q0 27 -22 27t-21 -27v-80h-37v92q0 15 -21.5 15t-21.5 -25v-82h-33v133zM807 532q0 -10 12 -22l15 -6q2 -2 8 -3l24 -7q12 -4 17 -5q6 0 12 -6t6 -12.5t-14 -17.5h-13q-12 0 -18 2l-20 8l-13 12q-10 14 -10 25h-4v-51h4q0 12 14 12q2 0 2 -1t5 -1 l8 -2q21 -8 29.5 -8t16.5 2q23 5 23 10.5t4 9.5v23l-6 8q-6 4 -14 8l-21 8h-12l-2 2l-16 4q-4 2 -6 2q-4 0 -11 6q-4 4 -4 9.5t1 5.5t5 8l9 4l12 2q8 0 16 -4q15 0 29 -14q4 -4 5 -9.5t5 -11.5h4v37h-4q-2 -8 -8 -8l-47 12q-10 0 -23 -4l-14 -10q-6 -10 -6 -17zM809 -152h18 v11q0 37 39 37h19v-27h-11q-12 0 -12 -6v-15h23v-24h-23v-109h-35v109h-18v24zM905 -152h35v-81q0 -25 23 -25q12 0 24 12l4 17v77h33v-133h-33v19q-14 -23 -37 -23q-47 0 -49 49v88zM928 451h119v45q-4 -4 -5 -8q0 -5 -10 -17q-15 -18 -39 -18h-18v49h2q16 0 27 -15 q4 -16 4 -18h2v72h-2v-11q-14 -24 -27 -24h-6v51h20q18 0 25 -2l10 -8l6 -12l6 -17h5v43h-119v-4h4q18 0 18 -18v-66q0 -20 -18 -20h-4v-2zM987 733v10l4 13q17 22 31 30l27 13l2 -13q-2 -4 -2 -10l-2 -12q-7 -14 -15 -23q-16 -12 -28 -12q-6 -7 -17 4zM991 -546q0 31 39 40 l33 4q10 4 10 10q0 16 -20 17l-17 -2q-6 -12 -6 -17h-33q0 14 7 27q15 15 49 21q36 0 53 -23q2 -6 2 -16v-72q0 -10 2 -14q0 -6 6 -7v-6h-37q0 2 -2 4v2q-2 4 -2 11q-19 -19 -37 -19t-25 2t-14 15q-8 6 -8 23zM1026 -547q0 -14 18 -14h7l6 2l12 8q4 4 4 14v19q-6 -6 -12 -6 q-35 -4 -35 -23zM1057 -104h35v-181h-35v181zM1118 -104h33v-181h-33v181zM1120 506q0 -37 29 -47q6 -2 17 -6t32 -4t37 19t16 34q0 21 -16 43q-10 10 -23 12q-12 6 -30.5 6t-28.5 -6q-13 -8 -25 -22q-8 -14 -8 -29zM1126 -451h37l21 -96l18 96h35l20 -96l23 96h35l-37 -127 v-6h-37l-20 97l-21 -97h-37l-37 129v4zM1133 772q0 -10 16 -18q13 0 25 1t32 9l31 16l49 43l17 23l12 20l6 21q2 12 0 18q0 19 -35 23q-21 0 -51 -15l-29 -18q-8 -4 -14 -10t-12 -11l-21 -22l-14 -23q-20 -32 -12 -57zM1157 467q-21 57 6 84q0 2 9.5 6t15.5 4l8 -2l8 -4 l10 -10q2 -4 4.5 -8.5t4.5 -10.5l2 -20q0 -12 -5 -26q-9 -27 -27.5 -27t-21.5 4q-8 0 -14 10zM1159 773q0 14 12 31q24 34 39 52l19 25q6 6 20 22.5t36 16.5q7 0 7 -8q0 -5 -10 -27q-19 -40 -39 -60l-18 -22l-23 -23q-18 -18 -37 -18q-6 6 -6 11zM1241 -152h19v11 q0 37 38 37h17v-27h-8q-10 0 -13 -6v-15h25v-24h-25v-109h-34v109h-19v24zM1268 451h57v2l-20 4q-9 13 -9 24v66l95 -96h4v77q0 29 24 29v4h-55v-4h10q0 -2 4 -2q12 -12 13 -27v-47l-78 80h-43v-4h2q20 0 20 -16v-64q0 -24 -24 -24v-2zM1290 776l6 -2q8 0 21 8l8 11l6 6 q0 2 4 6l64 74l59 57q4 2 12 10l13 8l14 7q2 0 2 -3h-2l-6 -6q-2 -6 -8 -8l-6 -8l-15 -16q-17 -17 -30 -43l-17 -25q-16 -24 -8 -41q4 -8 13 -8t16.5 2t13.5 6t16 9t21 16l24 22l2 2q-2 -2 -2 -8q0 -33 39 -23q20 8 29 15l25 18q12 12 16 17l16 14q-2 -2 -2 -6l-2 -6v-9 q-4 -6 0 -10q4 -14 8 -15t11 -1q5 0 43 20l37 31l20 21q-10 -25 -10 -37v-7q6 -6 10 -6t10 3t9 5l20 13l12 12q13 7 21 17t14 16l21 24q2 2 2 5q-2 2 -6 2q-5 0 -11 -11l-26 -30q-7 -8 -15 -15l-16 -14l-8 -6l-11 -4l-2 -2q-2 0 -4 2h2l9 16q4 8 13 20.5t13 20.5l74 109 q12 12 16 20l62 68q10 12 19 24.5t20 24.5l12 20v11q-2 2 -8 2t-12.5 -2t-9.5 -4.5t-9 -5.5q-20 -10 -45 -35l-21 -23q-8 -8 -16 -20.5t-19 -26.5t-18.5 -26.5t-15.5 -24.5l-53 -90l-9 -19q-2 0 -2 -2l-16 -16q-5 -8 -23 -23l-32 -29l-9 -6l-4 -2l-6 -4h-10l12 23q0 2 1 2 t1 2l2 2q4 8 9.5 15t10.5 16q12 20 21 32l17 25l8 14q4 4 8 13q2 2 3 4t2 2t5 5q7 9 -6 9l-12 -4l-12 -6l-21 -15l-16 -16q0 8 -2 12q0 4 -8 9q-21 3 -44.5 -7t-32.5 -16q-12 -8 -32.5 -25.5t-36.5 -40t-20 -33t-4 -11.5t-3 -1q-53 -53 -71 -53h-4q-1 1 14 25l39 49 q6 8 12 15t10 18l11 20q4 12 2 19q0 12 -8 12q-13 0 -41 -16q-25 -25 -37 -31l-25 -25q-6 -6 -12 -11l-35 -38l64 90q0 2 1 2q5 0 5 15l-6 6l-9 2l-10 -2l-12 -6l-6 -7q-4 -2 -4 -4t-9 -12l-90 -156q-2 -2 -2 -8zM1329 -224q0 54 39 70q8 4 29 4q33 0 49 -16q18 -22 18 -47 q0 -45 -30 -66q-16 -10 -38 -10t-38 10q-12 10 -20.5 25.5t-8.5 29.5zM1331 -451h35v-20q14 25 41 25q45 -3 45 -46v-92h-35v80q0 16 -3 21.5t-19 5.5q-27 0 -27 -31v-76h-37v133zM1364 -218q0 -40 33 -40q31 0 32 40t-32 40t-33 -40zM1425 451h125v49h-2q-4 -4 -4 -8 l-6 -17q-2 -2 -8 -9q-11 -13 -29 -13h-28v86q0 18 20 18h8v4h-76v-4h7q18 0 18 -18v-66q0 -20 -18 -20h-7v-2zM1477 -541h34q0 -18 26 -18t26 10t-15 12l-30 9q-20 7 -28.5 13.5t-8.5 22.5q0 43 53 46q45 0 55 -25l4 -10v-11h-34q0 17 -21.5 17t-21.5 -12q0 -6 12 -9l31 -8 q38 -6 38 -37q0 -45 -57 -45h-12q-13 0 -29 10q-22 13 -22 35zM1489 -152h33v-18q14 20 36.5 20t28.5 -4l17 -14q6 -12 6 -25v-92h-35v80q0 8 -4 21q-6 6 -21 6q-24 0 -24 -31v-76h-37v133zM1542 844l2 4q0 2 10 17q15 22 17 26t10 12l59 76l9 8q17 10 30 10l7 -4l2 -8 q0 -10 -7 -16l-18 -25l-16 -26l-19 -19l-18 -20l-27 -23q-12 -6 -16 -10q-10 -10 -21 -6h-2q-2 2 -2 4zM1544 557h2q20 0 27 -14l35 -45v-25q0 -20 -21 -20h-6v-2h78v2h-8q-21 0 -21 20v27l35 47q8 4 10 6q4 4 17 4v4h-56v-4h6q17 0 17 -10q0 -4 -6 -12l-23 -31l-28 37 q-4 8 -5 8v2q0 6 9 6h10v4h-72v-4zM1624 -547h37v-37h-37v37zM1626 -152h21v35h32v-35h23v-24h-23v-72l2 -10l13 -2l4 2h4v-27h-23q-16 0 -20 4q-10 0 -12 9v96h-21v24zM1686 -520q0 74 59 74q18 0 31 -7q14 -4 20 -18q10 -10 10 -27h-37q0 21 -20 21q-27 0 -29 -37 q0 -33 7.5 -38t19.5 -5q22 0 22 22h37q0 -27 -20 -39t-44 -12q-36 0 -54 35q-2 8 -2 31zM1784 -249q0 21 10 30q12 8 29 12l30 4q12 2 12.5 14t-20.5 12.5t-24 -20.5h-33q4 34 27 43q8 4 14 4h16q41 0 48 -16t8 -20v-86q0 -6 8 -7v-6h-39q-2 0 -2 2v4q0 4 -1 6.5t-1 4.5 q-14 -21 -41 -21q-6 0 -19 4q-4 4 -8 7q-14 8 -14 29zM1819 -248q0 -14 16 -14h10q12 6 17 10q4 8 4 16v17q-6 -6 -15 -6l-16 -4q-16 0 -16 -19zM1823 -518q0 27 16 51q12 12 23 14q8 6 30.5 6.5t49.5 -18.5q4 -4 6 -10t6 -13t4 -28q0 -42 -22.5 -56t-47.5 -14q-39 0 -59 35 q-6 14 -6 33zM1860 -517q0 -40 30 -40q31 0 31 31t-6 40t-25 9q-30 0 -30 -40zM1894 1083l33 45l17 27l30 41l2 2q0 6 4 7t5 -1q0 -6 -12.5 -24.5t-16.5 -20.5l-39 -49l-12 -14q-2 -4 -11 -13zM1917 -152h16v35h37v-35h23v-24h-23v-72l2 -10l10 -2l7 2h4v-27h-23 q-16 0 -22 4q-8 0 -15 23v82h-16v24zM1982 -451h33v-20q14 25 39.5 25t36.5 -23q11 21 32 22t29 -8q13 -6 15 -16q6 -6 6 -21v-92h-35v80q0 27 -21.5 27t-21.5 -27v-80h-35v80q0 10 -2 12q0 15 -18 15q-23 0 -23 -25v-82h-35v133z" />
<glyph unicode="&#x26;" horiz-adv-x="1001" d="M-31 176.5q4 63.5 55.5 136t131.5 137.5q176 145 399 187q-31 0 -68.5 29.5t-53 58.5t-15.5 64.5t22 78.5q-72 43 -67.5 94.5t53.5 99.5t128 87t160 57q195 42 240 -53q-153 35 -313 -11q-154 -43 -216 -120q-69 -85 24 -139q57 100 199 157q134 55 274 50 q150 -6 208 -70q25 -25 19 -49q0 -63 -133 -112q-68 -25 -137.5 -35.5t-110.5 -16.5t-81 -8q-99 -5 -142 18q-48 -91 -39.5 -116t30 -35.5t74.5 -20.5q116 -22 279 -31l53 76q31 47 43 82t-12 64q52 -19 69 -86q15 -60 -16 -111l-20 -27q125 4 157 29q-8 -70 -186 -63 l-14 -21q-166 -193 -224 -277q-128 -187 -73 -260l59 46q33 26 69 57q54 48 132 110q-4 -10 -9.5 -20t-9.5 -20q-19 -14 -83 -71q-118 -104 -144 -118q-68 12 -80 62q-213 -72 -401 -64q-41 -66 -26 -110t66.5 -65.5t130.5 -18t162 33.5q192 72 291 240q27 -35 5.5 -75 t-71.5 -75.5t-122 -65.5t-145.5 -47.5t-143.5 -19.5t-118 19q-108 46 -48 188q-119 12 -167 59.5t-44 111zM90 186q-67 -131 105 -161q151 6 403 69q0 112 153 331q42 60 83 116l30 43q-84 6 -225 32q-148 -59 -309 -180q-185 -140 -240 -250zM559 836q73 -32 215 -8 q39 6 106.5 16t131.5 34q116 43 118 89q2 18 -23.5 43t-99 26.5t-158.5 -21t-165 -68t-125 -111.5z" />
<glyph unicode="'" horiz-adv-x="20" d="M207 651q10 33 17 66t20 63q49 121 96 171t65.5 41t-2 -72.5t-73.5 -129.5q-66 -82 -123 -139z" />
<glyph unicode="(" horiz-adv-x="2312" d="M135 -451h37l21 -96l18 96h37l18 -96l23 96h35l-37 -127v-6h-37l-21 97l-20 -97h-37l-37 129v4zM205 379v579l315 68l-12 43l47 14l-10 47l49 11l-6 51l47 4v47h43l4 43l47 -6l8 47l51 -8l13 47l45 -12l18 43l47 -19l25 45l43 -22l25 41l43 -29l30 39l39 -31l33 33 l31 -29l30 27l31 -35l41 27l27 -43l45 24l22 -41l43 19l21 -47l49 14l14 -45l45 10l11 -49l51 4l2 -30l473 102v-580l-217 -47l4 -4l-27 -31l27 -32l-37 -31l27 -41l-43 -27l26 -43l-43 -24l19 -43l-47 -21l16 -49l-45 -14l8 -45l-49 -11l4 -51l-47 -4v-47h-41l-6 -43l-45 4 l-10 -45l-50 8l-14 -47l-45 15l-16 -48l-50 21l-22 -45l-43 22l-27 -41l-43 27l-28 -37l-37 31l-35 -33l-31 29l-33 -29l-28 37l-41 -27l-29 43l-43 -24l-22 41l-45 -19l-21 47l-47 -14l-14 45l-47 -10l-11 49l-49 -4l-6 47h-47v43l-41 4l4 47l-47 8l10 50l-49 14l14 45 l-32 12zM330 -451h35l22 -96l19 96h34l21 -96l20 96h37l-37 -127l-2 -6h-35l-22 97l-21 -97h-36l-35 129v4zM334 -212q0 27 4 47.5t13 30.5q29 34 71 34h6q17 0 25 -4q26 -15 33 -25q14 -20 14 -31h-39q0 12 -17 23q-10 6 -18 6t-12 -2h-8l-17 -12q-16 -16 -16 -43t4 -41 t13 -19q11 -5 26 -10h6q14 0 20 6q10 0 17.5 13.5t7.5 19.5h-43v33h76v-99h-25l-4 23q-11 -19 -22 -21t-15 -6l-22 -2q-18 0 -32 7.5t-22 19.5q-24 24 -24 52zM334 543q0 -2 2 -4h10l10 6l13 12l8 12l12 13q2 4 10 12l74 102q6 10 12.5 17.5t10.5 17.5l24 37q6 10 12.5 18.5 t10.5 18.5q6 10 11 18q18 29 3 29q-7 0 -20 -8l-21 -23l-18 -24q-10 -10 -17 -23l-18 -22l-66 -95l-30 -49l-31 -55l-2 -6v-4zM383 778q-4 -24 12 -35l21 -6q35 0 35 8q0 2 -2 3h-7q-4 0 -4 -3q-37 -4 -43 8.5t-6 18.5q0 8 10 29l21 22q9 9 20.5 16t17.5 11q14 9 26 13.5 l20 7.5t15 5.5t18 6.5l32 6q20 4 31 4q10 0 20.5 -3t15.5 -4q7 -1 14 -13.5t7 -22.5t-4 -27l-12 -22q-13 -25 -23 -33t-15 -14t-12 -11.5t-13 -11.5l-27 -16l-29 -13l-16 -6q-6 0 -14 -4h-7q-10 0 -10 -4q-4 0 -4 -3t2 -3h6q4 0 6 2h7l30 10l62 27l30 18l27 19l25 22l20 23 q8 12 13 24q15 37 -3 62q-21 16 -35 17t-27 1t-32 -3q-65 -11 -90 -22.5t-37 -17.5q-44 -22 -56.5 -34.5t-25.5 -28.5zM522 -215q0 21 6 35t18 21q14 9 40.5 9t36.5 -8t16 -22q8 -19 8 -41v-8h-92q0 -12 8 -21.5t19.5 -9.5t19.5 4q8 8 8 10h37q-17 -43 -59 -43q-66 0 -66 74 zM522 -451h37l21 -96l18 96h37l18 -96l21 96h37l-37 -127l-2 -6h-35l-21 97l-22 -97h-35l-37 129v4zM559 -205h53q-8 23 -14 26t-12 3q-23 0 -27 -29zM641 557h2q23 0 23 -18v-56q0 -34 53 -34q51 0 51 38v58l10 10h2l2 2h9v4h-56v-4h13q18 -6 18 -29v-39q0 -16 -10 -26 l-15 -10h-18q-37 0 -37 30v56q0 12 4 15t17 3h8v4h-76v-4zM657 -152h19v35h35v-35h20v-24h-20v-72q0 -8 2 -10l12 -2l4 2h2v-27h-20q-16 0 -23 4q-12 0 -12 23v82h-19v24zM657 678q8 -23 30 -22q39 2 77 26q18 8 37 25l28 24l17 19q0 2 4 6q0 4 4 4l4 8l19 18l18 25 q13 13 20 25q15 -8 15 -19q0 -2 -8 -10l-19 -21l-16 -22l-15 -23l-6 -20q-2 -4 -2 -10v-9q7 -10 13 -10t22 4l19 13q27 20 33.5 28t13 14.5t8.5 10.5l10 12l4 6q10 10 10 13l15 18l24 35l6 -33l5 -8q-20 -8 -29 -14l-23 -19q-18 -18 -18 -41q4 -12 27 -11q37 2 63 28 q10 6 18 20l11 20q6 12 6 23v18q0 23 -19 45q0 7 -8 15v6q2 2 2 4h-10l-4 -4q-6 -2 -14 -10l-7 -15l-2 -2l-49 -67l-6 -10l-2 -3v-2q-1 0 -16 -20l-19 -23l-24 -22q-12 -12 -29 -12h-2l2 2l8 12l17 22q2 1 18 27l10 19q8 21 7 27.5t-1 12.5l-4 7q0 4 -2 6v26q14 22 6 27.5 t-22 0.5q-35 -12 -35 -38q0 -10 10 -20l-6 -9l-57 -69q-2 0 -6 -4v-2l-2 -2q0 -2 -2 -2l-13 -17l-15 -15q-20 -20 -40 -31t-26.5 -12t-17.5 -5t-17 -2q-11 0 -11 12l8 20l13 21q8 -4 17 -4q26 0 42 9t35 24l18 18q9 9 21 35q0 17 -14 26q-25 8 -43 -4q-38 -9 -68.5 -35 t-42.5 -49q-16 -16 -23 -45v-20zM711 -547h37v-37h-37v37zM723 737l18 25l21 24q10 14 13 15.5t5 5.5l13 10l14 6q10 2 16 0q3 -7 -3.5 -16.5t-10.5 -16t-5 -8.5t-5 -4q-4 -8 -24 -26.5t-32 -18.5t-20 4zM780 -451h33v-20q12 25 37.5 25t38.5 -23q8 21 30 21q29 1 46 -23 q4 -4 4 -21v-92h-33v80q0 27 -22 27t-21 -27v-80h-37v92q0 15 -21.5 15t-21.5 -25v-82h-33v133zM807 532q0 -10 12 -22l15 -6q2 -2 8 -3l24 -7q12 -4 17 -5q6 0 12 -6t6 -12.5t-14 -17.5h-13q-12 0 -18 2l-20 8l-13 12q-10 14 -10 25h-4v-51h4q0 12 14 12q2 0 2 -1t5 -1 l8 -2q21 -8 29.5 -8t16.5 2q23 5 23 10.5t4 9.5v23l-6 8q-6 4 -14 8l-21 8h-12l-2 2l-16 4q-4 2 -6 2q-4 0 -11 6q-4 4 -4 9.5t1 5.5t5 8l9 4l12 2q8 0 16 -4q15 0 29 -14q4 -4 5 -9.5t5 -11.5h4v37h-4q-2 -8 -8 -8l-47 12q-10 0 -23 -4l-14 -10q-6 -10 -6 -17zM809 -152h18 v11q0 37 39 37h19v-27h-11q-12 0 -12 -6v-15h23v-24h-23v-109h-35v109h-18v24zM905 -152h35v-81q0 -25 23 -25q12 0 24 12l4 17v77h33v-133h-33v19q-14 -23 -37 -23q-47 0 -49 49v88zM928 451h119v45q-4 -4 -5 -8q0 -5 -10 -17q-15 -18 -39 -18h-18v49h2q16 0 27 -15 q4 -16 4 -18h2v72h-2v-11q-14 -24 -27 -24h-6v51h20q18 0 25 -2l10 -8l6 -12l6 -17h5v43h-119v-4h4q18 0 18 -18v-66q0 -20 -18 -20h-4v-2zM987 733v10l4 13q17 22 31 30l27 13l2 -13q-2 -4 -2 -10l-2 -12q-7 -14 -15 -23q-16 -12 -28 -12q-6 -7 -17 4zM991 -546q0 31 39 40 l33 4q10 4 10 10q0 16 -20 17l-17 -2q-6 -12 -6 -17h-33q0 14 7 27q15 15 49 21q36 0 53 -23q2 -6 2 -16v-72q0 -10 2 -14q0 -6 6 -7v-6h-37q0 2 -2 4v2q-2 4 -2 11q-19 -19 -37 -19t-25 2t-14 15q-8 6 -8 23zM1026 -547q0 -14 18 -14h7l6 2l12 8q4 4 4 14v19q-6 -6 -12 -6 q-35 -4 -35 -23zM1057 -104h35v-181h-35v181zM1118 -104h33v-181h-33v181zM1120 506q0 -37 29 -47q6 -2 17 -6t32 -4t37 19t16 34q0 21 -16 43q-10 10 -23 12q-12 6 -30.5 6t-28.5 -6q-13 -8 -25 -22q-8 -14 -8 -29zM1126 -451h37l21 -96l18 96h35l20 -96l23 96h35l-37 -127 v-6h-37l-20 97l-21 -97h-37l-37 129v4zM1133 772q0 -10 16 -18q13 0 25 1t32 9l31 16l49 43l17 23l12 20l6 21q2 12 0 18q0 19 -35 23q-21 0 -51 -15l-29 -18q-8 -4 -14 -10t-12 -11l-21 -22l-14 -23q-20 -32 -12 -57zM1157 467q-21 57 6 84q0 2 9.5 6t15.5 4l8 -2l8 -4 l10 -10q2 -4 4.5 -8.5t4.5 -10.5l2 -20q0 -12 -5 -26q-9 -27 -27.5 -27t-21.5 4q-8 0 -14 10zM1159 773q0 14 12 31q24 34 39 52l19 25q6 6 20 22.5t36 16.5q7 0 7 -8q0 -5 -10 -27q-19 -40 -39 -60l-18 -22l-23 -23q-18 -18 -37 -18q-6 6 -6 11zM1241 -152h19v11 q0 37 38 37h17v-27h-8q-10 0 -13 -6v-15h25v-24h-25v-109h-34v109h-19v24zM1268 451h57v2l-20 4q-9 13 -9 24v66l95 -96h4v77q0 29 24 29v4h-55v-4h10q0 -2 4 -2q12 -12 13 -27v-47l-78 80h-43v-4h2q20 0 20 -16v-64q0 -24 -24 -24v-2zM1290 776l6 -2q8 0 21 8l8 11l6 6 q0 2 4 6l64 74l59 57q4 2 12 10l13 8l14 7q2 0 2 -3h-2l-6 -6q-2 -6 -8 -8l-6 -8l-15 -16q-17 -17 -30 -43l-17 -25q-16 -24 -8 -41q4 -8 13 -8t16.5 2t13.5 6t16 9t21 16l24 22l2 2q-2 -2 -2 -8q0 -33 39 -23q20 8 29 15l25 18q12 12 16 17l16 14q-2 -2 -2 -6l-2 -6v-9 q-4 -6 0 -10q4 -14 8 -15t11 -1q5 0 43 20l37 31l20 21q-10 -25 -10 -37v-7q6 -6 10 -6t10 3t9 5l20 13l12 12q13 7 21 17t14 16l21 24q2 2 2 5q-2 2 -6 2q-5 0 -11 -11l-26 -30q-7 -8 -15 -15l-16 -14l-8 -6l-11 -4l-2 -2q-2 0 -4 2h2l9 16q4 8 13 20.5t13 20.5l74 109 q12 12 16 20l62 68q10 12 19 24.5t20 24.5l12 20v11q-2 2 -8 2t-12.5 -2t-9.5 -4.5t-9 -5.5q-20 -10 -45 -35l-21 -23q-8 -8 -16 -20.5t-19 -26.5t-18.5 -26.5t-15.5 -24.5l-53 -90l-9 -19q-2 0 -2 -2l-16 -16q-5 -8 -23 -23l-32 -29l-9 -6l-4 -2l-6 -4h-10l12 23q0 2 1 2 t1 2l2 2q4 8 9.5 15t10.5 16q12 20 21 32l17 25l8 14q4 4 8 13q2 2 3 4t2 2t5 5q7 9 -6 9l-12 -4l-12 -6l-21 -15l-16 -16q0 8 -2 12q0 4 -8 9q-21 3 -44.5 -7t-32.5 -16q-12 -8 -32.5 -25.5t-36.5 -40t-20 -33t-4 -11.5t-3 -1q-53 -53 -71 -53h-4q-1 1 14 25l39 49 q6 8 12 15t10 18l11 20q4 12 2 19q0 12 -8 12q-13 0 -41 -16q-25 -25 -37 -31l-25 -25q-6 -6 -12 -11l-35 -38l64 90q0 2 1 2q5 0 5 15l-6 6l-9 2l-10 -2l-12 -6l-6 -7q-4 -2 -4 -4t-9 -12l-90 -156q-2 -2 -2 -8zM1329 -224q0 54 39 70q8 4 29 4q33 0 49 -16q18 -22 18 -47 q0 -45 -30 -66q-16 -10 -38 -10t-38 10q-12 10 -20.5 25.5t-8.5 29.5zM1331 -451h35v-20q14 25 41 25q45 -3 45 -46v-92h-35v80q0 16 -3 21.5t-19 5.5q-27 0 -27 -31v-76h-37v133zM1364 -218q0 -40 33 -40q31 0 32 40t-32 40t-33 -40zM1425 451h125v49h-2q-4 -4 -4 -8 l-6 -17q-2 -2 -8 -9q-11 -13 -29 -13h-28v86q0 18 20 18h8v4h-76v-4h7q18 0 18 -18v-66q0 -20 -18 -20h-7v-2zM1477 -541h34q0 -18 26 -18t26 10t-15 12l-30 9q-20 7 -28.5 13.5t-8.5 22.5q0 43 53 46q45 0 55 -25l4 -10v-11h-34q0 17 -21.5 17t-21.5 -12q0 -6 12 -9l31 -8 q38 -6 38 -37q0 -45 -57 -45h-12q-13 0 -29 10q-22 13 -22 35zM1489 -152h33v-18q14 20 36.5 20t28.5 -4l17 -14q6 -12 6 -25v-92h-35v80q0 8 -4 21q-6 6 -21 6q-24 0 -24 -31v-76h-37v133zM1542 844l2 4q0 2 10 17q15 22 17 26t10 12l59 76l9 8q17 10 30 10l7 -4l2 -8 q0 -10 -7 -16l-18 -25l-16 -26l-19 -19l-18 -20l-27 -23q-12 -6 -16 -10q-10 -10 -21 -6h-2q-2 2 -2 4zM1544 557h2q20 0 27 -14l35 -45v-25q0 -20 -21 -20h-6v-2h78v2h-8q-21 0 -21 20v27l35 47q8 4 10 6q4 4 17 4v4h-56v-4h6q17 0 17 -10q0 -4 -6 -12l-23 -31l-28 37 q-4 8 -5 8v2q0 6 9 6h10v4h-72v-4zM1624 -547h37v-37h-37v37zM1626 -152h21v35h32v-35h23v-24h-23v-72l2 -10l13 -2l4 2h4v-27h-23q-16 0 -20 4q-10 0 -12 9v96h-21v24zM1686 -520q0 74 59 74q18 0 31 -7q14 -4 20 -18q10 -10 10 -27h-37q0 21 -20 21q-27 0 -29 -37 q0 -33 7.5 -38t19.5 -5q22 0 22 22h37q0 -27 -20 -39t-44 -12q-36 0 -54 35q-2 8 -2 31zM1784 -249q0 21 10 30q12 8 29 12l30 4q12 2 12.5 14t-20.5 12.5t-24 -20.5h-33q4 34 27 43q8 4 14 4h16q41 0 48 -16t8 -20v-86q0 -6 8 -7v-6h-39q-2 0 -2 2v4q0 4 -1 6.5t-1 4.5 q-14 -21 -41 -21q-6 0 -19 4q-4 4 -8 7q-14 8 -14 29zM1819 -248q0 -14 16 -14h10q12 6 17 10q4 8 4 16v17q-6 -6 -15 -6l-16 -4q-16 0 -16 -19zM1823 -518q0 27 16 51q12 12 23 14q8 6 30.5 6.5t49.5 -18.5q4 -4 6 -10t6 -13t4 -28q0 -42 -22.5 -56t-47.5 -14q-39 0 -59 35 q-6 14 -6 33zM1860 -517q0 -40 30 -40q31 0 31 31t-6 40t-25 9q-30 0 -30 -40zM1894 1083l33 45l17 27l30 41l2 2q0 6 4 7t5 -1q0 -6 -12.5 -24.5t-16.5 -20.5l-39 -49l-12 -14q-2 -4 -11 -13zM1917 -152h16v35h37v-35h23v-24h-23v-72l2 -10l10 -2l7 2h4v-27h-23 q-16 0 -22 4q-8 0 -15 23v82h-16v24zM1982 -451h33v-20q14 25 39.5 25t36.5 -23q11 21 32 22t29 -8q13 -6 15 -16q6 -6 6 -21v-92h-35v80q0 27 -21.5 27t-21.5 -27v-80h-35v80q0 10 -2 12q0 15 -18 15q-23 0 -23 -25v-82h-35v133z" />
<glyph unicode=")" horiz-adv-x="2293" d="M135 -451h37l21 -96l18 96h37l18 -96l23 96h35l-37 -127v-6h-37l-21 97l-20 -97h-37l-37 129v4zM205 379v579l315 68l-12 43l47 14l-10 47l49 11l-6 51l47 4v47h43l4 43l47 -6l8 47l51 -8l13 47l45 -12l18 43l47 -19l25 45l43 -22l25 41l43 -29l30 39l39 -31l33 33 l31 -29l30 27l31 -35l41 27l27 -43l45 24l22 -41l43 19l21 -47l49 14l14 -45l45 10l11 -49l51 4l2 -30l473 102v-580l-217 -47l4 -4l-27 -31l27 -32l-37 -31l27 -41l-43 -27l26 -43l-43 -24l19 -43l-47 -21l16 -49l-45 -14l8 -45l-49 -11l4 -51l-47 -4v-47h-41l-6 -43l-45 4 l-10 -45l-50 8l-14 -47l-45 15l-16 -48l-50 21l-22 -45l-43 22l-27 -41l-43 27l-28 -37l-37 31l-35 -33l-31 29l-33 -29l-28 37l-41 -27l-29 43l-43 -24l-22 41l-45 -19l-21 47l-47 -14l-14 45l-47 -10l-11 49l-49 -4l-6 47h-47v43l-41 4l4 47l-47 8l10 50l-49 14l14 45 l-32 12zM330 -451h35l22 -96l19 96h34l21 -96l20 96h37l-37 -127l-2 -6h-35l-22 97l-21 -97h-36l-35 129v4zM334 -212q0 27 4 47.5t13 30.5q29 34 71 34h6q17 0 25 -4q26 -15 33 -25q14 -20 14 -31h-39q0 12 -17 23q-10 6 -18 6t-12 -2h-8l-17 -12q-16 -16 -16 -43t4 -41 t13 -19q11 -5 26 -10h6q14 0 20 6q10 0 17.5 13.5t7.5 19.5h-43v33h76v-99h-25l-4 23q-11 -19 -22 -21t-15 -6l-22 -2q-18 0 -32 7.5t-22 19.5q-24 24 -24 52zM334 543q0 -2 2 -4h10l10 6l13 12l8 12l12 13q2 4 10 12l74 102q6 10 12.5 17.5t10.5 17.5l24 37q6 10 12.5 18.5 t10.5 18.5q6 10 11 18q18 29 3 29q-7 0 -20 -8l-21 -23l-18 -24q-10 -10 -17 -23l-18 -22l-66 -95l-30 -49l-31 -55l-2 -6v-4zM383 778q-4 -24 12 -35l21 -6q35 0 35 8q0 2 -2 3h-7q-4 0 -4 -3q-37 -4 -43 8.5t-6 18.5q0 8 10 29l21 22q9 9 20.5 16t17.5 11q14 9 26 13.5 l20 7.5t15 5.5t18 6.5l32 6q20 4 31 4q10 0 20.5 -3t15.5 -4q7 -1 14 -13.5t7 -22.5t-4 -27l-12 -22q-13 -25 -23 -33t-15 -14t-12 -11.5t-13 -11.5l-27 -16l-29 -13l-16 -6q-6 0 -14 -4h-7q-10 0 -10 -4q-4 0 -4 -3t2 -3h6q4 0 6 2h7l30 10l62 27l30 18l27 19l25 22l20 23 q8 12 13 24q15 37 -3 62q-21 16 -35 17t-27 1t-32 -3q-65 -11 -90 -22.5t-37 -17.5q-44 -22 -56.5 -34.5t-25.5 -28.5zM522 -215q0 21 6 35t18 21q14 9 40.5 9t36.5 -8t16 -22q8 -19 8 -41v-8h-92q0 -12 8 -21.5t19.5 -9.5t19.5 4q8 8 8 10h37q-17 -43 -59 -43q-66 0 -66 74 zM522 -451h37l21 -96l18 96h37l18 -96l21 96h37l-37 -127l-2 -6h-35l-21 97l-22 -97h-35l-37 129v4zM559 -205h53q-8 23 -14 26t-12 3q-23 0 -27 -29zM641 557h2q23 0 23 -18v-56q0 -34 53 -34q51 0 51 38v58l10 10h2l2 2h9v4h-56v-4h13q18 -6 18 -29v-39q0 -16 -10 -26 l-15 -10h-18q-37 0 -37 30v56q0 12 4 15t17 3h8v4h-76v-4zM657 -152h19v35h35v-35h20v-24h-20v-72q0 -8 2 -10l12 -2l4 2h2v-27h-20q-16 0 -23 4q-12 0 -12 23v82h-19v24zM657 678q8 -23 30 -22q39 2 77 26q18 8 37 25l28 24l17 19q0 2 4 6q0 4 4 4l4 8l19 18l18 25 q13 13 20 25q15 -8 15 -19q0 -2 -8 -10l-19 -21l-16 -22l-15 -23l-6 -20q-2 -4 -2 -10v-9q7 -10 13 -10t22 4l19 13q27 20 33.5 28t13 14.5t8.5 10.5l10 12l4 6q10 10 10 13l15 18l24 35l6 -33l5 -8q-20 -8 -29 -14l-23 -19q-18 -18 -18 -41q4 -12 27 -11q37 2 63 28 q10 6 18 20l11 20q6 12 6 23v18q0 23 -19 45q0 7 -8 15v6q2 2 2 4h-10l-4 -4q-6 -2 -14 -10l-7 -15l-2 -2l-49 -67l-6 -10l-2 -3v-2q-1 0 -16 -20l-19 -23l-24 -22q-12 -12 -29 -12h-2l2 2l8 12l17 22q2 1 18 27l10 19q8 21 7 27.5t-1 12.5l-4 7q0 4 -2 6v26q14 22 6 27.5 t-22 0.5q-35 -12 -35 -38q0 -10 10 -20l-6 -9l-57 -69q-2 0 -6 -4v-2l-2 -2q0 -2 -2 -2l-13 -17l-15 -15q-20 -20 -40 -31t-26.5 -12t-17.5 -5t-17 -2q-11 0 -11 12l8 20l13 21q8 -4 17 -4q26 0 42 9t35 24l18 18q9 9 21 35q0 17 -14 26q-25 8 -43 -4q-38 -9 -68.5 -35 t-42.5 -49q-16 -16 -23 -45v-20zM711 -547h37v-37h-37v37zM723 737l18 25l21 24q10 14 13 15.5t5 5.5l13 10l14 6q10 2 16 0q3 -7 -3.5 -16.5t-10.5 -16t-5 -8.5t-5 -4q-4 -8 -24 -26.5t-32 -18.5t-20 4zM780 -451h33v-20q12 25 37.5 25t38.5 -23q8 21 30 21q29 1 46 -23 q4 -4 4 -21v-92h-33v80q0 27 -22 27t-21 -27v-80h-37v92q0 15 -21.5 15t-21.5 -25v-82h-33v133zM807 532q0 -10 12 -22l15 -6q2 -2 8 -3l24 -7q12 -4 17 -5q6 0 12 -6t6 -12.5t-14 -17.5h-13q-12 0 -18 2l-20 8l-13 12q-10 14 -10 25h-4v-51h4q0 12 14 12q2 0 2 -1t5 -1 l8 -2q21 -8 29.5 -8t16.5 2q23 5 23 10.5t4 9.5v23l-6 8q-6 4 -14 8l-21 8h-12l-2 2l-16 4q-4 2 -6 2q-4 0 -11 6q-4 4 -4 9.5t1 5.5t5 8l9 4l12 2q8 0 16 -4q15 0 29 -14q4 -4 5 -9.5t5 -11.5h4v37h-4q-2 -8 -8 -8l-47 12q-10 0 -23 -4l-14 -10q-6 -10 -6 -17zM809 -152h18 v11q0 37 39 37h19v-27h-11q-12 0 -12 -6v-15h23v-24h-23v-109h-35v109h-18v24zM905 -152h35v-81q0 -25 23 -25q12 0 24 12l4 17v77h33v-133h-33v19q-14 -23 -37 -23q-47 0 -49 49v88zM928 451h119v45q-4 -4 -5 -8q0 -5 -10 -17q-15 -18 -39 -18h-18v49h2q16 0 27 -15 q4 -16 4 -18h2v72h-2v-11q-14 -24 -27 -24h-6v51h20q18 0 25 -2l10 -8l6 -12l6 -17h5v43h-119v-4h4q18 0 18 -18v-66q0 -20 -18 -20h-4v-2zM987 733v10l4 13q17 22 31 30l27 13l2 -13q-2 -4 -2 -10l-2 -12q-7 -14 -15 -23q-16 -12 -28 -12q-6 -7 -17 4zM991 -546q0 31 39 40 l33 4q10 4 10 10q0 16 -20 17l-17 -2q-6 -12 -6 -17h-33q0 14 7 27q15 15 49 21q36 0 53 -23q2 -6 2 -16v-72q0 -10 2 -14q0 -6 6 -7v-6h-37q0 2 -2 4v2q-2 4 -2 11q-19 -19 -37 -19t-25 2t-14 15q-8 6 -8 23zM1026 -547q0 -14 18 -14h7l6 2l12 8q4 4 4 14v19q-6 -6 -12 -6 q-35 -4 -35 -23zM1057 -104h35v-181h-35v181zM1118 -104h33v-181h-33v181zM1120 506q0 -37 29 -47q6 -2 17 -6t32 -4t37 19t16 34q0 21 -16 43q-10 10 -23 12q-12 6 -30.5 6t-28.5 -6q-13 -8 -25 -22q-8 -14 -8 -29zM1126 -451h37l21 -96l18 96h35l20 -96l23 96h35l-37 -127 v-6h-37l-20 97l-21 -97h-37l-37 129v4zM1133 772q0 -10 16 -18q13 0 25 1t32 9l31 16l49 43l17 23l12 20l6 21q2 12 0 18q0 19 -35 23q-21 0 -51 -15l-29 -18q-8 -4 -14 -10t-12 -11l-21 -22l-14 -23q-20 -32 -12 -57zM1157 467q-21 57 6 84q0 2 9.5 6t15.5 4l8 -2l8 -4 l10 -10q2 -4 4.5 -8.5t4.5 -10.5l2 -20q0 -12 -5 -26q-9 -27 -27.5 -27t-21.5 4q-8 0 -14 10zM1159 773q0 14 12 31q24 34 39 52l19 25q6 6 20 22.5t36 16.5q7 0 7 -8q0 -5 -10 -27q-19 -40 -39 -60l-18 -22l-23 -23q-18 -18 -37 -18q-6 6 -6 11zM1241 -152h19v11 q0 37 38 37h17v-27h-8q-10 0 -13 -6v-15h25v-24h-25v-109h-34v109h-19v24zM1268 451h57v2l-20 4q-9 13 -9 24v66l95 -96h4v77q0 29 24 29v4h-55v-4h10q0 -2 4 -2q12 -12 13 -27v-47l-78 80h-43v-4h2q20 0 20 -16v-64q0 -24 -24 -24v-2zM1290 776l6 -2q8 0 21 8l8 11l6 6 q0 2 4 6l64 74l59 57q4 2 12 10l13 8l14 7q2 0 2 -3h-2l-6 -6q-2 -6 -8 -8l-6 -8l-15 -16q-17 -17 -30 -43l-17 -25q-16 -24 -8 -41q4 -8 13 -8t16.5 2t13.5 6t16 9t21 16l24 22l2 2q-2 -2 -2 -8q0 -33 39 -23q20 8 29 15l25 18q12 12 16 17l16 14q-2 -2 -2 -6l-2 -6v-9 q-4 -6 0 -10q4 -14 8 -15t11 -1q5 0 43 20l37 31l20 21q-10 -25 -10 -37v-7q6 -6 10 -6t10 3t9 5l20 13l12 12q13 7 21 17t14 16l21 24q2 2 2 5q-2 2 -6 2q-5 0 -11 -11l-26 -30q-7 -8 -15 -15l-16 -14l-8 -6l-11 -4l-2 -2q-2 0 -4 2h2l9 16q4 8 13 20.5t13 20.5l74 109 q12 12 16 20l62 68q10 12 19 24.5t20 24.5l12 20v11q-2 2 -8 2t-12.5 -2t-9.5 -4.5t-9 -5.5q-20 -10 -45 -35l-21 -23q-8 -8 -16 -20.5t-19 -26.5t-18.5 -26.5t-15.5 -24.5l-53 -90l-9 -19q-2 0 -2 -2l-16 -16q-5 -8 -23 -23l-32 -29l-9 -6l-4 -2l-6 -4h-10l12 23q0 2 1 2 t1 2l2 2q4 8 9.5 15t10.5 16q12 20 21 32l17 25l8 14q4 4 8 13q2 2 3 4t2 2t5 5q7 9 -6 9l-12 -4l-12 -6l-21 -15l-16 -16q0 8 -2 12q0 4 -8 9q-21 3 -44.5 -7t-32.5 -16q-12 -8 -32.5 -25.5t-36.5 -40t-20 -33t-4 -11.5t-3 -1q-53 -53 -71 -53h-4q-1 1 14 25l39 49 q6 8 12 15t10 18l11 20q4 12 2 19q0 12 -8 12q-13 0 -41 -16q-25 -25 -37 -31l-25 -25q-6 -6 -12 -11l-35 -38l64 90q0 2 1 2q5 0 5 15l-6 6l-9 2l-10 -2l-12 -6l-6 -7q-4 -2 -4 -4t-9 -12l-90 -156q-2 -2 -2 -8zM1329 -224q0 54 39 70q8 4 29 4q33 0 49 -16q18 -22 18 -47 q0 -45 -30 -66q-16 -10 -38 -10t-38 10q-12 10 -20.5 25.5t-8.5 29.5zM1331 -451h35v-20q14 25 41 25q45 -3 45 -46v-92h-35v80q0 16 -3 21.5t-19 5.5q-27 0 -27 -31v-76h-37v133zM1364 -218q0 -40 33 -40q31 0 32 40t-32 40t-33 -40zM1425 451h125v49h-2q-4 -4 -4 -8 l-6 -17q-2 -2 -8 -9q-11 -13 -29 -13h-28v86q0 18 20 18h8v4h-76v-4h7q18 0 18 -18v-66q0 -20 -18 -20h-7v-2zM1477 -541h34q0 -18 26 -18t26 10t-15 12l-30 9q-20 7 -28.5 13.5t-8.5 22.5q0 43 53 46q45 0 55 -25l4 -10v-11h-34q0 17 -21.5 17t-21.5 -12q0 -6 12 -9l31 -8 q38 -6 38 -37q0 -45 -57 -45h-12q-13 0 -29 10q-22 13 -22 35zM1489 -152h33v-18q14 20 36.5 20t28.5 -4l17 -14q6 -12 6 -25v-92h-35v80q0 8 -4 21q-6 6 -21 6q-24 0 -24 -31v-76h-37v133zM1542 844l2 4q0 2 10 17q15 22 17 26t10 12l59 76l9 8q17 10 30 10l7 -4l2 -8 q0 -10 -7 -16l-18 -25l-16 -26l-19 -19l-18 -20l-27 -23q-12 -6 -16 -10q-10 -10 -21 -6h-2q-2 2 -2 4zM1544 557h2q20 0 27 -14l35 -45v-25q0 -20 -21 -20h-6v-2h78v2h-8q-21 0 -21 20v27l35 47q8 4 10 6q4 4 17 4v4h-56v-4h6q17 0 17 -10q0 -4 -6 -12l-23 -31l-28 37 q-4 8 -5 8v2q0 6 9 6h10v4h-72v-4zM1624 -547h37v-37h-37v37zM1626 -152h21v35h32v-35h23v-24h-23v-72l2 -10l13 -2l4 2h4v-27h-23q-16 0 -20 4q-10 0 -12 9v96h-21v24zM1686 -520q0 74 59 74q18 0 31 -7q14 -4 20 -18q10 -10 10 -27h-37q0 21 -20 21q-27 0 -29 -37 q0 -33 7.5 -38t19.5 -5q22 0 22 22h37q0 -27 -20 -39t-44 -12q-36 0 -54 35q-2 8 -2 31zM1784 -249q0 21 10 30q12 8 29 12l30 4q12 2 12.5 14t-20.5 12.5t-24 -20.5h-33q4 34 27 43q8 4 14 4h16q41 0 48 -16t8 -20v-86q0 -6 8 -7v-6h-39q-2 0 -2 2v4q0 4 -1 6.5t-1 4.5 q-14 -21 -41 -21q-6 0 -19 4q-4 4 -8 7q-14 8 -14 29zM1819 -248q0 -14 16 -14h10q12 6 17 10q4 8 4 16v17q-6 -6 -15 -6l-16 -4q-16 0 -16 -19zM1823 -518q0 27 16 51q12 12 23 14q8 6 30.5 6.5t49.5 -18.5q4 -4 6 -10t6 -13t4 -28q0 -42 -22.5 -56t-47.5 -14q-39 0 -59 35 q-6 14 -6 33zM1860 -517q0 -40 30 -40q31 0 31 31t-6 40t-25 9q-30 0 -30 -40zM1894 1083l33 45l17 27l30 41l2 2q0 6 4 7t5 -1q0 -6 -12.5 -24.5t-16.5 -20.5l-39 -49l-12 -14q-2 -4 -11 -13zM1917 -152h16v35h37v-35h23v-24h-23v-72l2 -10l10 -2l7 2h4v-27h-23 q-16 0 -22 4q-8 0 -15 23v82h-16v24zM1982 -451h33v-20q14 25 39.5 25t36.5 -23q11 21 32 22t29 -8q13 -6 15 -16q6 -6 6 -21v-92h-35v80q0 27 -21.5 27t-21.5 -27v-80h-35v80q0 10 -2 12q0 15 -18 15q-23 0 -23 -25v-82h-35v133z" />
<glyph unicode="*" horiz-adv-x="2287" d="M135 -451h37l21 -96l18 96h37l18 -96l23 96h35l-37 -127v-6h-37l-21 97l-20 -97h-37l-37 129v4zM205 379v579l315 68l-12 43l47 14l-10 47l49 11l-6 51l47 4v47h43l4 43l47 -6l8 47l51 -8l13 47l45 -12l18 43l47 -19l25 45l43 -22l25 41l43 -29l30 39l39 -31l33 33 l31 -29l30 27l31 -35l41 27l27 -43l45 24l22 -41l43 19l21 -47l49 14l14 -45l45 10l11 -49l51 4l2 -30l473 102v-580l-217 -47l4 -4l-27 -31l27 -32l-37 -31l27 -41l-43 -27l26 -43l-43 -24l19 -43l-47 -21l16 -49l-45 -14l8 -45l-49 -11l4 -51l-47 -4v-47h-41l-6 -43l-45 4 l-10 -45l-50 8l-14 -47l-45 15l-16 -48l-50 21l-22 -45l-43 22l-27 -41l-43 27l-28 -37l-37 31l-35 -33l-31 29l-33 -29l-28 37l-41 -27l-29 43l-43 -24l-22 41l-45 -19l-21 47l-47 -14l-14 45l-47 -10l-11 49l-49 -4l-6 47h-47v43l-41 4l4 47l-47 8l10 50l-49 14l14 45 l-32 12zM330 -451h35l22 -96l19 96h34l21 -96l20 96h37l-37 -127l-2 -6h-35l-22 97l-21 -97h-36l-35 129v4zM334 -212q0 27 4 47.5t13 30.5q29 34 71 34h6q17 0 25 -4q26 -15 33 -25q14 -20 14 -31h-39q0 12 -17 23q-10 6 -18 6t-12 -2h-8l-17 -12q-16 -16 -16 -43t4 -41 t13 -19q11 -5 26 -10h6q14 0 20 6q10 0 17.5 13.5t7.5 19.5h-43v33h76v-99h-25l-4 23q-11 -19 -22 -21t-15 -6l-22 -2q-18 0 -32 7.5t-22 19.5q-24 24 -24 52zM334 543q0 -2 2 -4h10l10 6l13 12l8 12l12 13q2 4 10 12l74 102q6 10 12.5 17.5t10.5 17.5l24 37q6 10 12.5 18.5 t10.5 18.5q6 10 11 18q18 29 3 29q-7 0 -20 -8l-21 -23l-18 -24q-10 -10 -17 -23l-18 -22l-66 -95l-30 -49l-31 -55l-2 -6v-4zM383 778q-4 -24 12 -35l21 -6q35 0 35 8q0 2 -2 3h-7q-4 0 -4 -3q-37 -4 -43 8.5t-6 18.5q0 8 10 29l21 22q9 9 20.5 16t17.5 11q14 9 26 13.5 l20 7.5t15 5.5t18 6.5l32 6q20 4 31 4q10 0 20.5 -3t15.5 -4q7 -1 14 -13.5t7 -22.5t-4 -27l-12 -22q-13 -25 -23 -33t-15 -14t-12 -11.5t-13 -11.5l-27 -16l-29 -13l-16 -6q-6 0 -14 -4h-7q-10 0 -10 -4q-4 0 -4 -3t2 -3h6q4 0 6 2h7l30 10l62 27l30 18l27 19l25 22l20 23 q8 12 13 24q15 37 -3 62q-21 16 -35 17t-27 1t-32 -3q-65 -11 -90 -22.5t-37 -17.5q-44 -22 -56.5 -34.5t-25.5 -28.5zM522 -215q0 21 6 35t18 21q14 9 40.5 9t36.5 -8t16 -22q8 -19 8 -41v-8h-92q0 -12 8 -21.5t19.5 -9.5t19.5 4q8 8 8 10h37q-17 -43 -59 -43q-66 0 -66 74 zM522 -451h37l21 -96l18 96h37l18 -96l21 96h37l-37 -127l-2 -6h-35l-21 97l-22 -97h-35l-37 129v4zM559 -205h53q-8 23 -14 26t-12 3q-23 0 -27 -29zM641 557h2q23 0 23 -18v-56q0 -34 53 -34q51 0 51 38v58l10 10h2l2 2h9v4h-56v-4h13q18 -6 18 -29v-39q0 -16 -10 -26 l-15 -10h-18q-37 0 -37 30v56q0 12 4 15t17 3h8v4h-76v-4zM657 -152h19v35h35v-35h20v-24h-20v-72q0 -8 2 -10l12 -2l4 2h2v-27h-20q-16 0 -23 4q-12 0 -12 23v82h-19v24zM657 678q8 -23 30 -22q39 2 77 26q18 8 37 25l28 24l17 19q0 2 4 6q0 4 4 4l4 8l19 18l18 25 q13 13 20 25q15 -8 15 -19q0 -2 -8 -10l-19 -21l-16 -22l-15 -23l-6 -20q-2 -4 -2 -10v-9q7 -10 13 -10t22 4l19 13q27 20 33.5 28t13 14.5t8.5 10.5l10 12l4 6q10 10 10 13l15 18l24 35l6 -33l5 -8q-20 -8 -29 -14l-23 -19q-18 -18 -18 -41q4 -12 27 -11q37 2 63 28 q10 6 18 20l11 20q6 12 6 23v18q0 23 -19 45q0 7 -8 15v6q2 2 2 4h-10l-4 -4q-6 -2 -14 -10l-7 -15l-2 -2l-49 -67l-6 -10l-2 -3v-2q-1 0 -16 -20l-19 -23l-24 -22q-12 -12 -29 -12h-2l2 2l8 12l17 22q2 1 18 27l10 19q8 21 7 27.5t-1 12.5l-4 7q0 4 -2 6v26q14 22 6 27.5 t-22 0.5q-35 -12 -35 -38q0 -10 10 -20l-6 -9l-57 -69q-2 0 -6 -4v-2l-2 -2q0 -2 -2 -2l-13 -17l-15 -15q-20 -20 -40 -31t-26.5 -12t-17.5 -5t-17 -2q-11 0 -11 12l8 20l13 21q8 -4 17 -4q26 0 42 9t35 24l18 18q9 9 21 35q0 17 -14 26q-25 8 -43 -4q-38 -9 -68.5 -35 t-42.5 -49q-16 -16 -23 -45v-20zM711 -547h37v-37h-37v37zM723 737l18 25l21 24q10 14 13 15.5t5 5.5l13 10l14 6q10 2 16 0q3 -7 -3.5 -16.5t-10.5 -16t-5 -8.5t-5 -4q-4 -8 -24 -26.5t-32 -18.5t-20 4zM780 -451h33v-20q12 25 37.5 25t38.5 -23q8 21 30 21q29 1 46 -23 q4 -4 4 -21v-92h-33v80q0 27 -22 27t-21 -27v-80h-37v92q0 15 -21.5 15t-21.5 -25v-82h-33v133zM807 532q0 -10 12 -22l15 -6q2 -2 8 -3l24 -7q12 -4 17 -5q6 0 12 -6t6 -12.5t-14 -17.5h-13q-12 0 -18 2l-20 8l-13 12q-10 14 -10 25h-4v-51h4q0 12 14 12q2 0 2 -1t5 -1 l8 -2q21 -8 29.5 -8t16.5 2q23 5 23 10.5t4 9.5v23l-6 8q-6 4 -14 8l-21 8h-12l-2 2l-16 4q-4 2 -6 2q-4 0 -11 6q-4 4 -4 9.5t1 5.5t5 8l9 4l12 2q8 0 16 -4q15 0 29 -14q4 -4 5 -9.5t5 -11.5h4v37h-4q-2 -8 -8 -8l-47 12q-10 0 -23 -4l-14 -10q-6 -10 -6 -17zM809 -152h18 v11q0 37 39 37h19v-27h-11q-12 0 -12 -6v-15h23v-24h-23v-109h-35v109h-18v24zM905 -152h35v-81q0 -25 23 -25q12 0 24 12l4 17v77h33v-133h-33v19q-14 -23 -37 -23q-47 0 -49 49v88zM928 451h119v45q-4 -4 -5 -8q0 -5 -10 -17q-15 -18 -39 -18h-18v49h2q16 0 27 -15 q4 -16 4 -18h2v72h-2v-11q-14 -24 -27 -24h-6v51h20q18 0 25 -2l10 -8l6 -12l6 -17h5v43h-119v-4h4q18 0 18 -18v-66q0 -20 -18 -20h-4v-2zM987 733v10l4 13q17 22 31 30l27 13l2 -13q-2 -4 -2 -10l-2 -12q-7 -14 -15 -23q-16 -12 -28 -12q-6 -7 -17 4zM991 -546q0 31 39 40 l33 4q10 4 10 10q0 16 -20 17l-17 -2q-6 -12 -6 -17h-33q0 14 7 27q15 15 49 21q36 0 53 -23q2 -6 2 -16v-72q0 -10 2 -14q0 -6 6 -7v-6h-37q0 2 -2 4v2q-2 4 -2 11q-19 -19 -37 -19t-25 2t-14 15q-8 6 -8 23zM1026 -547q0 -14 18 -14h7l6 2l12 8q4 4 4 14v19q-6 -6 -12 -6 q-35 -4 -35 -23zM1057 -104h35v-181h-35v181zM1118 -104h33v-181h-33v181zM1120 506q0 -37 29 -47q6 -2 17 -6t32 -4t37 19t16 34q0 21 -16 43q-10 10 -23 12q-12 6 -30.5 6t-28.5 -6q-13 -8 -25 -22q-8 -14 -8 -29zM1126 -451h37l21 -96l18 96h35l20 -96l23 96h35l-37 -127 v-6h-37l-20 97l-21 -97h-37l-37 129v4zM1133 772q0 -10 16 -18q13 0 25 1t32 9l31 16l49 43l17 23l12 20l6 21q2 12 0 18q0 19 -35 23q-21 0 -51 -15l-29 -18q-8 -4 -14 -10t-12 -11l-21 -22l-14 -23q-20 -32 -12 -57zM1157 467q-21 57 6 84q0 2 9.5 6t15.5 4l8 -2l8 -4 l10 -10q2 -4 4.5 -8.5t4.5 -10.5l2 -20q0 -12 -5 -26q-9 -27 -27.5 -27t-21.5 4q-8 0 -14 10zM1159 773q0 14 12 31q24 34 39 52l19 25q6 6 20 22.5t36 16.5q7 0 7 -8q0 -5 -10 -27q-19 -40 -39 -60l-18 -22l-23 -23q-18 -18 -37 -18q-6 6 -6 11zM1241 -152h19v11 q0 37 38 37h17v-27h-8q-10 0 -13 -6v-15h25v-24h-25v-109h-34v109h-19v24zM1268 451h57v2l-20 4q-9 13 -9 24v66l95 -96h4v77q0 29 24 29v4h-55v-4h10q0 -2 4 -2q12 -12 13 -27v-47l-78 80h-43v-4h2q20 0 20 -16v-64q0 -24 -24 -24v-2zM1290 776l6 -2q8 0 21 8l8 11l6 6 q0 2 4 6l64 74l59 57q4 2 12 10l13 8l14 7q2 0 2 -3h-2l-6 -6q-2 -6 -8 -8l-6 -8l-15 -16q-17 -17 -30 -43l-17 -25q-16 -24 -8 -41q4 -8 13 -8t16.5 2t13.5 6t16 9t21 16l24 22l2 2q-2 -2 -2 -8q0 -33 39 -23q20 8 29 15l25 18q12 12 16 17l16 14q-2 -2 -2 -6l-2 -6v-9 q-4 -6 0 -10q4 -14 8 -15t11 -1q5 0 43 20l37 31l20 21q-10 -25 -10 -37v-7q6 -6 10 -6t10 3t9 5l20 13l12 12q13 7 21 17t14 16l21 24q2 2 2 5q-2 2 -6 2q-5 0 -11 -11l-26 -30q-7 -8 -15 -15l-16 -14l-8 -6l-11 -4l-2 -2q-2 0 -4 2h2l9 16q4 8 13 20.5t13 20.5l74 109 q12 12 16 20l62 68q10 12 19 24.5t20 24.5l12 20v11q-2 2 -8 2t-12.5 -2t-9.5 -4.5t-9 -5.5q-20 -10 -45 -35l-21 -23q-8 -8 -16 -20.5t-19 -26.5t-18.5 -26.5t-15.5 -24.5l-53 -90l-9 -19q-2 0 -2 -2l-16 -16q-5 -8 -23 -23l-32 -29l-9 -6l-4 -2l-6 -4h-10l12 23q0 2 1 2 t1 2l2 2q4 8 9.5 15t10.5 16q12 20 21 32l17 25l8 14q4 4 8 13q2 2 3 4t2 2t5 5q7 9 -6 9l-12 -4l-12 -6l-21 -15l-16 -16q0 8 -2 12q0 4 -8 9q-21 3 -44.5 -7t-32.5 -16q-12 -8 -32.5 -25.5t-36.5 -40t-20 -33t-4 -11.5t-3 -1q-53 -53 -71 -53h-4q-1 1 14 25l39 49 q6 8 12 15t10 18l11 20q4 12 2 19q0 12 -8 12q-13 0 -41 -16q-25 -25 -37 -31l-25 -25q-6 -6 -12 -11l-35 -38l64 90q0 2 1 2q5 0 5 15l-6 6l-9 2l-10 -2l-12 -6l-6 -7q-4 -2 -4 -4t-9 -12l-90 -156q-2 -2 -2 -8zM1329 -224q0 54 39 70q8 4 29 4q33 0 49 -16q18 -22 18 -47 q0 -45 -30 -66q-16 -10 -38 -10t-38 10q-12 10 -20.5 25.5t-8.5 29.5zM1331 -451h35v-20q14 25 41 25q45 -3 45 -46v-92h-35v80q0 16 -3 21.5t-19 5.5q-27 0 -27 -31v-76h-37v133zM1364 -218q0 -40 33 -40q31 0 32 40t-32 40t-33 -40zM1425 451h125v49h-2q-4 -4 -4 -8 l-6 -17q-2 -2 -8 -9q-11 -13 -29 -13h-28v86q0 18 20 18h8v4h-76v-4h7q18 0 18 -18v-66q0 -20 -18 -20h-7v-2zM1477 -541h34q0 -18 26 -18t26 10t-15 12l-30 9q-20 7 -28.5 13.5t-8.5 22.5q0 43 53 46q45 0 55 -25l4 -10v-11h-34q0 17 -21.5 17t-21.5 -12q0 -6 12 -9l31 -8 q38 -6 38 -37q0 -45 -57 -45h-12q-13 0 -29 10q-22 13 -22 35zM1489 -152h33v-18q14 20 36.5 20t28.5 -4l17 -14q6 -12 6 -25v-92h-35v80q0 8 -4 21q-6 6 -21 6q-24 0 -24 -31v-76h-37v133zM1542 844l2 4q0 2 10 17q15 22 17 26t10 12l59 76l9 8q17 10 30 10l7 -4l2 -8 q0 -10 -7 -16l-18 -25l-16 -26l-19 -19l-18 -20l-27 -23q-12 -6 -16 -10q-10 -10 -21 -6h-2q-2 2 -2 4zM1544 557h2q20 0 27 -14l35 -45v-25q0 -20 -21 -20h-6v-2h78v2h-8q-21 0 -21 20v27l35 47q8 4 10 6q4 4 17 4v4h-56v-4h6q17 0 17 -10q0 -4 -6 -12l-23 -31l-28 37 q-4 8 -5 8v2q0 6 9 6h10v4h-72v-4zM1624 -547h37v-37h-37v37zM1626 -152h21v35h32v-35h23v-24h-23v-72l2 -10l13 -2l4 2h4v-27h-23q-16 0 -20 4q-10 0 -12 9v96h-21v24zM1686 -520q0 74 59 74q18 0 31 -7q14 -4 20 -18q10 -10 10 -27h-37q0 21 -20 21q-27 0 -29 -37 q0 -33 7.5 -38t19.5 -5q22 0 22 22h37q0 -27 -20 -39t-44 -12q-36 0 -54 35q-2 8 -2 31zM1784 -249q0 21 10 30q12 8 29 12l30 4q12 2 12.5 14t-20.5 12.5t-24 -20.5h-33q4 34 27 43q8 4 14 4h16q41 0 48 -16t8 -20v-86q0 -6 8 -7v-6h-39q-2 0 -2 2v4q0 4 -1 6.5t-1 4.5 q-14 -21 -41 -21q-6 0 -19 4q-4 4 -8 7q-14 8 -14 29zM1819 -248q0 -14 16 -14h10q12 6 17 10q4 8 4 16v17q-6 -6 -15 -6l-16 -4q-16 0 -16 -19zM1823 -518q0 27 16 51q12 12 23 14q8 6 30.5 6.5t49.5 -18.5q4 -4 6 -10t6 -13t4 -28q0 -42 -22.5 -56t-47.5 -14q-39 0 -59 35 q-6 14 -6 33zM1860 -517q0 -40 30 -40q31 0 31 31t-6 40t-25 9q-30 0 -30 -40zM1894 1083l33 45l17 27l30 41l2 2q0 6 4 7t5 -1q0 -6 -12.5 -24.5t-16.5 -20.5l-39 -49l-12 -14q-2 -4 -11 -13zM1917 -152h16v35h37v-35h23v-24h-23v-72l2 -10l10 -2l7 2h4v-27h-23 q-16 0 -22 4q-8 0 -15 23v82h-16v24zM1982 -451h33v-20q14 25 39.5 25t36.5 -23q11 21 32 22t29 -8q13 -6 15 -16q6 -6 6 -21v-92h-35v80q0 27 -21.5 27t-21.5 -27v-80h-35v80q0 10 -2 12q0 15 -18 15q-23 0 -23 -25v-82h-35v133z" />
<glyph unicode="+" horiz-adv-x="2340" d="M135 -451h37l21 -96l18 96h37l18 -96l23 96h35l-37 -127v-6h-37l-21 97l-20 -97h-37l-37 129v4zM205 379v579l315 68l-12 43l47 14l-10 47l49 11l-6 51l47 4v47h43l4 43l47 -6l8 47l51 -8l13 47l45 -12l18 43l47 -19l25 45l43 -22l25 41l43 -29l30 39l39 -31l33 33 l31 -29l30 27l31 -35l41 27l27 -43l45 24l22 -41l43 19l21 -47l49 14l14 -45l45 10l11 -49l51 4l2 -30l473 102v-580l-217 -47l4 -4l-27 -31l27 -32l-37 -31l27 -41l-43 -27l26 -43l-43 -24l19 -43l-47 -21l16 -49l-45 -14l8 -45l-49 -11l4 -51l-47 -4v-47h-41l-6 -43l-45 4 l-10 -45l-50 8l-14 -47l-45 15l-16 -48l-50 21l-22 -45l-43 22l-27 -41l-43 27l-28 -37l-37 31l-35 -33l-31 29l-33 -29l-28 37l-41 -27l-29 43l-43 -24l-22 41l-45 -19l-21 47l-47 -14l-14 45l-47 -10l-11 49l-49 -4l-6 47h-47v43l-41 4l4 47l-47 8l10 50l-49 14l14 45 l-32 12zM330 -451h35l22 -96l19 96h34l21 -96l20 96h37l-37 -127l-2 -6h-35l-22 97l-21 -97h-36l-35 129v4zM334 -212q0 27 4 47.5t13 30.5q29 34 71 34h6q17 0 25 -4q26 -15 33 -25q14 -20 14 -31h-39q0 12 -17 23q-10 6 -18 6t-12 -2h-8l-17 -12q-16 -16 -16 -43t4 -41 t13 -19q11 -5 26 -10h6q14 0 20 6q10 0 17.5 13.5t7.5 19.5h-43v33h76v-99h-25l-4 23q-11 -19 -22 -21t-15 -6l-22 -2q-18 0 -32 7.5t-22 19.5q-24 24 -24 52zM334 543q0 -2 2 -4h10l10 6l13 12l8 12l12 13q2 4 10 12l74 102q6 10 12.5 17.5t10.5 17.5l24 37q6 10 12.5 18.5 t10.5 18.5q6 10 11 18q18 29 3 29q-7 0 -20 -8l-21 -23l-18 -24q-10 -10 -17 -23l-18 -22l-66 -95l-30 -49l-31 -55l-2 -6v-4zM383 778q-4 -24 12 -35l21 -6q35 0 35 8q0 2 -2 3h-7q-4 0 -4 -3q-37 -4 -43 8.5t-6 18.5q0 8 10 29l21 22q9 9 20.5 16t17.5 11q14 9 26 13.5 l20 7.5t15 5.5t18 6.5l32 6q20 4 31 4q10 0 20.5 -3t15.5 -4q7 -1 14 -13.5t7 -22.5t-4 -27l-12 -22q-13 -25 -23 -33t-15 -14t-12 -11.5t-13 -11.5l-27 -16l-29 -13l-16 -6q-6 0 -14 -4h-7q-10 0 -10 -4q-4 0 -4 -3t2 -3h6q4 0 6 2h7l30 10l62 27l30 18l27 19l25 22l20 23 q8 12 13 24q15 37 -3 62q-21 16 -35 17t-27 1t-32 -3q-65 -11 -90 -22.5t-37 -17.5q-44 -22 -56.5 -34.5t-25.5 -28.5zM522 -215q0 21 6 35t18 21q14 9 40.5 9t36.5 -8t16 -22q8 -19 8 -41v-8h-92q0 -12 8 -21.5t19.5 -9.5t19.5 4q8 8 8 10h37q-17 -43 -59 -43q-66 0 -66 74 zM522 -451h37l21 -96l18 96h37l18 -96l21 96h37l-37 -127l-2 -6h-35l-21 97l-22 -97h-35l-37 129v4zM559 -205h53q-8 23 -14 26t-12 3q-23 0 -27 -29zM641 557h2q23 0 23 -18v-56q0 -34 53 -34q51 0 51 38v58l10 10h2l2 2h9v4h-56v-4h13q18 -6 18 -29v-39q0 -16 -10 -26 l-15 -10h-18q-37 0 -37 30v56q0 12 4 15t17 3h8v4h-76v-4zM657 -152h19v35h35v-35h20v-24h-20v-72q0 -8 2 -10l12 -2l4 2h2v-27h-20q-16 0 -23 4q-12 0 -12 23v82h-19v24zM657 678q8 -23 30 -22q39 2 77 26q18 8 37 25l28 24l17 19q0 2 4 6q0 4 4 4l4 8l19 18l18 25 q13 13 20 25q15 -8 15 -19q0 -2 -8 -10l-19 -21l-16 -22l-15 -23l-6 -20q-2 -4 -2 -10v-9q7 -10 13 -10t22 4l19 13q27 20 33.5 28t13 14.5t8.5 10.5l10 12l4 6q10 10 10 13l15 18l24 35l6 -33l5 -8q-20 -8 -29 -14l-23 -19q-18 -18 -18 -41q4 -12 27 -11q37 2 63 28 q10 6 18 20l11 20q6 12 6 23v18q0 23 -19 45q0 7 -8 15v6q2 2 2 4h-10l-4 -4q-6 -2 -14 -10l-7 -15l-2 -2l-49 -67l-6 -10l-2 -3v-2q-1 0 -16 -20l-19 -23l-24 -22q-12 -12 -29 -12h-2l2 2l8 12l17 22q2 1 18 27l10 19q8 21 7 27.5t-1 12.5l-4 7q0 4 -2 6v26q14 22 6 27.5 t-22 0.5q-35 -12 -35 -38q0 -10 10 -20l-6 -9l-57 -69q-2 0 -6 -4v-2l-2 -2q0 -2 -2 -2l-13 -17l-15 -15q-20 -20 -40 -31t-26.5 -12t-17.5 -5t-17 -2q-11 0 -11 12l8 20l13 21q8 -4 17 -4q26 0 42 9t35 24l18 18q9 9 21 35q0 17 -14 26q-25 8 -43 -4q-38 -9 -68.5 -35 t-42.5 -49q-16 -16 -23 -45v-20zM711 -547h37v-37h-37v37zM723 737l18 25l21 24q10 14 13 15.5t5 5.5l13 10l14 6q10 2 16 0q3 -7 -3.5 -16.5t-10.5 -16t-5 -8.5t-5 -4q-4 -8 -24 -26.5t-32 -18.5t-20 4zM780 -451h33v-20q12 25 37.5 25t38.5 -23q8 21 30 21q29 1 46 -23 q4 -4 4 -21v-92h-33v80q0 27 -22 27t-21 -27v-80h-37v92q0 15 -21.5 15t-21.5 -25v-82h-33v133zM807 532q0 -10 12 -22l15 -6q2 -2 8 -3l24 -7q12 -4 17 -5q6 0 12 -6t6 -12.5t-14 -17.5h-13q-12 0 -18 2l-20 8l-13 12q-10 14 -10 25h-4v-51h4q0 12 14 12q2 0 2 -1t5 -1 l8 -2q21 -8 29.5 -8t16.5 2q23 5 23 10.5t4 9.5v23l-6 8q-6 4 -14 8l-21 8h-12l-2 2l-16 4q-4 2 -6 2q-4 0 -11 6q-4 4 -4 9.5t1 5.5t5 8l9 4l12 2q8 0 16 -4q15 0 29 -14q4 -4 5 -9.5t5 -11.5h4v37h-4q-2 -8 -8 -8l-47 12q-10 0 -23 -4l-14 -10q-6 -10 -6 -17zM809 -152h18 v11q0 37 39 37h19v-27h-11q-12 0 -12 -6v-15h23v-24h-23v-109h-35v109h-18v24zM905 -152h35v-81q0 -25 23 -25q12 0 24 12l4 17v77h33v-133h-33v19q-14 -23 -37 -23q-47 0 -49 49v88zM928 451h119v45q-4 -4 -5 -8q0 -5 -10 -17q-15 -18 -39 -18h-18v49h2q16 0 27 -15 q4 -16 4 -18h2v72h-2v-11q-14 -24 -27 -24h-6v51h20q18 0 25 -2l10 -8l6 -12l6 -17h5v43h-119v-4h4q18 0 18 -18v-66q0 -20 -18 -20h-4v-2zM987 733v10l4 13q17 22 31 30l27 13l2 -13q-2 -4 -2 -10l-2 -12q-7 -14 -15 -23q-16 -12 -28 -12q-6 -7 -17 4zM991 -546q0 31 39 40 l33 4q10 4 10 10q0 16 -20 17l-17 -2q-6 -12 -6 -17h-33q0 14 7 27q15 15 49 21q36 0 53 -23q2 -6 2 -16v-72q0 -10 2 -14q0 -6 6 -7v-6h-37q0 2 -2 4v2q-2 4 -2 11q-19 -19 -37 -19t-25 2t-14 15q-8 6 -8 23zM1026 -547q0 -14 18 -14h7l6 2l12 8q4 4 4 14v19q-6 -6 -12 -6 q-35 -4 -35 -23zM1057 -104h35v-181h-35v181zM1118 -104h33v-181h-33v181zM1120 506q0 -37 29 -47q6 -2 17 -6t32 -4t37 19t16 34q0 21 -16 43q-10 10 -23 12q-12 6 -30.5 6t-28.5 -6q-13 -8 -25 -22q-8 -14 -8 -29zM1126 -451h37l21 -96l18 96h35l20 -96l23 96h35l-37 -127 v-6h-37l-20 97l-21 -97h-37l-37 129v4zM1133 772q0 -10 16 -18q13 0 25 1t32 9l31 16l49 43l17 23l12 20l6 21q2 12 0 18q0 19 -35 23q-21 0 -51 -15l-29 -18q-8 -4 -14 -10t-12 -11l-21 -22l-14 -23q-20 -32 -12 -57zM1157 467q-21 57 6 84q0 2 9.5 6t15.5 4l8 -2l8 -4 l10 -10q2 -4 4.5 -8.5t4.5 -10.5l2 -20q0 -12 -5 -26q-9 -27 -27.5 -27t-21.5 4q-8 0 -14 10zM1159 773q0 14 12 31q24 34 39 52l19 25q6 6 20 22.5t36 16.5q7 0 7 -8q0 -5 -10 -27q-19 -40 -39 -60l-18 -22l-23 -23q-18 -18 -37 -18q-6 6 -6 11zM1241 -152h19v11 q0 37 38 37h17v-27h-8q-10 0 -13 -6v-15h25v-24h-25v-109h-34v109h-19v24zM1268 451h57v2l-20 4q-9 13 -9 24v66l95 -96h4v77q0 29 24 29v4h-55v-4h10q0 -2 4 -2q12 -12 13 -27v-47l-78 80h-43v-4h2q20 0 20 -16v-64q0 -24 -24 -24v-2zM1290 776l6 -2q8 0 21 8l8 11l6 6 q0 2 4 6l64 74l59 57q4 2 12 10l13 8l14 7q2 0 2 -3h-2l-6 -6q-2 -6 -8 -8l-6 -8l-15 -16q-17 -17 -30 -43l-17 -25q-16 -24 -8 -41q4 -8 13 -8t16.5 2t13.5 6t16 9t21 16l24 22l2 2q-2 -2 -2 -8q0 -33 39 -23q20 8 29 15l25 18q12 12 16 17l16 14q-2 -2 -2 -6l-2 -6v-9 q-4 -6 0 -10q4 -14 8 -15t11 -1q5 0 43 20l37 31l20 21q-10 -25 -10 -37v-7q6 -6 10 -6t10 3t9 5l20 13l12 12q13 7 21 17t14 16l21 24q2 2 2 5q-2 2 -6 2q-5 0 -11 -11l-26 -30q-7 -8 -15 -15l-16 -14l-8 -6l-11 -4l-2 -2q-2 0 -4 2h2l9 16q4 8 13 20.5t13 20.5l74 109 q12 12 16 20l62 68q10 12 19 24.5t20 24.5l12 20v11q-2 2 -8 2t-12.5 -2t-9.5 -4.5t-9 -5.5q-20 -10 -45 -35l-21 -23q-8 -8 -16 -20.5t-19 -26.5t-18.5 -26.5t-15.5 -24.5l-53 -90l-9 -19q-2 0 -2 -2l-16 -16q-5 -8 -23 -23l-32 -29l-9 -6l-4 -2l-6 -4h-10l12 23q0 2 1 2 t1 2l2 2q4 8 9.5 15t10.5 16q12 20 21 32l17 25l8 14q4 4 8 13q2 2 3 4t2 2t5 5q7 9 -6 9l-12 -4l-12 -6l-21 -15l-16 -16q0 8 -2 12q0 4 -8 9q-21 3 -44.5 -7t-32.5 -16q-12 -8 -32.5 -25.5t-36.5 -40t-20 -33t-4 -11.5t-3 -1q-53 -53 -71 -53h-4q-1 1 14 25l39 49 q6 8 12 15t10 18l11 20q4 12 2 19q0 12 -8 12q-13 0 -41 -16q-25 -25 -37 -31l-25 -25q-6 -6 -12 -11l-35 -38l64 90q0 2 1 2q5 0 5 15l-6 6l-9 2l-10 -2l-12 -6l-6 -7q-4 -2 -4 -4t-9 -12l-90 -156q-2 -2 -2 -8zM1329 -224q0 54 39 70q8 4 29 4q33 0 49 -16q18 -22 18 -47 q0 -45 -30 -66q-16 -10 -38 -10t-38 10q-12 10 -20.5 25.5t-8.5 29.5zM1331 -451h35v-20q14 25 41 25q45 -3 45 -46v-92h-35v80q0 16 -3 21.5t-19 5.5q-27 0 -27 -31v-76h-37v133zM1364 -218q0 -40 33 -40q31 0 32 40t-32 40t-33 -40zM1425 451h125v49h-2q-4 -4 -4 -8 l-6 -17q-2 -2 -8 -9q-11 -13 -29 -13h-28v86q0 18 20 18h8v4h-76v-4h7q18 0 18 -18v-66q0 -20 -18 -20h-7v-2zM1477 -541h34q0 -18 26 -18t26 10t-15 12l-30 9q-20 7 -28.5 13.5t-8.5 22.5q0 43 53 46q45 0 55 -25l4 -10v-11h-34q0 17 -21.5 17t-21.5 -12q0 -6 12 -9l31 -8 q38 -6 38 -37q0 -45 -57 -45h-12q-13 0 -29 10q-22 13 -22 35zM1489 -152h33v-18q14 20 36.5 20t28.5 -4l17 -14q6 -12 6 -25v-92h-35v80q0 8 -4 21q-6 6 -21 6q-24 0 -24 -31v-76h-37v133zM1542 844l2 4q0 2 10 17q15 22 17 26t10 12l59 76l9 8q17 10 30 10l7 -4l2 -8 q0 -10 -7 -16l-18 -25l-16 -26l-19 -19l-18 -20l-27 -23q-12 -6 -16 -10q-10 -10 -21 -6h-2q-2 2 -2 4zM1544 557h2q20 0 27 -14l35 -45v-25q0 -20 -21 -20h-6v-2h78v2h-8q-21 0 -21 20v27l35 47q8 4 10 6q4 4 17 4v4h-56v-4h6q17 0 17 -10q0 -4 -6 -12l-23 -31l-28 37 q-4 8 -5 8v2q0 6 9 6h10v4h-72v-4zM1624 -547h37v-37h-37v37zM1626 -152h21v35h32v-35h23v-24h-23v-72l2 -10l13 -2l4 2h4v-27h-23q-16 0 -20 4q-10 0 -12 9v96h-21v24zM1686 -520q0 74 59 74q18 0 31 -7q14 -4 20 -18q10 -10 10 -27h-37q0 21 -20 21q-27 0 -29 -37 q0 -33 7.5 -38t19.5 -5q22 0 22 22h37q0 -27 -20 -39t-44 -12q-36 0 -54 35q-2 8 -2 31zM1784 -249q0 21 10 30q12 8 29 12l30 4q12 2 12.5 14t-20.5 12.5t-24 -20.5h-33q4 34 27 43q8 4 14 4h16q41 0 48 -16t8 -20v-86q0 -6 8 -7v-6h-39q-2 0 -2 2v4q0 4 -1 6.5t-1 4.5 q-14 -21 -41 -21q-6 0 -19 4q-4 4 -8 7q-14 8 -14 29zM1819 -248q0 -14 16 -14h10q12 6 17 10q4 8 4 16v17q-6 -6 -15 -6l-16 -4q-16 0 -16 -19zM1823 -518q0 27 16 51q12 12 23 14q8 6 30.5 6.5t49.5 -18.5q4 -4 6 -10t6 -13t4 -28q0 -42 -22.5 -56t-47.5 -14q-39 0 -59 35 q-6 14 -6 33zM1860 -517q0 -40 30 -40q31 0 31 31t-6 40t-25 9q-30 0 -30 -40zM1894 1083l33 45l17 27l30 41l2 2q0 6 4 7t5 -1q0 -6 -12.5 -24.5t-16.5 -20.5l-39 -49l-12 -14q-2 -4 -11 -13zM1917 -152h16v35h37v-35h23v-24h-23v-72l2 -10l10 -2l7 2h4v-27h-23 q-16 0 -22 4q-8 0 -15 23v82h-16v24zM1982 -451h33v-20q14 25 39.5 25t36.5 -23q11 21 32 22t29 -8q13 -6 15 -16q6 -6 6 -21v-92h-35v80q0 27 -21.5 27t-21.5 -27v-80h-35v80q0 10 -2 12q0 15 -18 15q-23 0 -23 -25v-82h-35v133z" />
<glyph unicode="," horiz-adv-x="243" d="M-39 -127q10 33 17.5 65.5t19.5 63.5q49 121 96 171t65.5 41t-2 -72.5t-73.5 -130.5q-62 -77 -123 -138z" />
<glyph unicode="-" horiz-adv-x="475" d="M31 270q59 167 209 100q96 -44 133 -45t55 31q-25 -45 -57.5 -57t-70.5 -9t-77 14t-75 16q-84 14 -117 -50z" />
<glyph unicode="." horiz-adv-x="253" d="M78 129l102 88l6 -88l-102 -90z" />
<glyph unicode="/" horiz-adv-x="376" d="M-272 -246l48 64q50 65 135 173.5t193 248.5q115 150 830 1063h27l-1219 -1565q0 26 -14 16z" />
<glyph unicode="0" horiz-adv-x="600" d="M45 250.5q6 62.5 41 124t87 108.5q119 107 253 86q70 -10 100.5 -65t28.5 -130t-31.5 -155t-83 -135t-125 -74.5t-148.5 23.5t-102.5 99t-19.5 118.5zM114 234q-24 -138 66 -187q47 -27 99.5 -2t97.5 79t75.5 124.5t39 137.5t-14.5 115t-73 56t-95 -20.5t-84 -76.5 t-69.5 -107.5t-41.5 -118.5z" />
<glyph unicode="1" horiz-adv-x="364" d="M-4 -12q51 0 88 53t70.5 130t67.5 162t81 150l-240 -182v21l291 223q64 51 127 51q-45 0 -78.5 -45t-63.5 -112.5t-60.5 -146.5t-70.5 -146q-93 -158 -212 -158z" />
<glyph unicode="2" horiz-adv-x="524" d="M-43 6q549 314 599 465q11 33 -15 55q-88 66 -202 22q-99 -39 -172 -128q-72 -87 -50 -131q-50 90 23 183q68 86 192 110q133 27 239 -43q169 -116 -247 -360q-113 -66 -301 -156q175 66 376 37q84 -13 161.5 -46t118 -62.5t61.5 -59.5q37 -54 28.5 -113t-66.5 -117 q-4 112 -92 210q-49 54 -138 99t-175 55.5t-155 5.5q-96 -7 -177 -34l-6 -4z" />
<glyph unicode="3" horiz-adv-x="675" d="M-300 -346q-13 72 23.5 152.5t101 142t149.5 90.5t169 -4q-49 8 -113.5 -29t-122 -96.5t-96 -132t-36.5 -135t56 -104.5t175 -42t212 48t153.5 121t91.5 158t17.5 157.5t-66 121t-160.5 48.5l-4 12q80 0 186 74q107 74 152 156q22 42 22 80t-38.5 68t-91 31.5t-101.5 -19 t-93 -56t-75 -74.5q-72 -91 -47 -133q-50 90 24 183q67 86 192 110q132 27 238 -43q72 -49 67 -107.5t-56 -113t-131 -97.5t-158 -61q106 -12 165.5 -67.5t73 -131.5t-16.5 -160t-102.5 -154.5t-187 -117.5t-266.5 -47t-222.5 50t-83.5 122z" />
<glyph unicode="4" horiz-adv-x="663" d="M-180 -129q376 391 516.5 553t203.5 240q145 179 158 237q0 -177 -284 -475q-134 -141 -278 -274.5t-212 -198.5q172 149 414 174q81 155 170 281l29 -7q-75 -146 -123 -270q214 0 245 -131q14 -57 -10 -131q-32 79 -136 135q-52 29 -132 43q-134 -345 -73 -469 q24 -47 89 -47q-109 0 -153.5 48t-46.5 123q-4 133 104 353q-171 3 -334 -94q-72 -43 -129 -98z" />
<glyph unicode="5" horiz-adv-x="782" d="M-212 -270.5q-13 71.5 23.5 152.5t101 142.5t149.5 90t169 -3.5q-49 8 -113.5 -29t-121.5 -96.5t-96 -132t-37 -135t55 -104.5t170.5 -42t205 43t149 108.5t95 144.5t32.5 150.5t-38.5 127t-117.5 73.5q-10 0 -33 3q-85 11 -248 -48q20 115 139 226q60 57 170 104 q-78 48 -141 121q-29 32 -49 63q86 -78 171 -118q153 -72 241 -40q65 24 73 82q47 -125 -15 -166q-75 -51 -253 41q-108 -28 -182 -151q-35 -53 -60 -117q95 21 170 21l4 -2q115 -6 180.5 -59.5t83 -129.5t-11 -162t-101.5 -159.5t-188.5 -121.5t-268.5 -48t-223.5 50 t-83.5 121.5z" />
<glyph unicode="6" horiz-adv-x="532" d="M27 210q-2 95 27.5 217t94 249t163 249t233.5 219q304 219 690 226q6 0 13 -4t16 -6q-313 0 -568 -166q-319 -209 -485 -600q-47 -111 -74 -209q74 128 181 175q43 18 92 18t73.5 -43t25.5 -106.5t-21.5 -139.5t-66.5 -139q-104 -150 -261 -150q-63 0 -97 57.5t-36 152.5 zM116 48q13 -23 36 -23q99 0 180 131q71 116 83 246q5 57 -9.5 95t-52.5 38t-74.5 -26t-68.5 -57q-37 -37 -83 -106q-51 -222 -11 -298z" />
<glyph unicode="7" horiz-adv-x="542" d="M-598 -514q294 0 596 356q88 103 175 216.5t176 229t186 218.5q-133 -82 -306 -78q-204 7 -204 135q0 57 43 129q0 -96 90 -154q47 -30 143 -40q163 -17 305 82q50 49 105 92h26q-33 -23 -80 -70l-30 -29q-96 -98 -175 -217.5t-157 -240.5t-161 -237t-186 -204 q-228 -196 -534 -196z" />
<glyph unicode="8" horiz-adv-x="587" d="M-194.5 -146q12.5 87 57.5 162.5t119.5 127t173.5 55.5h28q-112 48 -108 153q4 103 100 180q100 81 234 70q63 -6 100 -41t50 -83t2 -102t-44 -100q-76 -108 -211 -104q150 -61 183 -216q35 -156 -58 -280q-105 -141 -299 -145q-129 -4 -203.5 43t-105.5 120t-18.5 160z M-121 -278.5q8 -69.5 56.5 -119t150.5 -55.5t172 38t106.5 115t43 155t-15 155.5t-69 119.5t-115 46t-131 -47t-110.5 -112.5t-71.5 -146.5t-16.5 -148.5zM150 323q-6 -102 90 -128q98 -27 184 76q82 98 78 204q-2 49 -30 82t-80 33t-92 -25.5t-72.5 -64.5t-54 -86 t-23.5 -91z" />
<glyph unicode="9" horiz-adv-x="509" d="M-514 -584q306 0 546 224q194 181 304 458q-31 -41 -78 -68.5t-131 -27.5q-49 0 -75.5 42t-31 105.5t14 138t59.5 138.5q95 147 254 147q86 0 120 -86t16.5 -216t-87 -280.5t-190.5 -280.5t-295 -216t-399 -86q-8 0 -14.5 3t-12.5 5zM114 176q-2 -131 68 -131 q54 0 112 44q38 29 62 67q56 166 56 280.5t-53.5 114.5t-98.5 -38t-76.5 -93t-50 -122t-19.5 -122z" />
<glyph unicode=":" horiz-adv-x="364" d="M78 129l102 88l6 -88l-102 -90zM201 498l102 88l6 -88l-102 -90z" />
<glyph unicode=";" horiz-adv-x="391" d="M-39 -127q10 33 17.5 65.5t19.5 63.5q49 121 96 171t65.5 41t-2 -72.5t-73.5 -130.5q-62 -77 -123 -138zM201 498l102 88l6 -88l-102 -90z" />
<glyph unicode="&#x3c;" horiz-adv-x="440" d="M63 227q57 36 142.5 80.5t177.5 93.5l-233 -161l59 -138z" />
<glyph unicode="=" horiz-adv-x="507" d="M45 188q59 167 209 100q96 -43 133 -44.5t55 30.5q-25 -45 -57.5 -57t-70.5 -9t-76.5 14t-74.5 16q-85 14 -118 -50zM45 311q59 167 209 99q96 -42 133 -43.5t55 30.5q-25 -45 -57.5 -57t-70.5 -9t-76.5 14t-74.5 17q-85 13 -118 -51z" />
<glyph unicode="&#x3e;" horiz-adv-x="471" d="M59 102l234 162l-60 137l146 -125q-40 -23 -83 -47q-62 -34 -237 -127z" />
<glyph unicode="?" horiz-adv-x="944" d="M98 47l6 -90l103 90l-6 88zM258 1060q-9 142 90 242q118 120 326 105t238 -147q26 -111 -72 -275q-88 -148 -215 -248q-200 -158 -245.5 -213t-57 -104t11.5 -111q-53 88 -54 144.5t35.5 105.5t107.5 103.5t147.5 124t130 134t90 130t53 126t6.5 107.5q-22 102 -176 102 q-121 0 -208 -61t-130 -144t-36 -169t73 -135q-106 46 -115 183z" />
<glyph unicode="@" horiz-adv-x="985" d="M-57.5 -67.5q-14.5 73.5 13.5 169t87 193.5t146 193.5t191 169.5q230 163 454 163q203 0 240 -96q29 -76 -44.5 -210t-241.5 -304q-123 -117 -264 -211q-77 30 -36 181l12 40q-72 -72 -273 -217l-6 -4q-70 27 -47 143q32 165 154 309q138 163 295 156q93 -7 86 -71l18 16 q76 52 128 31q50 -19 34 -95q0 70 -33 68t-80 -46t-99 -118t-93 -149q-99 -179 -64 -221q88 59 277 221q10 12 51 59t84 109.5t77.5 131t32.5 127t-53 96.5t-160.5 38t-210 -44t-197.5 -116t-184 -163t-152 -187t-99.5 -187.5t-26.5 -163t63.5 -115.5t174.5 -44l-2 -16 q-117 0 -177.5 45t-75 118.5zM215 20q93 65 219 170l82 70q71 165 184 270q-28 55 -107 27q-63 -22 -146.5 -98.5t-163 -220t-68.5 -218.5z" />
<glyph unicode="A" horiz-adv-x="1994" d="M-39 24q-1 14 -1 28q0 134 104 289q106 157 236 220q46 22 87 22q11 1 23 -1q50 -8 73 -70h-8q-82 0 -166 -39q-88 -41 -157.5 -106.5t-115.5 -147.5q-46 -83 -50 -161v-12q0 -71 42 -134q46 -68 158 -105h4q34 208 233 455q188 235 384 333q90 45 167 45h10 q81 -3 126 -77q20 -32 19 -75q0 -46 -21 -105q-30 -101 -112 -204t-167.5 -179t-184.5 -130q-182 -99 -348 -99q-42 0 -83 6q-11 -74 -12 -131q0 -188 121 -203q15 -2 31 -2q152 0 381 193q185 156 432 448q98 117 175.5 218t124.5 161q-10 -1 -20 -1q-112 0 -170 95 q54 -66 145 -67q34 0 74 10q284 359 510 585q-153 51 -337 51q-132 0 -280 -26q-360 -64 -573 -240q-35 -29 -72.5 -43t-57 -11t-14.5 23.5t69.5 69.5t166 96.5t215 79t234.5 49t238 19.5h29q222 0 394 -57q154 147 307 245q196 125 355 125q-178 -34 -391 -274 q-191 -217 -346 -545h7q96 0 136 -110q-48 37 -128 37q-23 0 -50 -3q-131 -292 -174 -555q147 -23 236 -158q64 -97 64 -201q0 -37 -8 -75q-12 -70 -57 -102q-44 -31 -87 -31q-27 0 -54 12l-2 2q-118 56 -160 239q-22 96 -22 195q0 52 6 105q-139 -22 -187 -125 q-21 -43 -21 -89q-1 -48 23 -98q46 -98 150 -114q-35 -33 -67 -33q-9 1 -19 3q-41 12 -69.5 56t-38.5 110q-3 22 -3 44q1 44 13 84q18 62 71 112t150 66q32 251 155 533q-39 -10 -78.5 -23.5t-80.5 -25.5q-367 -474 -584 -682q-178 -170 -407 -303q-187 -108 -301 -108 q-133 0 -169 147q-10 41 -10 97q0 50 8 113q0 10 2 17h-8l-2 2q-201 65 -215 241zM217 -197q21 -3 44 -3q117 0 269 77q156 80 304 220q148 139 208 241q59 98 58 159q0 65 -58 85q-25 9 -56 9q-38 1 -85 -13q-86 -24 -193 -96q-163 -106 -316 -313q-151 -205 -175 -366z M1706 575q74 33 137 54q130 266 297 471q-160 -177 -434 -525zM1718 -280q18 -110 59.5 -170t93.5 -74q16 -4 31 -3q32 0 57 20q36 30 46 75q5 22 5 46.5t-5 50.5q-10 52 -35.5 106.5t-62.5 100.5q-80 99 -176 124q-20 -106 -20 -190q1 -46 7 -86z" />
<glyph unicode="B" horiz-adv-x="1937" d="M-32 -122q-8 33 -8 69q0 96 54 213q70 149 172 218q47 32 85 32q47 0 77 -52q-146 -20 -263 -164q-103 -127 -103 -252q0 -15 2 -30q6 -68 54 -119t148 -67h2q4 180 140 414q129 222 284 330q89 62 156 62q60 0 102 -51q30 -33 30 -91q0 -26 -6 -56q-20 -100 -73 -195.5 t-116.5 -169t-140.5 -131.5q-172 -131 -351 -135v-10q7 -254 135 -254q103 0 264 155q131 125 219 256q-10 40 -10 80q0 98 57 202q82 151 246 212q188 330 273 458q179 272 317 412q-63 8 -129 8q-207 0 -439 -79q-317 -107 -489 -299q-29 -33 -61.5 -51.5t-52 -18.5 t-16.5 20.5t44 63.5q192 196 541 303q252 77 462 77q79 0 152 -11q185 180 361 217q-127 -42 -281 -234l17 -6q131 -29 201 -88q68 -59 84 -130q5 -23 5 -46q0 -48 -21 -98q-32 -72 -100 -132q-70 -60 -170 -96q-91 -33 -196 -32h-24q125 -39 179 -122q53 -81 53 -181 q0 -103 -50 -213q-49 -108 -134 -199.5t-198 -154t-240 -72.5q-36 -4 -69 -4q-112 0 -191 49q-55 31 -86 84q-231 -251 -403 -332q-62 -29 -111 -29q-78 0 -122 74q-37 63 -42 207v14h-6q-178 29 -214 175zM213 -274q115 4 253 102q123 87 229.5 224.5t146.5 231.5 q32 75 31 123q1 11 -1 21q-10 52 -59 62q-12 3 -25 2q-42 0 -94 -24q-70 -32 -152.5 -106.5t-157.5 -188.5t-122 -233.5t-49 -213.5zM840 -137q104 163 243 407q-150 -59 -217 -180q-39 -71 -40 -143q1 -42 14 -84zM881 -217q76 -94 191 -94q57 0 125 23q176 60 338 251 q159 187 175 363q2 17 2 33q0 168 -174 227q-60 8 -117 24l-141 -241q159 0 210 -68q18 -23 18 -55q0 -6 -1 -13q-75 42 -201 59q-36 5 -69 5q-221 -361 -356 -514zM1427 623q49 -7 97 -6q175 0 327 89q86 50 139 116q52 68 56 136v9q0 63 -48 121q-52 62 -177 104l-23 6 q-92 -117 -184 -266.5t-187 -308.5z" />
<glyph unicode="C" horiz-adv-x="1359" d="M-36 32q9 98 47 202t91 200q106 195 220 311q-103 120 -103 253q0 55 17 111q26 87 91.5 160.5t156.5 124.5q147 81 303 81q105 0 214 -37q108 -40 160 -123q14 -23 6 -22t-18 16q-59 95 -163 113q-51 9 -101 10q-53 0 -103 -10q-100 -19 -194 -66t-173 -114.5 t-121 -147.5q-40 -76 -40 -147q0 -100 78 -191q205 218 490 348q298 137 583 137q26 0 71.5 -7t86.5 -26q133 -52 133 -141q0 -30 -16 -65q-57 -129 -273 -246q-307 -167 -624 -167q-56 0 -113 5q-129 12 -240 65q-51 -41 -114.5 -128t-117.5 -193q-54 -108 -90 -222 q-34 -108 -34 -198v-10q2 -94 53 -157.5t172 -69.5q31 -2 56 -2q35 0 59 4q-61 60 -61 159q0 56 19 124q48 164 200 339q149 173 296 231q62 24 113 24q88 0 143 -71q33 -42 32 -101q0 -80 -60 -192q-96 -178 -277 -338q-188 -167 -321 -202q33 -9 69 -9q109 0 248 79 q198 111 323 302q128 194 128 414q0 29 -2 58q-2 39 -2 43t18 -41q34 -81 34 -165q0 -140 -94 -289q-65 -105 -164.5 -192t-206 -142.5t-208.5 -75.5q-39 -8 -74 -7q-56 0 -100 19q-65 -16 -137 -16q-15 0 -31 1q-129 12 -210 69.5t-107 143.5q-20 64 -20 135q0 24 2 49z M414 -53q-29 -76 -29 -135q0 -79 53 -125q141 24 325 177q179 150 283 319q81 131 81 221q0 39 -15 71q-29 61 -92 61q-44 0 -106 -30q-142 -69 -288 -232q-153 -171 -212 -327zM442 674q118 -52 195 -58q34 -3 68 -2q159 0 309 58q156 60 275.5 132.5t182.5 121.5 q142 112 142 181q0 84 -199 99q-21 2 -42 2q-221 0 -497 -170q-243 -149 -434 -364z" />
<glyph unicode="D" horiz-adv-x="2074" d="M-34 16q16 74 48.5 143.5t78.5 128t93 90.5t85 32q47 0 77 -52q-146 -20 -263 -164q-103 -127 -102 -252q0 -15 1 -30q6 -68 54 -119t148 -67h2q4 183 138 414q129 222 284 330q89 62 156 62q61 0 104 -51q28 -34 28 -95q0 -26 -5 -56q-23 -107 -84 -209 q-92 -168 -245 -283q-172 -131 -353 -135v-10q7 -258 135 -258h4q104 3 270 165q133 129 224 267q-12 46 -12 93q0 97 54 194q86 152 251 202q337 605 553 832q-80 12 -163 12q-182 0 -382 -56q-299 -83 -461 -249q-62 -58 -111 -58h-5q-19 1 -16 20.5t46 60.5 q182 170 518 256q211 55 398 55q103 0 200 -17q184 189 373 232q-139 -47 -293 -248l18 -6q133 -41 203 -142q69 -100 85 -233q5 -43 5 -87q0 -96 -22 -200q-33 -154 -104.5 -301t-174 -275t-227.5 -211q-173 -115 -346 -115q-104 0 -209 42q-85 34 -135 107 q-228 -248 -415 -335q-65 -30 -116 -30q-79 0 -124 72q-39 63 -44 207v14h-8q-96 16 -147 63.5t-67 111.5q-8 32 -8 66.5t8 71.5zM211 -274q117 4 255 102q123 87 229.5 224.5t146.5 231.5q31 74 31 121q-1 13 -3 23q-10 52 -59 62q-12 3 -25 2q-42 0 -94 -24 q-70 -32 -152.5 -106.5t-157.5 -188.5t-121 -233.5t-50 -213.5zM854 -117q141 219 244 404q-160 -49 -222 -171q-35 -70 -35 -143q0 -45 13 -90zM903 -207q77 -96 210 -97q62 0 137 22q81 24 190.5 92.5t221.5 189.5t194.5 259t132 283.5t49.5 270.5t-54.5 219t-177.5 131 l-30 8q-106 -139 -204.5 -309t-160 -279.5t-123.5 -215.5q109 -23 140 -75q12 -20 6 -46q-76 51 -181 61q-209 -357 -350 -514z" />
<glyph unicode="E" horiz-adv-x="1513" d="M-26 -172q-14 35 -14 75q0 95 82 215q113 165 324 296q222 139 461 184q-20 4 -48.5 16t-67.5 43t-62.5 73t-23.5 94.5t34 115.5q-102 60 -102 139q0 36 21 75q58 108 247 203q181 91 355 99q15 1 30 1q164 0 209 -95q-96 24 -198 24q-128 0 -265 -38q-224 -61 -320 -180 q-40 -50 -40 -99v-9q4 -54 76 -97q79 147 292 233q188 75 379 75h28q213 -7 308 -106q31 -30 31 -65v-8q-4 -40 -52 -84q-110 -99 -403 -142q-114 -14 -213.5 -14t-183.5 14q-65 11 -106 31q-40 -79 -40 -136q0 -78 76 -115q41 -19 95 -32q273 81 453 81q20 0 39 -1 q77 -4 112 -25.5t31 -43.5t-43 -43t-111 -32q-65 -10 -139 -10q-123 0 -273 27q-268 -78 -558 -275q-134 -91 -236 -188q-102 -98 -132 -183q-11 -29 -10 -56q0 -49 38 -91q58 -62 239 -81q105 152 272 270q155 106 317 157q164 52 272 61q34 3 62 3q64 0 105 -14 q59 -20 67 -64q1 -6 1 -13q0 -39 -41 -87q-110 -130 -428 -244q-155 -56 -318 -77q-78 -11 -156 -21q-50 -7 -95 -6q-26 0 -50 2q-42 -66 -42 -114q1 -22 9 -40q28 -58 111 -78q44 -11 100 -10q50 0 109 8q125 18 255 75t250.5 152t198.5 230q21 -28 21 -59q-1 -26 -17 -56 q-34 -62 -113 -123t-190.5 -115t-228.5 -90q-118 -36 -226 -48q-37 -4 -70 -5q-64 0 -112 16q-111 36 -111 140q0 53 29 123q-246 26 -300 162zM319 -309q25 -2 52 -2q41 0 86 5q75 9 150 19q166 22 320.5 78.5t252.5 113t137 103.5q28 34 28 62q1 10 -3 20q-14 35 -74 50 q-39 10 -89 10q-118 0 -290 -56q-246 -77 -453 -268q-64 -59 -117 -135zM774 924q79 -41 254 -41q53 0 114 4q213 13 334 57q203 75 203 147q0 25 -24 52q-59 55 -223 55h-23q-179 -4 -357 -76q-197 -79 -278 -198zM981 594q119 -22 229 -22q56 0 110 6q141 16 153 43 q2 8 -30 19t-95 13h-24q-152 0 -343 -59z" />
<glyph unicode="F" horiz-adv-x="1617" d="M-34 596q16 94 79.5 171t174.5 123q98 41 233 41q18 0 36 -1q20 166 175 264q184 121 434 125q30 1 61 1q121 0 254 -18q168 -24 346 -55q169 164 322 197q-98 -33 -242 -211q362 -64 525 -74q74 -4 140 -4q228 0 365 53q82 31 144 84l20 2q-254 -226 -685 -226 q-115 0 -242 16q-171 22 -341 53q-66 -86 -132 -188.5t-138 -213.5q124 -18 230 -18q194 0 329 61q-154 -86 -306 -110q-107 -16 -213 -16q-45 0 -89 3q-117 -182 -235.5 -372.5t-237.5 -357.5t-234.5 -294t-229.5 -186q-95 -49 -160 -49q-13 0 -25 2q-72 12 -107 70.5 t-40 145.5q-1 23 -1 46q0 66 10 136q31 200 109 345q-125 35 -204 108t-109 163q-20 60 -21 121q0 31 5 63zM2 574q-7 -37 -8 -72q0 -52 16 -102q26 -83 99 -147.5t194 -84.5q79 143 204 252q122 107 218 119q-87 40 -141 108q-72 84 -90 182l-7 45q-36 4 -70 4 q-97 0 -173 -30q-102 -40 -163 -112t-79 -162zM220 -194q-17 -94 -16 -165q0 -102 34 -157q39 -62 100 -62t144 62q254 191 702 966q41 71 53 91q-43 -25 -92 -37q-35 -14 -64 -17q-25 -8 -53 -8h-55q-96 4 -119 15l12 -13v-4l11 -12q12 -24 12 -52q0 -32 -15 -71 q-29 -86 -108 -143q-77 -63 -213 -79q-40 -5 -79 -5q-76 0 -150 18q-66 -121 -104 -327zM334 162q63 -11 120 -11q108 0 195 39q49 21 82 60q75 90 91 146q7 23 6 40q0 24 -14 38q-17 17 -51 18q-11 0 -27 -2q-56 -8 -124 -46q-160 -90 -268 -264zM504 872q0 -21 4 -43 q12 -90 76.5 -168t165.5 -120q45 0 79 -27q19 -5 84 -9q24 -2 47 -2q129 0 224 58q61 33 100 94l10 19q-109 18 -214 48t-204 58q-271 78 -372 92zM510 930q202 -13 602 -115q107 -27 213 -49h2l47 -10q165 251 297 397q-156 29 -302 52.5t-243 24.5h-44q-154 0 -230 -12 q-86 -14 -166 -61q-146 -79 -176 -227z" />
<glyph unicode="G" horiz-adv-x="1452" d="M-38 22q16 176 140 402q111 204 220 311q-105 119 -105 253q0 54 17 111q26 87 91.5 160.5t156.5 124.5q146 80 302 80q62 0 125 -12q108 -19 172 -66t90 -100h-16q-29 53 -80 87t-123 46q-27 5 -59 5q-51 0 -113 -12q-100 -19 -194 -66.5t-173 -115t-121 -146.5 q-39 -75 -39 -146q0 -100 79 -193q206 218 490 349q295 137 581 137q74 0 164 -34t115 -89q13 -28 13 -57t-13 -61q-25 -62 -95.5 -127.5t-170 -122t-221.5 -99.5t-251 -61q-82 -11 -158 -11q-189 0 -335 70q-112 -90 -229 -315q-126 -241 -126 -419q0 -93 46 -157.5 t150 -75.5q28 -2 56 -2q72 0 136 20q89 27 168 79.5t148.5 126t127.5 154.5q96 132 196 327q-40 9 -194 22q-82 0 -142 -26q-53 -27 -63 -68q0 39 24 63t42 33l24 13l27 10h2l8 4l31 6l28 4q1 0 29 4h12l72 7l70 2h120l54 -2h49q161 0 211 67q-11 -129 -115 -158 q-30 -12 -70 -12q-15 0 -32 2l-107 12q-241 -509 -606 -678q-124 -58 -266 -58q-17 0 -35 1q-131 12 -209 72q-128 91 -128 273q0 25 2 52zM461 651q111 -49 183 -52q19 -1 38 -1q166 0 330 64q154 59 274.5 131.5t183.5 122.5q142 116 142 183q0 84 -199 99q-18 1 -36 1 q-226 0 -493 -176q-224 -148 -423 -372z" />
<glyph unicode="H" horiz-adv-x="1976" d="M-32 -124q-8 33 -8 69q0 96 54 213q68 144 172 217q47 33 85 33q47 0 77 -52q-74 -10 -142.5 -56t-119.5 -110q-50 -65 -78 -140q-23 -62 -23 -117q0 -13 1 -25q6 -66 53 -117t147 -67h4q4 183 138 414q126 217 284 329q74 53 142 61q8 1 16 0q58 0 100 -49 q30 -33 30 -90q0 -28 -7 -61q-28 -173 -187 -360q-135 -159 -306 -230q-89 -37 -187 -39v-10q7 -226 117 -248q14 -3 29 -3q100 0 238 128q245 230 626 932q41 75 65 116q-263 54 -412 54q-146 0 -182 -52q36 169 255 171h7q152 0 387 -82q168 275 274.5 398.5t187.5 190 t165 97.5q-96 25 -214 25q-137 0 -303 -34q-304 -64 -533 -212q-253 -162 -275 -355q-8 42 -8 82q0 161 135 285q209 191 656 246q136 17 255 17q97 0 183 -11q90 -11 139 -33q62 16 92 16h45q39 -5 51 -12q16 -6 18.5 -19.5t-9.5 -22.5t-29.5 -14t-34.5 -6l-33 3l-28 6 q-16 6 -19.5 8t-8.5 2l-17 6q-128 -81 -276 -282q-122 -166 -283 -431q27 -11 43 -20l26 -12l19 -11l18 -6q122 70 291 70q331 543 738 639q63 15 127 15q86 0 175 -27q-194 -8 -456 -193q-246 -174 -463 -448q62 -12 96 -37q31 -16 41 -54q1 -6 1 -12q0 -30 -26 -46 q-31 -19 -75 -31q-64 -19 -133 -19q-22 0 -44 2q-107 -168 -165 -330q143 -46 212 -185q38 -78 38 -156q0 -60 -23 -120q-31 -66 -74 -90q-39 -23 -76 -23q-35 0 -67 21v-2l-4 4q-104 68 -116 236q-2 22 -2 45q0 113 38 231q-139 -4 -204 -90q-37 -49 -37 -105q0 -31 11 -63 q30 -92 125 -121q-35 -24 -64 -24q-14 -1 -26 5q-39 16 -59 63q-17 39 -16 92v19q4 65 33.5 123t90 100t158.5 46q52 157 137 336q-71 14 -190 55q-35 -47 -35 -115q0 -36 10 -79q-12 -4 -32 15q-41 38 -41 93q0 12 2 25q6 41 45 80l-80 29v2q-8 0 -13 2 q-231 -394 -335.5 -542t-159.5 -211.5t-126 -136.5t-151 -138q-79 -64 -161 -108q-76 -41 -139 -41h-9q-66 3 -108.5 66.5t-47.5 213.5v12q-2 2 -8 2q-178 29 -214 175zM213 -276q170 0 377 206q59 60 135.5 159t116.5 193q32 75 31 123q1 11 -1 21q-10 52 -59 62 q-12 3 -25 2q-42 0 -94 -24q-70 -32 -152.5 -106.5t-157.5 -188.5t-122 -233.5t-49 -213.5zM1646 -339q34 -57 88 -71q19 -5 37 -6q31 0 58 16q41 24 57 64q14 35 15 76q-1 6 -1 13q-2 48 -21 99.5t-50 97.5q-71 105 -158 136q-60 -155 -61 -259q0 -106 36 -166zM1626 586 q79 -32 162 -56q16 35 35 66.5t37 62.5q-137 0 -234 -73zM1880 510q63 -12 110 -12q67 0 103 24q27 23 21 46.5t-35 45t-74 29.5l-25 6q-58 -76 -100 -139zM2050 1380l6 -4l49 -16q16 -4 32 -4q30 0 55 16q8 5 8 10q0 6 -9 13q-21 7 -43 7q-14 0 -28 -3q-10 -2 -20 -3 q-36 -4 -42 -10t-8 -6z" />
<glyph unicode="I" horiz-adv-x="1363" d="M-32 -136q-8 32 -8 68q0 94 54 208q65 140 167 211q43 30 84 30h5q43 -2 70 -49q-72 -8 -139.5 -53.5t-117.5 -107.5q-51 -62 -77 -135q-22 -60 -21 -114q0 -12 1 -24q6 -66 52 -116t144 -67h2q4 179 134 403q126 215 278 324q86 61 152 60q59 0 102 -49q28 -35 28 -92 q0 -64 -36 -155q-51 -129 -133 -227t-158 -155q-170 -127 -344 -131v-10q7 -235 125 -244q6 -1 12 -1q174 0 467 416q166 237 354 576q-114 94 -114 254v16q2 60 21 120q44 140 177 234q135 95 361 174q244 85 335 142t138 125q2 4 6 5q2 0 4 -1q4 -2 4 -5t-4 -7 q-25 -45 -76 -101l19 7l-25 -11q-61 -64 -162 -125q-160 -170 -409 -599q-70 -119 -142 -240q95 13 175 112q14 18 18 35q14 -28 14 -56q0 -11 -2 -22q-8 -39 -30.5 -66.5t-54.5 -41.5q-36 -16 -75 -16q-34 0 -69 12q-240 -408 -402 -592q-222 -251 -405 -343 q-68 -34 -121 -34q-74 0 -118 68q-40 63 -44 207v12h-8q-173 29 -208 171zM207 -285q108 0 247 100q120 86 225 219.5t143 224.5q30 72 30 119q0 12 -2 22q-10 50 -58 61q-12 2 -26 2q-40 -1 -90 -23q-68 -30 -149 -103t-153.5 -184.5t-118.5 -228.5t-48 -209zM1079 750 q-11 -52 -11 -97q0 -54 16 -97q30 -79 90 -114q117 205 241.5 397.5t261.5 331.5q-66 -29 -133 -55t-132 -56q-231 -108 -296 -216q-25 -39 -37 -94z" />
<glyph unicode="J" horiz-adv-x="1390" d="M-34 -144q-8 32 -8 66q0 92 54 206q67 144 165 210q47 31 83 31q45 0 74 -50q-72 -8 -138.5 -53t-115.5 -107.5t-77 -134.5q-22 -56 -22 -108q0 -14 1 -28q8 -64 54 -113t142 -66h2q4 174 134 399q126 218 272 319q87 60 152 60q59 0 100 -49q27 -31 27 -89q0 -26 -5 -56 q-37 -176 -184 -349q-213 -251 -473 -257v-11q7 -232 125 -241q7 -1 13 -1q133 0 313 206q203 231 423 642q49 91 74 134q-111 97 -115 246q-98 -16 -179 -48t-124 -102q49 179 214 234q50 16 104 24l4 20q8 44 54 114.5t125 126.5t170 98t187.5 75t184.5 70t161.5 83 t120.5 113q3 6 7 6q2 0 4 -2q2 0 2 -3q0 -8 -17 -33q-21 -33 -61 -74h8l-12 -6q-56 -60 -162 -123q-146 -153 -324 -447q127 18 172 93q-41 -111 -190 -156q35 -52 35 -121v-7q-2 -73 -35 -133.5t-93 -93.5q-35 -19 -76 -19q-28 0 -59 9q-248 -424 -421 -612 q-218 -237 -392 -318q-59 -28 -105 -28q-75 0 -118 72q-37 61 -41 200v13h-8q-171 29 -206 169zM203 -291q110 0 245 97q113 80 218.5 215t143.5 225q30 72 30 118q0 12 -2 22q-9 50 -56 60q-12 3 -25 3q-39 0 -89 -23q-68 -31 -148 -102.5t-152 -182.5q-161 -246 -165 -432 zM1057 664v-21q0 -72 25 -125q28 -61 77 -90q96 168 156 264q-63 -8 -129 -13t-129 -15zM1079 774q64 7 130 7h17q74 -1 146 -1q152 232 287 371q-66 -29 -132.5 -56.5t-130.5 -56.5q-148 -65 -237 -143q-62 -58 -80 -121zM1282 403q59 8 103.5 40t68.5 74q27 48 27 94 q0 44 -25 87q-43 -72 -86 -146.5t-88 -148.5zM2001 1364q6 0 10 2q-4 -2 -10 -2z" />
<glyph unicode="K" horiz-adv-x="1751" d="M-32 -152q-7 31 -7 65q0 90 51 203q63 136 163 206q44 30 79 30q44 0 74 -49q-70 -8 -135.5 -52t-113.5 -104.5t-75 -130.5q-22 -57 -21 -110q1 -14 1 -26q6 -64 51 -112.5t139 -64.5h4q4 176 132 393q125 212 268 312q84 60 148 60q57 0 97 -48q28 -32 27 -91 q0 -24 -4 -53q-22 -99 -71.5 -185.5t-109 -156t-131.5 -126.5q-159 -123 -335 -127q2 -2 2 -9q7 -239 131 -239h4q197 5 530 501q125 185 302.5 479t268.5 433q208 317 335 416q-102 -37 -209 -60.5t-213 -45.5q-257 -55 -414 -130q-49 -27 -87 -57.5t-75 -83.5 q-76 -109 -78 -190v-7q0 -76 45 -112q39 -32 105 -32q14 0 28 1q86 8 189 80q27 16 35 30v-7q0 -37 -21 -66q-43 -61 -101 -83q-39 -15 -79 -15q-19 0 -37 4q-58 10 -104.5 48.5t-63.5 101.5q-8 32 -8 64q0 142 156 298q182 182 658 258q248 40 374.5 84t202.5 102q4 4 8 4 q3 0 5 -2q7 -4 -7 -12q-85 -72 -176 -115q-121 -100 -273 -331q-108 -163 -291 -472q26 -2 53 -2q181 0 407 92q301 123 437 320q76 110 76 202q0 21 -4 41q-8 49 -57 84q-38 32 -89 32q-17 0 -34 -3q-39 -6 -62 -22q-70 -38 -83 -127q-1 -8 0 -16q0 -29 10 -57 q14 -36 53 -54q-23 -23 -49 -23q-10 0 -21 4q-14 6 -26 19q-10 14 -21 32q-5 21 -5 44q0 48 24 102q20 37 45 61q25 29 53 41q39 23 81 23q15 0 29 -2q58 -10 97 -41t49 -54q24 -54 24 -105q0 -25 -6 -50q-20 -129 -110 -237q-182 -218 -516 -358q-211 -88 -377 -102v-16 q0 -203 143 -477q93 -178 212 -299q59 -60 100 -83q117 -65 213 -71q126 0 188 99q29 55 29 83q0 62 -28 101q-24 33 -66 48q-29 11 -54 11q-10 0 -20 -2q-35 -2 -71 -25.5t-54 -68.5q-25 19 -25 48q0 9 2 18q14 36 49 58t77 26q11 1 21 1q29 0 52 -10q31 -7 62 -27 q75 -51 75 -125q0 -13 -2 -26q-6 -61 -35 -106.5t-52 -62.5q-43 -32 -81.5 -44t-69.5 -14q-16 -1 -31 -1q-35 0 -65 5q-140 15 -298 166q-140 134 -254 334q-111 194 -148 358q-369 -613 -711 -810q-80 -46 -145 -46q-147 0 -154 266v13h-8q-170 30 -202 167zM201 -297 q105 0 241 96q111 79 214 211q102 133 140 221q30 70 30 116q0 11 -2 21q-10 50 -56 59q-11 2 -23 2q-41 -1 -91 -23q-66 -30 -144 -100t-150 -177.5t-114.5 -221.5t-44.5 -204z" />
<glyph unicode="L" horiz-adv-x="1529" d="M-40 -38q-1 10 -1 20q0 125 103 277q105 153 224 214q52 27 89 27q58 0 82 -64q-160 -4 -313 -150q-66 -63 -110 -139.5t-49 -149.5q-1 -8 -1 -16q0 -63 38 -117q42 -60 148 -89h4q35 196 222 429q182 226 365 323q95 50 163 50q78 0 120 -65q18 -28 18 -67 q0 -41 -20 -95q-38 -104 -114 -200.5t-156 -169t-173 -128.5q-182 -108 -360 -108q-22 0 -44 2q-2 -4 -8 -49q-3 -26 -4 -55q1 -22 3 -46q4 -56 24 -90q35 -56 105 -56q9 0 19 1q210 21 485 339q224 259 644 962q87 145 155 237q-423 -135 -723 -135q-34 0 -67 2 q-236 13 -316 144q-31 50 -31 122q0 25 4 52q119 -243 549 -243q92 0 198 11q196 21 410 80q211 274 412 391q95 55 172 56q36 0 68 -13q26 -10 26 -37q0 -18 -11 -43q-29 -65 -106 -121q-182 -129 -421 -219q-137 -182 -255 -377.5t-243 -385t-266 -364.5t-324 -319 q111 52 248 62q93 7 190 7q46 0 94 -2q148 -5 296 -11q39 -2 77 -2q107 0 204 13q132 17 239.5 72.5t173.5 174.5q0 -363 -488 -366h-16q-192 0 -454 22q-233 20 -344 21q-20 0 -34 -1q-104 -4 -188 -32.5t-159.5 -60.5t-138.5 -57q-50 -20 -90 -20q-83 0 -124 83 q-23 46 -23 128q0 51 9 115q2 4 2 14h-8q-189 54 -200 212zM199 -227l30 -2q179 0 414 182q74 57 139 121q138 133 196 229q57 93 56 149q0 60 -53 76q-19 6 -41 5q-39 0 -91 -17q-81 -27 -183.5 -96.5t-203.5 -184.5t-173 -238.5t-90 -223.5zM1798 1067q96 36 235.5 115.5 t157.5 93.5q67 46 83 76q7 14 7 23q1 13 -11 17q-9 4 -24 4q-18 0 -46 -8q-50 -12 -116 -51q-162 -97 -286 -270z" />
<glyph unicode="M" horiz-adv-x="2172" d="M-34 16q16 74 48.5 143.5t78.5 128t93 90.5t85 32q47 0 77 -52q-146 -20 -263 -164q-103 -127 -102 -252q0 -15 1 -30q6 -68 54 -119t148 -67h2q4 183 138 414q129 222 284 330q89 62 156 62q61 0 104 -51q27 -34 27 -93q0 -25 -5 -55q-17 -99 -71.5 -194.5t-117 -169 t-139.5 -131.5q-172 -131 -353 -135v-10q7 -243 133 -252q4 0 7 -1q205 0 555 553q104 163 210.5 339t217 350t222.5 324q246 330 445 411q-152 0 -309.5 -58.5t-298 -158.5t-251 -233t-165.5 -281q-18 -45 -46 -75.5t-48.5 -36t-26.5 18.5q-1 4 -1 9q0 25 24 76 q88 197 228 344t305 243.5t340 140.5q154 39 295 39q19 0 38 -1l-49 -23q-208 -141 -398 -685q-161 -464 -204 -855q62 222 318 551q231 296 534 568q299 268 530 399q32 20 88 45l21 6q2 2 4 2t6 2l-43 -24q-34 -24 -129 -103q-231 -212 -481 -625q-222 -368 -351 -708 q130 -4 187 -104q32 -56 32 -120q0 -51 -20 -106q-20 -59 -68 -92q-52 -39 -97 -39q-14 0 -28 4v-2l-4 4q-95 32 -107 183q-2 25 -2 50q0 97 31 199q-102 -29 -153 -89q-50 -60 -60 -122q-2 -14 -3 -27q0 -45 25 -80q32 -46 99 -46q-40 -37 -72 -37q-3 0 -7 1q-34 5 -54 39 q-19 32 -19 82v5q1 53 27 109q60 135 220 180q63 210 212 493q137 258 324 506q-360 -360 -636 -722q-309 -406 -326 -601q2 -2 2 -6h-2v2q-81 51 -81 246q0 35 3 74q16 246 122 560q108 323 257 564q-100 -141 -203 -316.5t-207 -352.5t-209.5 -342t-182.5 -253 t-146.5 -157.5t-147.5 -132t-156 -103.5q-70 -37 -129 -37q-7 0 -14 1q-141 11 -150 280v14h-8q-96 16 -147 63.5t-67 111.5q-8 32 -8 66.5t8 71.5zM211 -274q117 4 255 102q123 87 229.5 224.5t144.5 231.5q31 75 31 122q1 12 -1 22q-10 52 -59 62q-12 3 -25 2 q-42 0 -94 -24q-70 -32 -152.5 -106.5t-157.5 -188.5t-121 -233.5t-50 -213.5zM1874 -256.5q0 -91.5 28.5 -136.5t73.5 -49q4 0 9 -1l81 33q44 36 54 102q3 19 3 39q1 45 -15 89q-22 62 -71 108t-110 52q-53 -145 -53 -236.5z" />
<glyph unicode="N" horiz-adv-x="1970" d="M-32 -122q-8 34 -8 70q0 97 56 212q74 153 172 218q48 32 86 32q47 0 76 -52q-146 -20 -263 -164q-102 -127 -102 -255q0 -14 1 -27q6 -68 53 -119t147 -67h4q4 183 138 414q129 222 284 330q89 62 156 62q61 0 104 -51q27 -34 27 -93q0 -25 -5 -55q-17 -99 -71.5 -194.5 t-117 -169t-139.5 -131.5q-172 -131 -353 -135v-10q7 -237 125 -250q11 -2 23 -1q220 0 551 532q100 163 203.5 339t211 352.5t217.5 328.5q249 340 459 423q-152 0 -309.5 -58.5t-298 -158.5t-251 -233t-165.5 -281q-18 -45 -46 -75.5t-49.5 -36t-26.5 18.5q-1 4 -1 8 q0 25 23 77q88 197 229 344t306 243.5t340 140.5q154 39 293 39q19 0 38 -1q-189 -98 -291 -499q-87 -344 -92 -752q96 387 376 822q179 277 348 421q114 96 210 110q34 5 61 4q51 0 80 -16q45 -26 57 -79q5 -22 6 -46q0 -35 -10 -75q-18 -70 -53 -141t-82 -133.5 t-97 -101.5q-62 -49 -109 -49q-40 0 -68 35q131 39 255 198q122 155 126 271v6q0 53 -36 83q-28 23 -74 23q-18 0 -38 -3q-121 -20 -252 -158q-114 -134 -196 -270q-185 -286 -348 -747q-124 -352 -124 -559q0 -49 7 -89q6 -25 16 -43q-4 0 -8 4v-2l-2 2q-117 73 -143 390 q-6 81 -6 165q0 230 48 479q74 374 216 574q-163 -185 -447 -679q-300 -522 -463 -726q-114 -146 -272 -281q-203 -172 -325 -172q-72 0 -115 60q-45 63 -50 219v14h-8q-178 29 -214 175zM213 -274q115 4 253 102q123 87 229.5 224.5t146.5 231.5q32 75 31 123q1 11 -1 21 q-10 52 -59 62q-12 3 -25 2q-42 0 -94 -24q-70 -32 -152.5 -106.5t-157.5 -188.5t-121 -233.5t-50 -213.5z" />
<glyph unicode="O" horiz-adv-x="1196" d="M20 514q106 252 356 507q232 238 473 361q141 72 232 72q69 0 111 -41l27 2q109 0 159 -73q48 -72 50 -189q0 -4 1 -8q-1 -113 -43 -257q-44 -148 -122 -302t-186.5 -297.5t-238.5 -250.5q-248 -203 -497 -203q-40 0 -80 5q-196 16 -196 210q0 65 22 151q58 222 240 491 q285 420 607 624q106 67 198 87q10 2 18 4t18 2q-27 22 -69 22q-80 0 -211 -81q-194 -119 -401 -342q-346 -373 -446 -734q-24 -85 -24 -163q0 -35 5 -68q-63 94 -63 213q0 117 60 258zM160 134q-22 -67 -21 -117q0 -96 79 -129q32 -14 81 -13q47 0 111 12q190 78 408 326 q194 220 344 505q148 281 170 467q4 32 4 59q0 150 -113 159h-21q41 -48 41 -125q-1 -25 -5 -54q-18 -116 -64 -212.5t-122.5 -209t-166.5 -165.5q-71 -42 -126 -42q-15 0 -29 3q-64 14 -88 88q-8 26 -8 58q0 59 28 137q7 35 34 110q-154 -179 -332 -453 q-145 -223 -204 -404zM674 766q-6 -29 -5 -53q1 -51 27 -73q21 -17 51 -17q25 0 57 12q68 27 152 108.5t136 179.5q88 171 108 263q14 68 15 111q0 16 -2 28q-7 47 -33 76q-31 -7 -72 -23q-82 -47 -215 -180q-167 -202 -219 -432z" />
<glyph unicode="P" horiz-adv-x="1777" d="M-34 91q16 79 51.5 153.5t85 136t99.5 96.5q47 33 92 33h5q47 -2 76 -53q-80 -10 -154 -58.5t-128 -118t-85 -149.5q-25 -64 -25 -123q-1 -14 1 -28q8 -72 59 -126.5t158 -72.5h4q4 196 149 441q142 243 302 354q96 67 167 67q65 0 111 -55q29 -34 29 -94q0 -70 -39 -174 q-50 -135 -170 -279q-139 -168 -325 -244q-95 -39 -200 -41v-12q7 -243 127 -266q10 -2 21 -2q183 0 539 500q185 261 359.5 545t267.5 431q214 340 304 430q-68 9 -139 9q-222 0 -474 -87q-341 -119 -529 -327q-31 -35 -66 -54.5t-55.5 -19.5t-17.5 20.5t48 67.5 q202 210 582 329q267 84 491 84q87 0 168 -13q194 190 379 227q-127 -41 -295 -244l17 -6q132 -31 202 -93.5t88 -142.5q8 -33 8 -69q0 -49 -16 -103q-26 -92 -85.5 -178t-147.5 -159.5t-191 -119.5q-135 -60 -264 -60q-91 0 -178 30q-113 -190 -224 -360 q-219 -333 -498 -547q-165 -126 -270 -126q-84 0 -131 80q-40 68 -44 222v14h-8q-104 16 -159 68q-54 52 -70 120q-9 35 -9 73q-1 36 7 74zM229 -219q182 0 403 221q64 64 148 169t124 205q32 81 32 132q0 14 -2 24q-10 54 -62 65q-13 3 -28 3q-44 0 -100 -26 q-74 -34 -162 -113.5t-169 -201.5t-131.5 -250t-52.5 -228zM1395 510q19 -1 39 -1q165 0 345 91q191 96 310 249q102 130 102 244q0 25 -5 49q-29 154 -253 224q-158 -195 -401 -622q-67 -117 -137 -234z" />
<glyph unicode="Q" horiz-adv-x="1196" d="M8 55q-48 72 -48 169q0 117 72 271q116 245 370 503q241 245 472 374q150 85 239 85q55 0 87 -32q6 2 14 2h13q164 0 201 -171q10 -47 10 -102q0 -130 -58 -307q-81 -246 -243 -479q-177 -256 -381 -391q53 -31 105 -62.5t91 -70.5q79 -79 79 -179q0 -11 -1 -23 q-55 95 -253 222q-50 32 -97 66q-174 -94 -336 -94q-40 0 -80 6q-123 10 -173 96q-26 45 -26 115q0 66 23 154q56 216 242 492q179 266 398 465q234 212 413 251l37 8q-28 22 -69 22q-80 0 -212 -80q-186 -113 -401 -345q-347 -375 -458 -733q-31 -102 -31 -194q0 -19 1 -38 zM104 6q10 -132 177 -132q56 0 131 15q96 37 194 103q-112 103 -112 248q10 -70 56 -119t112 -90q254 194 468 533q203 323 244 570q7 44 7 83q0 66 -21 115q-33 77 -129 83h-21q41 -47 41 -126q0 -24 -4 -52q-30 -192 -174 -406q-92 -135 -183 -187q-71 -41 -126 -41 q-15 0 -30 3q-64 15 -88 90q-8 26 -8 58q0 59 28 137q7 35 34 110q-283 -316 -468 -631q-129 -221 -129 -348q0 -8 1 -16zM678 776q-6 -30 -6 -54q0 -52 28 -73q21 -17 50 -17q26 0 59 13q70 27 154 109t153 215q72 129 92 225q14 69 14 113q0 17 -2 31q-8 46 -32 75 q-31 -6 -72 -22q-69 -37 -217 -181q-165 -194 -221 -434z" />
<glyph unicode="R" horiz-adv-x="1857" d="M-32 98q16 80 51.5 155t85 137.5t100.5 97.5q50 34 90 34q51 0 84 -55q-80 -10 -153.5 -59.5t-129.5 -119.5q-56 -69 -86 -150q-25 -66 -24 -125q0 -13 1 -27q7 -72 58 -127.5t160 -73.5h4q4 196 149 445q138 239 304 356q81 57 156 65q9 1 18 1q63 0 105 -50 q34 -40 34 -105q0 -27 -6 -59q-20 -106 -78.5 -208.5t-126.5 -182.5t-151 -143q-185 -142 -380 -146v-10q7 -263 144 -272h7q188 0 550 516q162 234 345 529.5t277 442.5q218 345 310 437q-68 9 -139 9q-224 0 -481 -89q-344 -119 -533 -330q-31 -35 -67 -55.5t-56.5 -20.5 t-17.5 21.5t49 69.5q208 212 587 330q270 85 500 85q85 0 166 -12q190 186 381 229q-129 -45 -297 -247q12 -4 16 -5l-2 -2q129 -29 199 -90t90 -141q10 -39 10 -80q1 -44 -11 -92q-22 -92 -76 -180t-134 -166t-177 -129q-146 -77 -288 -77q-66 0 -131 17q-1 -14 -1 -28 q0 -106 40 -237q45 -148 123 -292.5t178 -265.5q136 -164 311 -227q61 -20 117 -20q61 0 117 24q57 25 87 76q38 65 38 124q0 20 -4 38q-22 85 -99 114q-31 11 -63 11q-52 0 -105 -31q-41 -29 -59 -76q-31 22 -31 52q0 10 4 22q11 42 58 67q50 30 104 30q32 0 66 -11 q71 -15 125 -84q31 -45 31 -88q0 -8 -1 -16q-11 -90 -49 -146q-25 -43 -62.5 -70t-79.5 -41t-79 -16q-16 -1 -33 -1q-48 0 -98 6q-68 8 -156 59t-172 128.5t-159.5 177t-137.5 205.5q-127 218 -166 408q-213 -348 -368 -516q-239 -258 -432 -352q-65 -31 -116 -31 q-82 0 -129 81q-40 70 -44 224v14h-10q-104 18 -159 70q-54 50 -70 120q-9 36 -9 75q-1 36 7 75zM233 -215q180 0 407 221q65 64 148 171q82 107 124 207q33 81 34 134q0 14 -2 24q-10 56 -64 66q-12 2 -25 2q-45 0 -103 -26q-76 -34 -165 -113.5t-170 -203.5t-131.5 -253 t-52.5 -229zM1399 504q29 -3 59 -3q99 0 201 36q133 47 245.5 127.5t191.5 185.5q78 106 98 208q5 27 6 52q0 72 -40 137q-54 88 -206 135h-2q-119 -147 -231 -333q-176 -292 -322 -545z" />
<glyph unicode="S" horiz-adv-x="1198" d="M-39 -434v13q0 76 62 159q47 61 85.5 94t61.5 53l61 47l19 17q46 36 69 59q66 57 66 98q0 14 8 15q22 -3 29 -15q22 -22 22 -67v-8q0 -68 -67 -131q-14 -12 -30.5 -26.5t-39.5 -29.5l-168 -106q-36 -25 -71 -55q-66 -60 -66 -122v-7q4 -102 162 -103q295 0 538 154 q125 77 194 183q63 96 63 209q0 11 -1 23q-4 66 -81 191l-74 115q-36 57 -78 127l-16 26q-107 199 -111 333v25q0 119 39 213q43 104 114.5 176t160.5 115q88 43 176 57q38 6 74 5q46 1 88 -9q74 -18 113 -65q35 -41 34 -105v-20q-6 -78 -76 -186q139 140 175 220 q33 73 33 133v9q-3 64 -48 133q156 -99 156 -210q0 -68 -59 -141q-73 -89 -194.5 -186t-185.5 -156q-149 -137 -166 -245q2 90 53.5 169t122.5 157q57 106 57 192q0 56 -24 104q-27 52 -78 82t-111 33h-14q-54 0 -110 -22q-62 -24 -111 -80q-103 -119 -103 -322q0 -20 1 -40 q10 -115 28 -167q29 -79 78 -171l162 -248q76 -125 78 -213q1 -11 1 -21q0 -138 -97 -255q-115 -155 -391 -261q-227 -87 -394 -87h-8q-205 0 -211 141z" />
<glyph unicode="T" horiz-adv-x="1456" d="M-32 -104q-7 32 -7 66q0 93 53 208q65 142 165 209q47 31 83 31q46 0 74 -50q-72 -8 -138.5 -52t-115.5 -106q-49 -64 -77 -136q-23 -59 -22 -112q1 -12 1 -24q6 -64 52 -113.5t144 -66.5h2q4 175 134 400q126 215 275 319q87 61 152 61q58 0 99 -49q27 -32 27 -89 q1 -25 -5 -56q-18 -98 -70.5 -188.5t-112.5 -163t-135 -128.5q-167 -126 -341 -130v-11q7 -217 110 -239q15 -3 30 -3q180 0 495 447q162 228 325.5 495t251.5 402q202 310 301 389q-84 25 -194.5 59.5t-233.5 67.5t-252 56.5t-248 24.5h-9q-264 0 -396 -122 q-90 -81 -90 -187q0 -51 21 -107q22 -60 84 -137q112 -137 337 -181q69 -13 134 -13q16 0 32 1q80 4 155 35t113 88q52 65 52 144q0 61 -31 132q12 4 24 4q23 0 44 -16l40 -35q25 -34 24 -85q0 -25 -5 -54q-12 -39 -37 -78q-77 -92 -141 -117.5t-125 -38.5l-74 -6 q-32 -4 -54 -4q-33 0 -66 5q-44 7 -98 20q-220 57 -339 200q-109 134 -109 251.5t86 208.5t222 123q108 25 235 25q34 0 69 -2q167 -8 355.5 -47t380 -88t374.5 -98t342 -78q144 -26 250 -26q154 0 226 55q47 37 61 63q14 35 15 76l-4 23q-6 45 -24 74q-20 35 -56 77 q76 -66 90 -153l4 -29q2 -15 2 -29q0 -90 -70 -150q-82 -70 -184 -92q-75 -17 -164 -16q-31 0 -64 2q-207 13 -583 121q-146 -159 -439 -591q-116 -171 -231.5 -342t-190.5 -268t-146.5 -175t-155.5 -150.5t-170 -126t-156 -57.5h-9q-65 1 -109 57q-46 60 -50 213v13h-8 q-174 30 -206 170zM205 -252q115 4 247 99q113 80 218.5 216t143.5 226q30 71 30 116q0 13 -2 24q-10 49 -58 59q-11 2 -23 3q-39 0 -91 -24q-68 -31 -148 -102.5t-152 -182.5q-161 -246 -165 -434z" />
<glyph unicode="U" horiz-adv-x="1234" d="M20 -614q-60 139 -60 281q0 239 169 487q94 138 328 420q178 213 205 374q4 24 4 47q0 66 -33 131q103 -106 103 -242q0 -142 -112 -318q-65 -101 -145 -206.5t-163 -215t-148 -222.5q-130 -222 -129 -412q0 -27 2 -53q162 109 357 235q318 206 464 320q80 214 301 555 q86 133 165 260t130 244q63 144 63 257q0 91 -40 163q134 -129 134 -306q0 -168 -121 -380q-97 -168 -268 -413t-231.5 -355.5t-93.5 -203.5t-53 -177q-33 -144 -33 -262q23 -261 140 -302q13 -4 28 -5q33 0 74 22q2 0 6 4q-87 150 -87 328q0 61 10 125q28 176 112 256 q33 33 69 33q13 0 25 -4q49 -16 75.5 -69.5t32.5 -126.5q2 -21 1 -43q1 -54 -9 -114q-14 -84 -42 -162q-64 -171 -163 -233v-2q81 -103 167 -102q24 0 48 7q102 31 150 160q21 58 21 123.5t-29 124.5q50 -8 64 -60q6 -23 6 -48q0 -32 -10 -70q-18 -66 -60 -132 q-42 -64 -100 -98q-41 -24 -89 -24q-19 0 -39 4q-70 14 -139 103v2l-4 4q-43 -29 -84 -29h-9q-44 4 -76 30q-60 50 -91 169q-35 95 -35 254q0 34 2 71q8 177 49 324q-188 -127 -389.5 -250t-419.5 -278zM1017 -658q7 -133 58 -223q104 63 168 269q33 106 33 203 q0 63 -14 123q-14 62 -42 96q-22 26 -47 27q-7 0 -13 -2q-32 -9 -65.5 -67.5t-52.5 -147.5q-18 -88 -23 -152q-3 -40 -3 -79q0 -24 1 -47z" />
<glyph unicode="V" horiz-adv-x="1341" d="M-40 1000q0 92 44 188q45 98 120 176t172 133t202 77q75 16 144 16q140 0 251 -68q118 52 215 52q63 0 116 -22q46 -18 87 -70t59 -120q22 -63 22 -129q0 -55 -15 -111q-34 -125 -113.5 -258t-189 -272t-221.5 -284q-273 -351 -361 -589q155 298 678 741 q351 298 504 443.5t242 260.5q170 219 170 403q0 25 -3 49q58 -108 58 -219q0 -208 -205 -425q-162 -174 -470 -400q-359 -264 -511 -390.5t-253 -237.5q-224 -246 -253 -476q-5 -28 -22 -30h-3q-15 0 -12 27q-8 57 -8 115q0 328 250 675q109 152 276.5 354t237.5 307 q153 234 153 418v7q0 129 -84 171q-31 16 -78 16t-109.5 -20.5t-105.5 -45.5q75 -79 96 -137q31 -84 35 -207v-18q0 -114 -46 -220q-50 -114 -107 -182q-138 -161 -296 -206q-36 -11 -69 -11h-10q-63 0 -104 47q-44 51 -55 129q-4 31 -4 64q0 49 10 103q16 89 57 185.5 t98 184.5q125 193 276 289q-90 84 -221 84q-52 0 -110 -13q-200 -47 -350 -202q-160 -168 -160 -369q4 -74 26 -135l-22 -12q-28 68 -28 164zM427 670q3 -88 38 -129q37 -39 82 -39q73 0 135 31q238 118 310 347q29 90 29 192q-1 16 -1 32q-6 120 -62 229q-17 32 -73 97 q-170 -109 -299 -310q-78 -118 -120 -240q-39 -113 -39 -198v-12z" />
<glyph unicode="W" horiz-adv-x="2007" d="M-38 1055v11q0 86 44 171q47 90 125 155.5t180.5 103.5t212.5 44q22 1 43 1q214 0 377 -120q100 23 169 23q28 0 50 -4q143 -24 213 -113q51 -66 72 -139q23 -62 23 -129q0 -149 -113 -319q-74 -113 -179.5 -227t-217 -230.5t-214 -238.5t-169.5 -249q104 154 257.5 288 t291.5 228.5t239.5 162t188.5 138.5q200 161 247 310v2h2l13 47q10 50 10 85.5t-4 73.5l6 -8l15 -15q7 -7 11 -17h3q27 -44 27 -106q0 -90 -57 -216q-52 -118 -98.5 -192t-62.5 -105t-45 -86t-60.5 -131t-63.5 -166t-52 -184q-22 -108 -22 -200t22 -167q-7 34 -7 72 q-1 99 47 226q66 175 203.5 373t335 402.5t436 388t508 329t549.5 224.5q275 78 526 78q308 0 580 -117q-199 50 -414 50q-345 0 -730 -129q-547 -185 -1064 -585q-237 -183 -426.5 -384t-313.5 -393.5t-172 -362.5q-24 -86 -24 -160q0 -72 23 -133q-185 193 -185 426 q0 91 28 188q51 173 188 396q59 96 117 188q-92 -82 -205 -158.5t-218.5 -148t-193.5 -133t-169 -126.5q-184 -146 -263.5 -262.5t-97 -201t-25.5 -153.5q-37 88 -37 183q0 230 215 502q119 150 302.5 346.5t263.5 301.5q175 231 175 399q0 80 -40 146q-37 61 -131 77 q-24 4 -50 4q-33 0 -69 -6q-66 -10 -111 -28q84 -96 105 -154q29 -82 35 -206q1 -13 1 -25q0 -110 -46 -203q-52 -104 -111 -162q-104 -104 -233 -143q-64 -16 -116 -16q-103 0 -155 65q-68 81 -68 201q0 48 11 102q36 176 162 340q124 163 288 240q-120 124 -311 124 q-18 0 -37 -1q-209 -11 -368 -140q-76 -63 -122 -150q-45 -86 -45 -178q0 -74 29 -151l-24 -6q-27 70 -30 162zM458 656q3 -87 42 -132q41 -57 132 -57q17 0 37 2q93 10 181 61q230 133 230 425q0 19 -1 39q-10 192 -145 339q-176 -79 -311 -256q-82 -106 -125 -220 q-40 -107 -40 -190v-11z" />
<glyph unicode="X" horiz-adv-x="1976" d="M-38 -136q9 180 182 373q164 185 390 277q163 66 297 66q184 0 314 -124q80 -77 127 -212q-126 227 -408 234h-18q-236 0 -484 -152q-116 -70 -206 -163t-131 -193q-28 -69 -29 -137q0 -31 6 -61q18 -100 117 -182q97 -76 235 -84q31 -2 60 -2q102 0 183 20 q105 26 181 66q126 67 194 118q113 85 178 149q129 127 200 209q154 154 308 390q244 372 244 631q0 65 -16 123q-28 107 -137 176q-98 63 -186 63q-37 0 -72 -11q-51 -16 -81 -50q-31 -36 -31 -82q0 -101 143 -178q-20 -4 -29 -8q-75 44 -105 96q-28 48 -27 92v9 q3 49 37 90t87 61q43 16 89 16q87 0 183 -57q151 -85 197 -259q19 -70 19 -150q0 -102 -31 -221q282 560 611 749q114 66 233 66h20h13q100 0 118 -119v-8l4 -15h-2v-9q0 -111 -93 -266q-96 -159 -216 -248q-91 -67 -156 -67q-33 0 -59 17q-35 20 -35 76q0 29 10 69 q27 111 112 189q81 75 174 75q19 0 38 -3q-92 -43 -157 -105.5t-101 -123.5q-36 -62 -44 -109q-2 -12 -3 -21q0 -29 18 -37q13 -5 29 -6q49 0 130 51q117 74 216 213q116 174 116 287v14v19l-2 2q-10 86 -65 98q-16 3 -33 3q-44 0 -98 -21q-180 -88 -396 -379 q-194 -263 -352 -614q-157 -348 -207 -631q158 -28 248 -169q64 -101 65 -209q0 -41 -10 -83q-16 -76 -61 -109q-47 -33 -94 -33l-58 13l-2 2q-124 58 -167 255q-21 92 -21 192q0 62 8 126q-144 -22 -199 -133q-23 -46 -24 -95q0 -51 26 -104q49 -107 154 -122 q-36 -35 -71 -35q-10 0 -20 3q-44 13 -72.5 60t-38.5 116q-3 22 -3 44q1 46 15 92q20 68 77.5 121t159.5 70q34 244 117 489q-142 -258 -358 -480q-224 -231 -467 -351l-31 -17q-20 -8 -29 -14q-237 -128 -446 -128q-49 0 -96 7q-113 14 -209 76q-197 121 -197 316 q0 10 1 21zM1742 -370q18 -118 60 -182t98 -76q16 -4 30 -4q37 0 65 23q39 32 51 79q7 27 7 56q0 22 -4 46q-9 55 -35.5 112.5t-65.5 106.5q-87 110 -187 133q-25 -119 -25 -212q0 -44 6 -82z" />
<glyph unicode="Y" horiz-adv-x="1667" d="M-14 -238q47 139 149 206q48 31 89 31q52 0 95 -48q-82 -10 -149.5 -53t-111.5 -104.5t-61 -132.5q-8 -33 -8 -64q0 -36 11 -71q20 -63 83.5 -111t178.5 -64h2q-7 38 -7 79q0 142 83 313q103 212 252 313q88 60 164 60q67 0 125 -48q53 -46 53 -141t-43 -185 t-98.5 -160.5t-130.5 -125.5q-166 -124 -367 -128q2 -4 2 -10q39 -167 150 -167q79 0 194 83q85 62 178 160q164 186 382 567q95 166 193.5 339t202.5 335q-112 -83 -297.5 -189t-289 -168.5t-211.5 -140.5q-55 123 -55 241q0 220 189 424q77 83 145.5 159.5t111.5 149.5 q31 53 31 109q0 21 -4 42q-46 87 -176 87q-11 0 -23 -1l-4 -2q3 -19 3 -40q0 -106 -70 -245q-80 -161 -199 -257q-84 -68 -151 -68q-35 0 -65 18q-37 22 -37 79q0 34 14 81q27 91 86.5 170t116.5 130q124 108 279 144v6q-23 107 -112 107q-25 0 -55 -9q-109 -30 -244 -149 q-56 -49 -92.5 -96.5t-38.5 -73.5l-31 12q25 78 162 193q142 121 258 142q20 4 38 4q105 0 134 -124l2 -8h6q13 1 26 1q106 0 166 -60q75 -83 75 -163v-6q-3 -83 -51 -166t-124 -169t-145.5 -180.5t-115.5 -200.5q-36 -83 -36 -176q0 -24 2 -49q145 98 264 169.5t225 139.5 q246 155 429 327q308 419 610 482q-172 -59 -386 -364q-121 -172 -309 -492t-290.5 -486t-174 -259t-143 -173t-159.5 -159.5t-183.5 -146.5t-180.5 -89q-35 -9 -66 -9q-136 0 -179 183l-4 12h-8q-207 26 -272 166q-28 59 -28 128q0 65 26 140zM291 -649q186 0 381 195 q55 55 121.5 149t92.5 183q14 49 14 87q0 29 -10 51q-20 50 -77 59q-13 2 -27 2q-47 0 -102 -23q-72 -29 -149.5 -100t-141.5 -179q-59 -109 -89 -223q-19 -73 -19 -136q0 -34 6 -65zM526 788q14 -30 52 -30h5q42 2 97 34q132 75 225 238q93 164 93 275q0 20 -3 38 q-193 -45 -368 -290q-108 -153 -108 -230q0 -20 7 -35z" />
<glyph unicode="Z" horiz-adv-x="1290" d="M-41 -627q8 226 164 432q142 185 401 383q97 77 199 146q175 117 268 174q-46 59 -84.5 74.5t-68 21.5t-68.5 17q-16 0 -19 5t2 11q10 12 25 22q159 71 230 116q130 84 216.5 171.5t93.5 129.5q1 7 1 13q0 33 -31 45q-24 10 -62 10q-18 0 -42 -3q-68 -8 -142 -33 q-180 -61 -247 -145q-32 -32 -21.5 -39.5t22.5 -9.5q3 0 6 -1q27 0 66 25q12 8 17 -4q6 -8 -2 -16q-46 -27 -75 -27q-5 0 -9 1q-31 5 -40 12t-9 27t35.5 55.5t116.5 89.5t173 94q132 57 223 58q63 0 105 -28q37 -25 37 -64.5t-29 -84.5t-76 -92.5t-105.5 -94.5t-115.5 -88 q-109 -79 -186 -117q44 -14 66 -34.5t36 -35t35 -32.5q16 10 72.5 49t136.5 85t175 88t191 59q52 10 98 10q146 0 228 -100q-368 -21 -668 -136q-108 -41 -196 -92q102 -109 102 -278q0 -104 -37 -215q-60 -212 -239 -443q-68 -88 -176 -196q-146 -146 -289 -220 q-164 -86 -277 -86q-66 0 -118 29q-82 52 -100 168q-7 41 -9 94zM-8 -641q0 -84 22 -139t68 -80q39 -25 102 -25q134 0 316 152q73 59 160.5 159.5t139.5 179.5q259 396 259 677q0 105 -37 190q-47 -35 -103.5 -62.5t-116.5 -66.5q-277 -182 -466 -356q-344 -305 -344 -629z " />
<glyph unicode="[" horiz-adv-x="2318" d="M135 -451h37l21 -96l18 96h37l18 -96l23 96h35l-37 -127v-6h-37l-21 97l-20 -97h-37l-37 129v4zM205 379v579l315 68l-12 43l47 14l-10 47l49 11l-6 51l47 4v47h43l4 43l47 -6l8 47l51 -8l13 47l45 -12l18 43l47 -19l25 45l43 -22l25 41l43 -29l30 39l39 -31l33 33 l31 -29l30 27l31 -35l41 27l27 -43l45 24l22 -41l43 19l21 -47l49 14l14 -45l45 10l11 -49l51 4l2 -30l473 102v-580l-217 -47l4 -4l-27 -31l27 -32l-37 -31l27 -41l-43 -27l26 -43l-43 -24l19 -43l-47 -21l16 -49l-45 -14l8 -45l-49 -11l4 -51l-47 -4v-47h-41l-6 -43l-45 4 l-10 -45l-50 8l-14 -47l-45 15l-16 -48l-50 21l-22 -45l-43 22l-27 -41l-43 27l-28 -37l-37 31l-35 -33l-31 29l-33 -29l-28 37l-41 -27l-29 43l-43 -24l-22 41l-45 -19l-21 47l-47 -14l-14 45l-47 -10l-11 49l-49 -4l-6 47h-47v43l-41 4l4 47l-47 8l10 50l-49 14l14 45 l-32 12zM330 -451h35l22 -96l19 96h34l21 -96l20 96h37l-37 -127l-2 -6h-35l-22 97l-21 -97h-36l-35 129v4zM334 -212q0 27 4 47.5t13 30.5q29 34 71 34h6q17 0 25 -4q26 -15 33 -25q14 -20 14 -31h-39q0 12 -17 23q-10 6 -18 6t-12 -2h-8l-17 -12q-16 -16 -16 -43t4 -41 t13 -19q11 -5 26 -10h6q14 0 20 6q10 0 17.5 13.5t7.5 19.5h-43v33h76v-99h-25l-4 23q-11 -19 -22 -21t-15 -6l-22 -2q-18 0 -32 7.5t-22 19.5q-24 24 -24 52zM334 543q0 -2 2 -4h10l10 6l13 12l8 12l12 13q2 4 10 12l74 102q6 10 12.5 17.5t10.5 17.5l24 37q6 10 12.5 18.5 t10.5 18.5q6 10 11 18q18 29 3 29q-7 0 -20 -8l-21 -23l-18 -24q-10 -10 -17 -23l-18 -22l-66 -95l-30 -49l-31 -55l-2 -6v-4zM383 778q-4 -24 12 -35l21 -6q35 0 35 8q0 2 -2 3h-7q-4 0 -4 -3q-37 -4 -43 8.5t-6 18.5q0 8 10 29l21 22q9 9 20.5 16t17.5 11q14 9 26 13.5 l20 7.5t15 5.5t18 6.5l32 6q20 4 31 4q10 0 20.5 -3t15.5 -4q7 -1 14 -13.5t7 -22.5t-4 -27l-12 -22q-13 -25 -23 -33t-15 -14t-12 -11.5t-13 -11.5l-27 -16l-29 -13l-16 -6q-6 0 -14 -4h-7q-10 0 -10 -4q-4 0 -4 -3t2 -3h6q4 0 6 2h7l30 10l62 27l30 18l27 19l25 22l20 23 q8 12 13 24q15 37 -3 62q-21 16 -35 17t-27 1t-32 -3q-65 -11 -90 -22.5t-37 -17.5q-44 -22 -56.5 -34.5t-25.5 -28.5zM522 -215q0 21 6 35t18 21q14 9 40.5 9t36.5 -8t16 -22q8 -19 8 -41v-8h-92q0 -12 8 -21.5t19.5 -9.5t19.5 4q8 8 8 10h37q-17 -43 -59 -43q-66 0 -66 74 zM522 -451h37l21 -96l18 96h37l18 -96l21 96h37l-37 -127l-2 -6h-35l-21 97l-22 -97h-35l-37 129v4zM559 -205h53q-8 23 -14 26t-12 3q-23 0 -27 -29zM641 557h2q23 0 23 -18v-56q0 -34 53 -34q51 0 51 38v58l10 10h2l2 2h9v4h-56v-4h13q18 -6 18 -29v-39q0 -16 -10 -26 l-15 -10h-18q-37 0 -37 30v56q0 12 4 15t17 3h8v4h-76v-4zM657 -152h19v35h35v-35h20v-24h-20v-72q0 -8 2 -10l12 -2l4 2h2v-27h-20q-16 0 -23 4q-12 0 -12 23v82h-19v24zM657 678q8 -23 30 -22q39 2 77 26q18 8 37 25l28 24l17 19q0 2 4 6q0 4 4 4l4 8l19 18l18 25 q13 13 20 25q15 -8 15 -19q0 -2 -8 -10l-19 -21l-16 -22l-15 -23l-6 -20q-2 -4 -2 -10v-9q7 -10 13 -10t22 4l19 13q27 20 33.5 28t13 14.5t8.5 10.5l10 12l4 6q10 10 10 13l15 18l24 35l6 -33l5 -8q-20 -8 -29 -14l-23 -19q-18 -18 -18 -41q4 -12 27 -11q37 2 63 28 q10 6 18 20l11 20q6 12 6 23v18q0 23 -19 45q0 7 -8 15v6q2 2 2 4h-10l-4 -4q-6 -2 -14 -10l-7 -15l-2 -2l-49 -67l-6 -10l-2 -3v-2q-1 0 -16 -20l-19 -23l-24 -22q-12 -12 -29 -12h-2l2 2l8 12l17 22q2 1 18 27l10 19q8 21 7 27.5t-1 12.5l-4 7q0 4 -2 6v26q14 22 6 27.5 t-22 0.5q-35 -12 -35 -38q0 -10 10 -20l-6 -9l-57 -69q-2 0 -6 -4v-2l-2 -2q0 -2 -2 -2l-13 -17l-15 -15q-20 -20 -40 -31t-26.5 -12t-17.5 -5t-17 -2q-11 0 -11 12l8 20l13 21q8 -4 17 -4q26 0 42 9t35 24l18 18q9 9 21 35q0 17 -14 26q-25 8 -43 -4q-38 -9 -68.5 -35 t-42.5 -49q-16 -16 -23 -45v-20zM711 -547h37v-37h-37v37zM723 737l18 25l21 24q10 14 13 15.5t5 5.5l13 10l14 6q10 2 16 0q3 -7 -3.5 -16.5t-10.5 -16t-5 -8.5t-5 -4q-4 -8 -24 -26.5t-32 -18.5t-20 4zM780 -451h33v-20q12 25 37.5 25t38.5 -23q8 21 30 21q29 1 46 -23 q4 -4 4 -21v-92h-33v80q0 27 -22 27t-21 -27v-80h-37v92q0 15 -21.5 15t-21.5 -25v-82h-33v133zM807 532q0 -10 12 -22l15 -6q2 -2 8 -3l24 -7q12 -4 17 -5q6 0 12 -6t6 -12.5t-14 -17.5h-13q-12 0 -18 2l-20 8l-13 12q-10 14 -10 25h-4v-51h4q0 12 14 12q2 0 2 -1t5 -1 l8 -2q21 -8 29.5 -8t16.5 2q23 5 23 10.5t4 9.5v23l-6 8q-6 4 -14 8l-21 8h-12l-2 2l-16 4q-4 2 -6 2q-4 0 -11 6q-4 4 -4 9.5t1 5.5t5 8l9 4l12 2q8 0 16 -4q15 0 29 -14q4 -4 5 -9.5t5 -11.5h4v37h-4q-2 -8 -8 -8l-47 12q-10 0 -23 -4l-14 -10q-6 -10 -6 -17zM809 -152h18 v11q0 37 39 37h19v-27h-11q-12 0 -12 -6v-15h23v-24h-23v-109h-35v109h-18v24zM905 -152h35v-81q0 -25 23 -25q12 0 24 12l4 17v77h33v-133h-33v19q-14 -23 -37 -23q-47 0 -49 49v88zM928 451h119v45q-4 -4 -5 -8q0 -5 -10 -17q-15 -18 -39 -18h-18v49h2q16 0 27 -15 q4 -16 4 -18h2v72h-2v-11q-14 -24 -27 -24h-6v51h20q18 0 25 -2l10 -8l6 -12l6 -17h5v43h-119v-4h4q18 0 18 -18v-66q0 -20 -18 -20h-4v-2zM987 733v10l4 13q17 22 31 30l27 13l2 -13q-2 -4 -2 -10l-2 -12q-7 -14 -15 -23q-16 -12 -28 -12q-6 -7 -17 4zM991 -546q0 31 39 40 l33 4q10 4 10 10q0 16 -20 17l-17 -2q-6 -12 -6 -17h-33q0 14 7 27q15 15 49 21q36 0 53 -23q2 -6 2 -16v-72q0 -10 2 -14q0 -6 6 -7v-6h-37q0 2 -2 4v2q-2 4 -2 11q-19 -19 -37 -19t-25 2t-14 15q-8 6 -8 23zM1026 -547q0 -14 18 -14h7l6 2l12 8q4 4 4 14v19q-6 -6 -12 -6 q-35 -4 -35 -23zM1057 -104h35v-181h-35v181zM1118 -104h33v-181h-33v181zM1120 506q0 -37 29 -47q6 -2 17 -6t32 -4t37 19t16 34q0 21 -16 43q-10 10 -23 12q-12 6 -30.5 6t-28.5 -6q-13 -8 -25 -22q-8 -14 -8 -29zM1126 -451h37l21 -96l18 96h35l20 -96l23 96h35l-37 -127 v-6h-37l-20 97l-21 -97h-37l-37 129v4zM1133 772q0 -10 16 -18q13 0 25 1t32 9l31 16l49 43l17 23l12 20l6 21q2 12 0 18q0 19 -35 23q-21 0 -51 -15l-29 -18q-8 -4 -14 -10t-12 -11l-21 -22l-14 -23q-20 -32 -12 -57zM1157 467q-21 57 6 84q0 2 9.5 6t15.5 4l8 -2l8 -4 l10 -10q2 -4 4.5 -8.5t4.5 -10.5l2 -20q0 -12 -5 -26q-9 -27 -27.5 -27t-21.5 4q-8 0 -14 10zM1159 773q0 14 12 31q24 34 39 52l19 25q6 6 20 22.5t36 16.5q7 0 7 -8q0 -5 -10 -27q-19 -40 -39 -60l-18 -22l-23 -23q-18 -18 -37 -18q-6 6 -6 11zM1241 -152h19v11 q0 37 38 37h17v-27h-8q-10 0 -13 -6v-15h25v-24h-25v-109h-34v109h-19v24zM1268 451h57v2l-20 4q-9 13 -9 24v66l95 -96h4v77q0 29 24 29v4h-55v-4h10q0 -2 4 -2q12 -12 13 -27v-47l-78 80h-43v-4h2q20 0 20 -16v-64q0 -24 -24 -24v-2zM1290 776l6 -2q8 0 21 8l8 11l6 6 q0 2 4 6l64 74l59 57q4 2 12 10l13 8l14 7q2 0 2 -3h-2l-6 -6q-2 -6 -8 -8l-6 -8l-15 -16q-17 -17 -30 -43l-17 -25q-16 -24 -8 -41q4 -8 13 -8t16.5 2t13.5 6t16 9t21 16l24 22l2 2q-2 -2 -2 -8q0 -33 39 -23q20 8 29 15l25 18q12 12 16 17l16 14q-2 -2 -2 -6l-2 -6v-9 q-4 -6 0 -10q4 -14 8 -15t11 -1q5 0 43 20l37 31l20 21q-10 -25 -10 -37v-7q6 -6 10 -6t10 3t9 5l20 13l12 12q13 7 21 17t14 16l21 24q2 2 2 5q-2 2 -6 2q-5 0 -11 -11l-26 -30q-7 -8 -15 -15l-16 -14l-8 -6l-11 -4l-2 -2q-2 0 -4 2h2l9 16q4 8 13 20.5t13 20.5l74 109 q12 12 16 20l62 68q10 12 19 24.5t20 24.5l12 20v11q-2 2 -8 2t-12.5 -2t-9.5 -4.5t-9 -5.5q-20 -10 -45 -35l-21 -23q-8 -8 -16 -20.5t-19 -26.5t-18.5 -26.5t-15.5 -24.5l-53 -90l-9 -19q-2 0 -2 -2l-16 -16q-5 -8 -23 -23l-32 -29l-9 -6l-4 -2l-6 -4h-10l12 23q0 2 1 2 t1 2l2 2q4 8 9.5 15t10.5 16q12 20 21 32l17 25l8 14q4 4 8 13q2 2 3 4t2 2t5 5q7 9 -6 9l-12 -4l-12 -6l-21 -15l-16 -16q0 8 -2 12q0 4 -8 9q-21 3 -44.5 -7t-32.5 -16q-12 -8 -32.5 -25.5t-36.5 -40t-20 -33t-4 -11.5t-3 -1q-53 -53 -71 -53h-4q-1 1 14 25l39 49 q6 8 12 15t10 18l11 20q4 12 2 19q0 12 -8 12q-13 0 -41 -16q-25 -25 -37 -31l-25 -25q-6 -6 -12 -11l-35 -38l64 90q0 2 1 2q5 0 5 15l-6 6l-9 2l-10 -2l-12 -6l-6 -7q-4 -2 -4 -4t-9 -12l-90 -156q-2 -2 -2 -8zM1329 -224q0 54 39 70q8 4 29 4q33 0 49 -16q18 -22 18 -47 q0 -45 -30 -66q-16 -10 -38 -10t-38 10q-12 10 -20.5 25.5t-8.5 29.5zM1331 -451h35v-20q14 25 41 25q45 -3 45 -46v-92h-35v80q0 16 -3 21.5t-19 5.5q-27 0 -27 -31v-76h-37v133zM1364 -218q0 -40 33 -40q31 0 32 40t-32 40t-33 -40zM1425 451h125v49h-2q-4 -4 -4 -8 l-6 -17q-2 -2 -8 -9q-11 -13 -29 -13h-28v86q0 18 20 18h8v4h-76v-4h7q18 0 18 -18v-66q0 -20 -18 -20h-7v-2zM1477 -541h34q0 -18 26 -18t26 10t-15 12l-30 9q-20 7 -28.5 13.5t-8.5 22.5q0 43 53 46q45 0 55 -25l4 -10v-11h-34q0 17 -21.5 17t-21.5 -12q0 -6 12 -9l31 -8 q38 -6 38 -37q0 -45 -57 -45h-12q-13 0 -29 10q-22 13 -22 35zM1489 -152h33v-18q14 20 36.5 20t28.5 -4l17 -14q6 -12 6 -25v-92h-35v80q0 8 -4 21q-6 6 -21 6q-24 0 -24 -31v-76h-37v133zM1542 844l2 4q0 2 10 17q15 22 17 26t10 12l59 76l9 8q17 10 30 10l7 -4l2 -8 q0 -10 -7 -16l-18 -25l-16 -26l-19 -19l-18 -20l-27 -23q-12 -6 -16 -10q-10 -10 -21 -6h-2q-2 2 -2 4zM1544 557h2q20 0 27 -14l35 -45v-25q0 -20 -21 -20h-6v-2h78v2h-8q-21 0 -21 20v27l35 47q8 4 10 6q4 4 17 4v4h-56v-4h6q17 0 17 -10q0 -4 -6 -12l-23 -31l-28 37 q-4 8 -5 8v2q0 6 9 6h10v4h-72v-4zM1624 -547h37v-37h-37v37zM1626 -152h21v35h32v-35h23v-24h-23v-72l2 -10l13 -2l4 2h4v-27h-23q-16 0 -20 4q-10 0 -12 9v96h-21v24zM1686 -520q0 74 59 74q18 0 31 -7q14 -4 20 -18q10 -10 10 -27h-37q0 21 -20 21q-27 0 -29 -37 q0 -33 7.5 -38t19.5 -5q22 0 22 22h37q0 -27 -20 -39t-44 -12q-36 0 -54 35q-2 8 -2 31zM1784 -249q0 21 10 30q12 8 29 12l30 4q12 2 12.5 14t-20.5 12.5t-24 -20.5h-33q4 34 27 43q8 4 14 4h16q41 0 48 -16t8 -20v-86q0 -6 8 -7v-6h-39q-2 0 -2 2v4q0 4 -1 6.5t-1 4.5 q-14 -21 -41 -21q-6 0 -19 4q-4 4 -8 7q-14 8 -14 29zM1819 -248q0 -14 16 -14h10q12 6 17 10q4 8 4 16v17q-6 -6 -15 -6l-16 -4q-16 0 -16 -19zM1823 -518q0 27 16 51q12 12 23 14q8 6 30.5 6.5t49.5 -18.5q4 -4 6 -10t6 -13t4 -28q0 -42 -22.5 -56t-47.5 -14q-39 0 -59 35 q-6 14 -6 33zM1860 -517q0 -40 30 -40q31 0 31 31t-6 40t-25 9q-30 0 -30 -40zM1894 1083l33 45l17 27l30 41l2 2q0 6 4 7t5 -1q0 -6 -12.5 -24.5t-16.5 -20.5l-39 -49l-12 -14q-2 -4 -11 -13zM1917 -152h16v35h37v-35h23v-24h-23v-72l2 -10l10 -2l7 2h4v-27h-23 q-16 0 -22 4q-8 0 -15 23v82h-16v24zM1982 -451h33v-20q14 25 39.5 25t36.5 -23q11 21 32 22t29 -8q13 -6 15 -16q6 -6 6 -21v-92h-35v80q0 27 -21.5 27t-21.5 -27v-80h-35v80q0 10 -2 12q0 15 -18 15q-23 0 -23 -25v-82h-35v133z" />
<glyph unicode="\" horiz-adv-x="360" d="M-137 1386l14 23l531 -1911q-4 2 -13.5 5t-8.5 -9t-187.5 673t-335.5 1219z" />
<glyph unicode="]" horiz-adv-x="2269" d="M135 -451h37l21 -96l18 96h37l18 -96l23 96h35l-37 -127v-6h-37l-21 97l-20 -97h-37l-37 129v4zM205 379v579l315 68l-12 43l47 14l-10 47l49 11l-6 51l47 4v47h43l4 43l47 -6l8 47l51 -8l13 47l45 -12l18 43l47 -19l25 45l43 -22l25 41l43 -29l30 39l39 -31l33 33 l31 -29l30 27l31 -35l41 27l27 -43l45 24l22 -41l43 19l21 -47l49 14l14 -45l45 10l11 -49l51 4l2 -30l473 102v-580l-217 -47l4 -4l-27 -31l27 -32l-37 -31l27 -41l-43 -27l26 -43l-43 -24l19 -43l-47 -21l16 -49l-45 -14l8 -45l-49 -11l4 -51l-47 -4v-47h-41l-6 -43l-45 4 l-10 -45l-50 8l-14 -47l-45 15l-16 -48l-50 21l-22 -45l-43 22l-27 -41l-43 27l-28 -37l-37 31l-35 -33l-31 29l-33 -29l-28 37l-41 -27l-29 43l-43 -24l-22 41l-45 -19l-21 47l-47 -14l-14 45l-47 -10l-11 49l-49 -4l-6 47h-47v43l-41 4l4 47l-47 8l10 50l-49 14l14 45 l-32 12zM330 -451h35l22 -96l19 96h34l21 -96l20 96h37l-37 -127l-2 -6h-35l-22 97l-21 -97h-36l-35 129v4zM334 -212q0 27 4 47.5t13 30.5q29 34 71 34h6q17 0 25 -4q26 -15 33 -25q14 -20 14 -31h-39q0 12 -17 23q-10 6 -18 6t-12 -2h-8l-17 -12q-16 -16 -16 -43t4 -41 t13 -19q11 -5 26 -10h6q14 0 20 6q10 0 17.5 13.5t7.5 19.5h-43v33h76v-99h-25l-4 23q-11 -19 -22 -21t-15 -6l-22 -2q-18 0 -32 7.5t-22 19.5q-24 24 -24 52zM334 543q0 -2 2 -4h10l10 6l13 12l8 12l12 13q2 4 10 12l74 102q6 10 12.5 17.5t10.5 17.5l24 37q6 10 12.5 18.5 t10.5 18.5q6 10 11 18q18 29 3 29q-7 0 -20 -8l-21 -23l-18 -24q-10 -10 -17 -23l-18 -22l-66 -95l-30 -49l-31 -55l-2 -6v-4zM383 778q-4 -24 12 -35l21 -6q35 0 35 8q0 2 -2 3h-7q-4 0 -4 -3q-37 -4 -43 8.5t-6 18.5q0 8 10 29l21 22q9 9 20.5 16t17.5 11q14 9 26 13.5 l20 7.5t15 5.5t18 6.5l32 6q20 4 31 4q10 0 20.5 -3t15.5 -4q7 -1 14 -13.5t7 -22.5t-4 -27l-12 -22q-13 -25 -23 -33t-15 -14t-12 -11.5t-13 -11.5l-27 -16l-29 -13l-16 -6q-6 0 -14 -4h-7q-10 0 -10 -4q-4 0 -4 -3t2 -3h6q4 0 6 2h7l30 10l62 27l30 18l27 19l25 22l20 23 q8 12 13 24q15 37 -3 62q-21 16 -35 17t-27 1t-32 -3q-65 -11 -90 -22.5t-37 -17.5q-44 -22 -56.5 -34.5t-25.5 -28.5zM522 -215q0 21 6 35t18 21q14 9 40.5 9t36.5 -8t16 -22q8 -19 8 -41v-8h-92q0 -12 8 -21.5t19.5 -9.5t19.5 4q8 8 8 10h37q-17 -43 -59 -43q-66 0 -66 74 zM522 -451h37l21 -96l18 96h37l18 -96l21 96h37l-37 -127l-2 -6h-35l-21 97l-22 -97h-35l-37 129v4zM559 -205h53q-8 23 -14 26t-12 3q-23 0 -27 -29zM641 557h2q23 0 23 -18v-56q0 -34 53 -34q51 0 51 38v58l10 10h2l2 2h9v4h-56v-4h13q18 -6 18 -29v-39q0 -16 -10 -26 l-15 -10h-18q-37 0 -37 30v56q0 12 4 15t17 3h8v4h-76v-4zM657 -152h19v35h35v-35h20v-24h-20v-72q0 -8 2 -10l12 -2l4 2h2v-27h-20q-16 0 -23 4q-12 0 -12 23v82h-19v24zM657 678q8 -23 30 -22q39 2 77 26q18 8 37 25l28 24l17 19q0 2 4 6q0 4 4 4l4 8l19 18l18 25 q13 13 20 25q15 -8 15 -19q0 -2 -8 -10l-19 -21l-16 -22l-15 -23l-6 -20q-2 -4 -2 -10v-9q7 -10 13 -10t22 4l19 13q27 20 33.5 28t13 14.5t8.5 10.5l10 12l4 6q10 10 10 13l15 18l24 35l6 -33l5 -8q-20 -8 -29 -14l-23 -19q-18 -18 -18 -41q4 -12 27 -11q37 2 63 28 q10 6 18 20l11 20q6 12 6 23v18q0 23 -19 45q0 7 -8 15v6q2 2 2 4h-10l-4 -4q-6 -2 -14 -10l-7 -15l-2 -2l-49 -67l-6 -10l-2 -3v-2q-1 0 -16 -20l-19 -23l-24 -22q-12 -12 -29 -12h-2l2 2l8 12l17 22q2 1 18 27l10 19q8 21 7 27.5t-1 12.5l-4 7q0 4 -2 6v26q14 22 6 27.5 t-22 0.5q-35 -12 -35 -38q0 -10 10 -20l-6 -9l-57 -69q-2 0 -6 -4v-2l-2 -2q0 -2 -2 -2l-13 -17l-15 -15q-20 -20 -40 -31t-26.5 -12t-17.5 -5t-17 -2q-11 0 -11 12l8 20l13 21q8 -4 17 -4q26 0 42 9t35 24l18 18q9 9 21 35q0 17 -14 26q-25 8 -43 -4q-38 -9 -68.5 -35 t-42.5 -49q-16 -16 -23 -45v-20zM711 -547h37v-37h-37v37zM723 737l18 25l21 24q10 14 13 15.5t5 5.5l13 10l14 6q10 2 16 0q3 -7 -3.5 -16.5t-10.5 -16t-5 -8.5t-5 -4q-4 -8 -24 -26.5t-32 -18.5t-20 4zM780 -451h33v-20q12 25 37.5 25t38.5 -23q8 21 30 21q29 1 46 -23 q4 -4 4 -21v-92h-33v80q0 27 -22 27t-21 -27v-80h-37v92q0 15 -21.5 15t-21.5 -25v-82h-33v133zM807 532q0 -10 12 -22l15 -6q2 -2 8 -3l24 -7q12 -4 17 -5q6 0 12 -6t6 -12.5t-14 -17.5h-13q-12 0 -18 2l-20 8l-13 12q-10 14 -10 25h-4v-51h4q0 12 14 12q2 0 2 -1t5 -1 l8 -2q21 -8 29.5 -8t16.5 2q23 5 23 10.5t4 9.5v23l-6 8q-6 4 -14 8l-21 8h-12l-2 2l-16 4q-4 2 -6 2q-4 0 -11 6q-4 4 -4 9.5t1 5.5t5 8l9 4l12 2q8 0 16 -4q15 0 29 -14q4 -4 5 -9.5t5 -11.5h4v37h-4q-2 -8 -8 -8l-47 12q-10 0 -23 -4l-14 -10q-6 -10 -6 -17zM809 -152h18 v11q0 37 39 37h19v-27h-11q-12 0 -12 -6v-15h23v-24h-23v-109h-35v109h-18v24zM905 -152h35v-81q0 -25 23 -25q12 0 24 12l4 17v77h33v-133h-33v19q-14 -23 -37 -23q-47 0 -49 49v88zM928 451h119v45q-4 -4 -5 -8q0 -5 -10 -17q-15 -18 -39 -18h-18v49h2q16 0 27 -15 q4 -16 4 -18h2v72h-2v-11q-14 -24 -27 -24h-6v51h20q18 0 25 -2l10 -8l6 -12l6 -17h5v43h-119v-4h4q18 0 18 -18v-66q0 -20 -18 -20h-4v-2zM987 733v10l4 13q17 22 31 30l27 13l2 -13q-2 -4 -2 -10l-2 -12q-7 -14 -15 -23q-16 -12 -28 -12q-6 -7 -17 4zM991 -546q0 31 39 40 l33 4q10 4 10 10q0 16 -20 17l-17 -2q-6 -12 -6 -17h-33q0 14 7 27q15 15 49 21q36 0 53 -23q2 -6 2 -16v-72q0 -10 2 -14q0 -6 6 -7v-6h-37q0 2 -2 4v2q-2 4 -2 11q-19 -19 -37 -19t-25 2t-14 15q-8 6 -8 23zM1026 -547q0 -14 18 -14h7l6 2l12 8q4 4 4 14v19q-6 -6 -12 -6 q-35 -4 -35 -23zM1057 -104h35v-181h-35v181zM1118 -104h33v-181h-33v181zM1120 506q0 -37 29 -47q6 -2 17 -6t32 -4t37 19t16 34q0 21 -16 43q-10 10 -23 12q-12 6 -30.5 6t-28.5 -6q-13 -8 -25 -22q-8 -14 -8 -29zM1126 -451h37l21 -96l18 96h35l20 -96l23 96h35l-37 -127 v-6h-37l-20 97l-21 -97h-37l-37 129v4zM1133 772q0 -10 16 -18q13 0 25 1t32 9l31 16l49 43l17 23l12 20l6 21q2 12 0 18q0 19 -35 23q-21 0 -51 -15l-29 -18q-8 -4 -14 -10t-12 -11l-21 -22l-14 -23q-20 -32 -12 -57zM1157 467q-21 57 6 84q0 2 9.5 6t15.5 4l8 -2l8 -4 l10 -10q2 -4 4.5 -8.5t4.5 -10.5l2 -20q0 -12 -5 -26q-9 -27 -27.5 -27t-21.5 4q-8 0 -14 10zM1159 773q0 14 12 31q24 34 39 52l19 25q6 6 20 22.5t36 16.5q7 0 7 -8q0 -5 -10 -27q-19 -40 -39 -60l-18 -22l-23 -23q-18 -18 -37 -18q-6 6 -6 11zM1241 -152h19v11 q0 37 38 37h17v-27h-8q-10 0 -13 -6v-15h25v-24h-25v-109h-34v109h-19v24zM1268 451h57v2l-20 4q-9 13 -9 24v66l95 -96h4v77q0 29 24 29v4h-55v-4h10q0 -2 4 -2q12 -12 13 -27v-47l-78 80h-43v-4h2q20 0 20 -16v-64q0 -24 -24 -24v-2zM1290 776l6 -2q8 0 21 8l8 11l6 6 q0 2 4 6l64 74l59 57q4 2 12 10l13 8l14 7q2 0 2 -3h-2l-6 -6q-2 -6 -8 -8l-6 -8l-15 -16q-17 -17 -30 -43l-17 -25q-16 -24 -8 -41q4 -8 13 -8t16.5 2t13.5 6t16 9t21 16l24 22l2 2q-2 -2 -2 -8q0 -33 39 -23q20 8 29 15l25 18q12 12 16 17l16 14q-2 -2 -2 -6l-2 -6v-9 q-4 -6 0 -10q4 -14 8 -15t11 -1q5 0 43 20l37 31l20 21q-10 -25 -10 -37v-7q6 -6 10 -6t10 3t9 5l20 13l12 12q13 7 21 17t14 16l21 24q2 2 2 5q-2 2 -6 2q-5 0 -11 -11l-26 -30q-7 -8 -15 -15l-16 -14l-8 -6l-11 -4l-2 -2q-2 0 -4 2h2l9 16q4 8 13 20.5t13 20.5l74 109 q12 12 16 20l62 68q10 12 19 24.5t20 24.5l12 20v11q-2 2 -8 2t-12.5 -2t-9.5 -4.5t-9 -5.5q-20 -10 -45 -35l-21 -23q-8 -8 -16 -20.5t-19 -26.5t-18.5 -26.5t-15.5 -24.5l-53 -90l-9 -19q-2 0 -2 -2l-16 -16q-5 -8 -23 -23l-32 -29l-9 -6l-4 -2l-6 -4h-10l12 23q0 2 1 2 t1 2l2 2q4 8 9.5 15t10.5 16q12 20 21 32l17 25l8 14q4 4 8 13q2 2 3 4t2 2t5 5q7 9 -6 9l-12 -4l-12 -6l-21 -15l-16 -16q0 8 -2 12q0 4 -8 9q-21 3 -44.5 -7t-32.5 -16q-12 -8 -32.5 -25.5t-36.5 -40t-20 -33t-4 -11.5t-3 -1q-53 -53 -71 -53h-4q-1 1 14 25l39 49 q6 8 12 15t10 18l11 20q4 12 2 19q0 12 -8 12q-13 0 -41 -16q-25 -25 -37 -31l-25 -25q-6 -6 -12 -11l-35 -38l64 90q0 2 1 2q5 0 5 15l-6 6l-9 2l-10 -2l-12 -6l-6 -7q-4 -2 -4 -4t-9 -12l-90 -156q-2 -2 -2 -8zM1329 -224q0 54 39 70q8 4 29 4q33 0 49 -16q18 -22 18 -47 q0 -45 -30 -66q-16 -10 -38 -10t-38 10q-12 10 -20.5 25.5t-8.5 29.5zM1331 -451h35v-20q14 25 41 25q45 -3 45 -46v-92h-35v80q0 16 -3 21.5t-19 5.5q-27 0 -27 -31v-76h-37v133zM1364 -218q0 -40 33 -40q31 0 32 40t-32 40t-33 -40zM1425 451h125v49h-2q-4 -4 -4 -8 l-6 -17q-2 -2 -8 -9q-11 -13 -29 -13h-28v86q0 18 20 18h8v4h-76v-4h7q18 0 18 -18v-66q0 -20 -18 -20h-7v-2zM1477 -541h34q0 -18 26 -18t26 10t-15 12l-30 9q-20 7 -28.5 13.5t-8.5 22.5q0 43 53 46q45 0 55 -25l4 -10v-11h-34q0 17 -21.5 17t-21.5 -12q0 -6 12 -9l31 -8 q38 -6 38 -37q0 -45 -57 -45h-12q-13 0 -29 10q-22 13 -22 35zM1489 -152h33v-18q14 20 36.5 20t28.5 -4l17 -14q6 -12 6 -25v-92h-35v80q0 8 -4 21q-6 6 -21 6q-24 0 -24 -31v-76h-37v133zM1542 844l2 4q0 2 10 17q15 22 17 26t10 12l59 76l9 8q17 10 30 10l7 -4l2 -8 q0 -10 -7 -16l-18 -25l-16 -26l-19 -19l-18 -20l-27 -23q-12 -6 -16 -10q-10 -10 -21 -6h-2q-2 2 -2 4zM1544 557h2q20 0 27 -14l35 -45v-25q0 -20 -21 -20h-6v-2h78v2h-8q-21 0 -21 20v27l35 47q8 4 10 6q4 4 17 4v4h-56v-4h6q17 0 17 -10q0 -4 -6 -12l-23 -31l-28 37 q-4 8 -5 8v2q0 6 9 6h10v4h-72v-4zM1624 -547h37v-37h-37v37zM1626 -152h21v35h32v-35h23v-24h-23v-72l2 -10l13 -2l4 2h4v-27h-23q-16 0 -20 4q-10 0 -12 9v96h-21v24zM1686 -520q0 74 59 74q18 0 31 -7q14 -4 20 -18q10 -10 10 -27h-37q0 21 -20 21q-27 0 -29 -37 q0 -33 7.5 -38t19.5 -5q22 0 22 22h37q0 -27 -20 -39t-44 -12q-36 0 -54 35q-2 8 -2 31zM1784 -249q0 21 10 30q12 8 29 12l30 4q12 2 12.5 14t-20.5 12.5t-24 -20.5h-33q4 34 27 43q8 4 14 4h16q41 0 48 -16t8 -20v-86q0 -6 8 -7v-6h-39q-2 0 -2 2v4q0 4 -1 6.5t-1 4.5 q-14 -21 -41 -21q-6 0 -19 4q-4 4 -8 7q-14 8 -14 29zM1819 -248q0 -14 16 -14h10q12 6 17 10q4 8 4 16v17q-6 -6 -15 -6l-16 -4q-16 0 -16 -19zM1823 -518q0 27 16 51q12 12 23 14q8 6 30.5 6.5t49.5 -18.5q4 -4 6 -10t6 -13t4 -28q0 -42 -22.5 -56t-47.5 -14q-39 0 -59 35 q-6 14 -6 33zM1860 -517q0 -40 30 -40q31 0 31 31t-6 40t-25 9q-30 0 -30 -40zM1894 1083l33 45l17 27l30 41l2 2q0 6 4 7t5 -1q0 -6 -12.5 -24.5t-16.5 -20.5l-39 -49l-12 -14q-2 -4 -11 -13zM1917 -152h16v35h37v-35h23v-24h-23v-72l2 -10l10 -2l7 2h4v-27h-23 q-16 0 -22 4q-8 0 -15 23v82h-16v24zM1982 -451h33v-20q14 25 39.5 25t36.5 -23q11 21 32 22t29 -8q13 -6 15 -16q6 -6 6 -21v-92h-35v80q0 27 -21.5 27t-21.5 -27v-80h-35v80q0 10 -2 12q0 15 -18 15q-23 0 -23 -25v-82h-35v133z" />
<glyph unicode="^" horiz-adv-x="407" d="M29 801q114 77 168.5 112t75 48.5t46.5 27.5l56 -188l-109 121z" />
<glyph unicode="_" horiz-adv-x="573" d="M45 -49h471v-21h-471v21z" />
<glyph unicode="`" horiz-adv-x="325" d="M25 897l16 86q91 -75 163 -129.5t85 -65.5z" />
<glyph unicode="a" horiz-adv-x="575" d="M-23 143q32 162 154 309q131 156 280 156h15q87 -6 87 -60q0 -5 -1 -11l18 16q54 37 95 37q17 0 33 -6q38 -15 38 -62q0 -15 -4 -33q0 69 -34 69q-28 0 -78 -47q-94 -87 -193 -267q-73 -132 -73 -189q0 -21 10 -32q78 53 143 108t135 115l-10 -35q-123 -117 -264 -211 q-42 16 -48 60q-3 23 -3 41q0 17 3 31q13 57 23 89q-75 -75 -272 -217l-6 -4q-54 21 -54 92q0 23 6 51zM18 20q84 59 220 170l81 70q72 166 185 270q-19 36 -60 36q-21 0 -48 -9q-63 -22 -146.5 -98.5t-163.5 -220.5q-70 -126 -70 -199q1 -10 2 -19z" />
<glyph unicode="b" horiz-adv-x="471" d="M-20 62q-5 19 -5 42q-1 38 13 86q22 80 72.5 183.5t120 213t151.5 218t167 201.5q186 202 320 258q8 4 14.5 6t15.5 5t15 3q21 0 21 -14q1 -4 1 -8q0 -26 -36 -73q-125 -164 -239.5 -281.5t-170.5 -172.5l-88 -86q33 0 68 -42q35 -43 36 -107v-8q0 -58 -12 -96 q-14 -40 -27.5 -65.5t-21.5 -41.5q104 55 174 125l11 -15q-110 -106 -207 -143q-112 -170 -235 -224q-38 -17 -81 -17h-13q-50 3 -64 53zM10 74q3 -54 34 -54q30 0 87 50q57 51 93 97t46 58q-6 -1 -12 -1q-58 0 -60 103v8q0 99 48 204l-31 -29q-12 -18 -47 -69.5t-72 -116.5 q-86 -151 -87 -237q1 -7 1 -13zM225 338v-9q-1 -39 15 -61q8 -11 22 -11q16 0 39 15q92 153 92 250q0 43 -18 74q-18 35 -44 16.5t-48.5 -63.5t-39 -104.5t-18.5 -106.5zM270 594l199 201q245 250 379 422q12 19 12 22.5t-1 3.5t-1 2h-6q-2 0 -2 -1t-2 -1t-8 -6 q-316 -251 -570 -643z" />
<glyph unicode="c" horiz-adv-x="389" d="M-16 150q18 160 132 308q121 156 270 156h13q51 -4 69 -21q20 -18 20 -33q0 -14 -19 -36q-20 -22 -48 -44.5t-55.5 -42t-44 -28t-14.5 -2t24.5 24.5t42 32.5t38.5 31.5q45 38 45 62q0 17 -22 17q-20 0 -57 -14q-155 -58 -278 -289q-12 -27 -27.5 -57.5t-25.5 -62.5 q-16 -51 -16 -90q0 -19 4 -35q57 40 156.5 121t162 131.5t99.5 85.5v-27q-134 -118 -260 -215q-134 -105 -152 -117q-59 23 -59 113q0 15 2 31z" />
<glyph unicode="d" horiz-adv-x="550" d="M-14 143q18 160 128 303q119 154 264 154h13q41 -2 66 -18q124 215 306 418q179 199 322 260l25 12q8 2 19 2q21 0 21 -22q0 -9 -3 -21q-18 -55 -217 -281q-53 -57 -105.5 -113.5t-107.5 -111.5l-221 -219q-12 -23 -53.5 -84.5t-80.5 -135.5q-64 -123 -63 -199 q0 -41 18 -67l104 82q54 43 109 95l27 22l-6 -33q-92 -85 -144.5 -124t-70.5 -54l-4 -2q-62 19 -62 101q0 41 15 98l-23 -21q-9 -9 -86.5 -71t-134.5 -109q-57 22 -57 108q0 15 2 31zM35 25q113 83 209 172l51 43q36 124 143 313q-14 5 -30 5q-68 0 -172 -100 q-90 -87 -164 -248q-41 -88 -41 -150q0 -19 4 -35zM549 592l194 199q225 234 371 421q12 20 12 27l-2 2h-4q-6 0 -14 -8q-304 -245 -557 -641z" />
<glyph unicode="e" horiz-adv-x="382" d="M-16 145q19 167 130 311q121 156 270 156h13q51 -2 74 -24q16 -16 18 -29v-2l-2 -2l5 -4l-426 -350q-37 -91 -37 -146q0 -17 4 -30q366 257 463 364l2 4h4q2 -2 6 -2h4l12 -2q-150 -150 -479 -381l-4 -4q-59 23 -59 111q0 14 2 30zM84 240l383 313q-13 16 -38 16 q-12 0 -26 -3q-83 -20 -163 -98t-140 -198z" />
<glyph unicode="f" horiz-adv-x="339" d="M-264 -520q-35 20 -35 79q0 90 83 271q127 279 392 655l-24 -4q-20 -4 -21 19q-4 18 19 24l59 8q207 287 312.5 399.5t178.5 178.5q162 145 293 178q10 3 15 3h2q6 -1 9 -1t8 -4q7 -6 7 -16q0 -22 -35 -66q-189 -226 -434 -434l-235 -207l-11 -14l168 24q23 4 23 -16 t-21 -25l-200 -30q-6 -10 -13.5 -19.5t-13.5 -19.5h5q55 0 55 -65q0 -78 -80 -250q-131 -278 -330 -528q-115 -144 -163 -144h-5q-4 0 -8 4zM-262 -514h3q35 0 140 136q163 211 303 494q87 177 92 273v8q0 40 -28 47q-47 -70 -106.5 -158.5t-121 -185t-119 -193.5 t-99.5 -181q-71 -140 -71 -207q0 -20 7 -33zM389 647l207 187q340 313 408 413q2 2 2 6t-2 4l-3 3l-6 -3q-6 0 -8 -6q-236 -166 -469 -440q-69 -82 -129 -164z" />
<glyph unicode="g" horiz-adv-x="483" d="M-485 -370.5q0 61.5 35.5 123t106.5 115.5t177 79q125 39 268 39q46 0 95 -4q45 78 89 156.5t97 156.5l-121 -113l-26 -22q-72 -64 -187 -154l-6 -2q-59 20 -59 110q0 15 2 31q18 164 132 311q121 156 270 156h13q68 -4 89 -46q9 -20 9 -43q0 -27 -12 -58 q29 35 53.5 69.5t39 55t22.5 26t14 6.5h3q6 0 6 -4q0 -5 -7 -14q-86 -130 -148 -263.5t-97 -211.5t-80 -160q210 -35 293 -136q39 -48 39 -100q0 -70 -72 -147v6q0 117 -81 200q-83 85 -208 126q-18 -33 -63.5 -105.5t-135.5 -163.5t-207 -134q-98 -36 -166 -36q-15 0 -28 2 q-76 9 -112.5 48t-36.5 100.5zM-416 -356q6 -45 34 -79t71 -45q19 -5 39 -5q83 0 184 86q127 110 260 342q-68 13 -136.5 13t-137.5 -13q-140 -25 -242 -109q-74 -77 -74 -163q0 -14 2 -27zM37 25q80 57 176 141l71 64q77 73 142 200q33 51 35 89v6q0 33 -23 45q-9 4 -21 4 q-21 0 -51 -12q-47 -21 -102 -74q-109 -103 -188 -276q-43 -91 -43 -153q0 -18 4 -34z" />
<glyph unicode="h" horiz-adv-x="485" d="M-33 18q-7 17 -7 41q0 104 133 340q150 265 371 531q228 273 363 330l25 10q16 4 21 4t14 -4l6 -10q1 -4 1 -8q0 -27 -36 -74q-117 -153 -188 -230q-106 -114 -215 -223l-224 -219q-12 -23 -43.5 -76t-68.5 -119q222 222 332 297q8 6 19 4t19 -10q9 -8 15 -45 q2 -10 2 -21q0 -29 -14 -62q-18 -46 -46 -88t-63 -83t-63 -84q-55 -83 -55 -156q0 -17 3 -34q123 99 197 166l92 88l-9 -23q-5 -12 -9 -24l-56 -52q-116 -107 -213 -178q-47 54 -47 121q0 91 86 209q39 53 76 100t63 86q22 34 22 58q0 4 -1 8q0 4 -2 6q-192 -139 -393 -361 q-100 -176 -107 -215zM287 590l196 201q248 258 373 421q11 18 11 23l-1 6h-4l-6 -2q-146 -110 -302.5 -292.5t-266.5 -356.5z" />
<glyph unicode="i" horiz-adv-x="235" d="M10 27q102 75 205 168l31 28v-28l-130 -111q-89 -73 -102 -80q-36 50 -36 112q0 106 107 244q44 56 81 104q38 48 56 86q9 18 8 33q0 17 -11 29q53 -28 57 -66v-10q0 -34 -22 -73q-25 -45 -69 -97.5t-84 -107.5q-92 -127 -91 -215q-1 -8 0 -16zM324 887l102 88l6 -88 l-102 -90z" />
<glyph unicode="j" horiz-adv-x="223" d="M-815 -371.5q0 -60.5 38 -100.5q47 -50 131 -50q72 0 171 37q123 43 212 134t157 197l43 72q125 -41 207 -126q79 -83 79 -200v-6q71 76 71 145q0 53 -42 102q-84 98 -297 138q82 154 155.5 309.5t159.5 311.5q-144 -144 -397 -596h2l-8 -14q-50 4 -97 4q-144 0 -266 -41 q-106 -25 -176.5 -78t-106.5 -115.5t-36 -123zM-744 -356q-2 15 -2 29q0 87 74 161q102 82 242 108q71 13 141 13q67 0 133 -12q-137 -238 -262 -342q-100 -86 -183 -86q-20 0 -40 5q-43 11 -69.5 45t-33.5 79zM391 893l105 90l6 -90q-66 -56 -105 -88z" />
<glyph unicode="k" horiz-adv-x="425" d="M-4 213q42 158 184 391q130 216 302 405q178 196 315 251l24 10q8 4 19 4q15 0 20 -11q3 -7 3 -16q0 -26 -29 -59q-78 -109 -193 -240q-132 -142 -213 -223l-221 -219q-10 -16 -33.5 -52t-52.5 -83l49 53q136 136 197 186l6 2h2q14 2 28 -10q7 -12 9 -46q0 -3 1 -5 q-1 -31 -17 -65q-18 -36 -43 -63.5t-55 -51t-54 -49.5q-36 -39 -36 -109q0 -18 2 -38q11 -92 54 -152l58 45q44 39 68 76.5t44 68.5q-4 -10 -2 -13.5t0 -11.5q-47 -104 -151 -180l-2 -2q-8 -2 -20.5 -1t-26.5 22.5t-32 64.5t-27 89t-9 88t18 76t53 67.5t68 64.5t56.5 58.5 t23.5 41t-1 14.5t-1 3q-134 -114 -202 -190t-105 -117q-51 -104 -58 -152q-4 -25 -4 -46q0 -59 31 -85q-63 18 -63 105q0 43 16 104zM260 590q47 51 96.5 100t123.5 126q198 208 345 396l11 17v8q0 2 -2 4h-3q-11 0 -14 -8q-302 -244 -557 -643z" />
<glyph unicode="l" horiz-adv-x="266" d="M-2 213q65 245 326 603q155 210 321 348q93 78 178 106q6 4 17 4q22 0 22 -14q1 -3 1 -7q0 -25 -34 -73q-143 -197 -401 -455l-221 -219q-8 -14 -30.5 -48t-49.5 -78t-52.5 -94t-42.5 -100q-21 -59 -21 -102q0 -39 18 -64l105 82q54 43 110 93l39 36l-15 -38 q-171 -153 -225 -189q-61 17 -61 103q0 44 16 106zM260 590q49 51 98.5 100t121.5 126q206 218 345 396q13 13 13 20t-1 7t-1 2h-7q-2 0 -2 -1t-2 -1t-8 -6q-302 -244 -557 -643z" />
<glyph unicode="m" horiz-adv-x="659" d="M25 4q-49 56 -49 123q0 96 102 214q114 132 142 183q18 33 18 60q0 15 -5 28q4 1 8 1q25 0 31 -31q3 -16 3 -33q0 -35 -13 -72q83 75 162 133q9 4 16 4q10 0 18 -7q14 -13 17 -32q1 -10 1 -19q0 -47 -17 -85q120 105 170 139q9 4 16 4q9 0 17 -7q14 -13 18 -32 q1 -9 1 -17q0 -105 -132 -256q-89 -100 -111 -162q-17 -46 -16 -87q0 -15 2 -28q114 84 213 170l55 53q-4 -10 -8 -21.5t-8 -21.5q-16 -14 -51 -46t-74 -65q-99 -84 -123 -90q-43 51 -43 107.5t25.5 113t66.5 110.5t80 101q90 108 90 149q0 6 -2 9q-78 -53 -209 -170 q-31 -51 -72.5 -99.5t-78.5 -97.5q-68 -90 -68 -174q0 -25 6 -49q-43 51 -43 107.5t24.5 113t66.5 110.5t81 101q90 108 90 149q0 6 -2 9q-76 -54 -198 -162q-29 -53 -73 -101t-81 -99q-36 -52 -58 -107q-12 -31 -13 -65q0 -27 8 -56z" />
<glyph unicode="n" horiz-adv-x="503" d="M23 6q-46 55 -46 121q0 96 100 214q111 133 140 185q19 35 19 62q0 14 -5 26q4 1 7 1q11 0 21 -10q13 -13 16 -49v-11q0 -73 -70 -164q16 12 29.5 25.5t51.5 47.5q101 90 191 156q17 10 39 -6q10 -14 13 -48v-10q0 -31 -15 -70q-18 -46 -49 -89t-68 -84t-67 -85 q-60 -86 -60 -163q0 -14 2 -28q138 101 211 170l92 84q-4 -10 -8 -21.5t-8 -21.5q-10 -8 -28.5 -26t-30.5 -28t-43 -38.5t-67 -58.5q-89 -74 -114 -81q-43 51 -43 107.5t26 113t67 109.5t79.5 101t65.5 87t26 54.5t-3 17.5q-69 -50 -166 -135q-141 -121 -236 -221 q-42 -54 -64 -110q-13 -32 -13 -68q1 -27 8 -56z" />
<glyph unicode="o" horiz-adv-x="438" d="M-20 62q-5 20 -5 43q-1 41 15 91q24 78 75.5 164t114 150.5t126.5 92.5q27 12 51 12q33 0 61 -23q44 -51 44 -124q0 -52 -22 -114q-56 -128 -156 -231q-116 -120 -220 -120h-8q-63 3 -76 59zM23 68q5 -51 36 -51q12 0 28 7q74 36 192 193q-6 -1 -12 -1q-57 0 -59 100v9 q0 104 46 199q-70 -66 -150 -218q-82 -155 -82 -226q0 -6 1 -12zM236 327q0 -6 -1 -12q1 -37 15 -57q8 -10 21 -10q15 0 38 14q88 140 88 252q0 37 -17 68q-11 20 -25 20q-8 0 -17 -6q-25 -18 -47.5 -62.5t-37.5 -102.5t-17 -104z" />
<glyph unicode="p" horiz-adv-x="440" d="M-821 -387.5q0 61.5 35.5 123t106.5 115.5t177 79q130 41 270 41q44 0 89 -4l84 146q176 306 243.5 394.5t98.5 100.5q-35 -43 -60.5 -96t-48.5 -94q167 158 244 158q12 0 22 -4q35 -14 35 -68q0 -41 -21 -106q-50 -153 -156 -270q-121 -134 -239 -134h-12q-37 2 -59 16 l-13 -20q-6 -16 -16 -35q208 -39 292 -137q40 -46 40 -98q0 -70 -74 -150v6q0 117 -80 201q-82 86 -207 127l-43 -74q-68 -106 -157.5 -197.5t-210.5 -132.5q-96 -36 -164 -36q-13 0 -25 2q-75 8 -113 46.5t-38 100zM-750 -371q7 -45 33.5 -78.5t69.5 -44.5q19 -5 39 -5 q82 0 184 85q129 109 262 340q-68 13 -137 13q-68 0 -137 -13q-139 -24 -242 -108q-74 -71 -74 -158q0 -15 2 -31zM-6 41q14 -4 29 -4q54 0 125 51q103 73 184.5 229t87.5 204q1 7 1 12q0 26 -20 26q-5 0 -13 -2q-58 -18 -234 -178l-17 -31q-41 -80 -72.5 -154.5 t-70.5 -152.5z" />
<glyph unicode="q" horiz-adv-x="555" d="M-72 -645l629 864l16 -6l-636 -877l-7 7q-49 25 -49 99q0 80 57 217q105 256 308 517q-185 -158 -203 -164l-2 2h-2l2 -2q-57 20 -57 108q0 15 2 32q18 160 128 302q120 152 264 152h13q49 -2 73 -23q16 -14 16 -39q0 -11 -3 -24q-20 43 -64 43q-19 0 -41 -7 q-70 -23 -118 -72q-111 -114 -182 -268q-41 -88 -41 -150q0 -19 4 -35q77 56 209 172l75 65q217 259 377 324l25 12q8 2 20 2q-119 -110 -277.5 -299.5t-235 -291t-144.5 -202t-112 -189.5q-62 -125 -62 -201q0 -41 18 -68z" />
<glyph unicode="r" horiz-adv-x="358" d="M-109 82q15 15 63 80t82 111t63.5 87t52 71t28.5 40q-20 39 -20 76q0 23 8 45q20 58 59 94.5t78 43.5q6 1 12 1q29 0 29 -32q0 -57 -131 -218q28 -29 53 -29q6 0 12 2q30 10 52 40t32 72q5 23 5 42q0 16 -4 29q4 -2 8 -10q39 -43 39 -102q0 -50 -27 -111 q-25 -58 -65.5 -114t-78.5 -108q-90 -121 -87 -157l4 -4q70 58 211 196l39 41l-5 -30l-16 -19q-131 -131 -213 -201q-6 -6 -16 -6t-23 6q-10 10 -14 40q-1 5 -1 11q0 28 16 69q20 50 50.5 99.5t66 96.5t64.5 88q-22 -15 -45 -15q-12 -1 -24 3q-36 12 -55 43 q-72 -96 -128 -174q-128 -176 -149 -197h-25zM205 498q121 136 121 187q0 6 -2 11q-4 9 -14 9q-7 0 -18 -4q-26 -11 -50 -39q-46 -53 -45 -111q-1 -26 8 -53z" />
<glyph unicode="s" horiz-adv-x="333" d="M-79 32q-7 13 -7 29q0 17 8 38q24 56 109.5 161t154 177.5t142.5 150.5q18 39 54 93.5t56 58.5h4q17 0 17 -38l-86 -94q-27 -72 -44 -140.5t-43 -154.5t-63 -157q-81 -154 -208 -154h-11q-68 4 -83 30zM-61 49q9 -27 28 -26q38 0 115 105q73 99 107.5 168.5t57.5 122 t46 101.5q-57 -63 -115.5 -125.5t-97.5 -110t-63.5 -80t-44.5 -62.5q-36 -54 -35 -81q-1 -7 2 -12z" />
<glyph unicode="t" horiz-adv-x="268" d="M20 129q-8 -27 -8 -49q0 -35 19 -60l59 46q33 26 69 57q72 62 132 110q-4 -10 -9.5 -20t-9.5 -20q-16 -12 -47.5 -40t-65.5 -57q-90 -79 -114 -92q-83 14 -83 91q0 78 86 221q56 93 151 225l-101 -17q-35 -6 -35 1t17 17q40 24 70 31l81 13l76 104q31 47 43 82q4 12 4 23 q0 22 -16 41q51 -19 58 -86q1 -10 1 -19q0 -49 -26 -92q-6 -12 -29 -37q59 6 91 6q41 0 41 -10q0 -7 -21 -18l-146 -23q-243 -282 -287 -428z" />
<glyph unicode="u" d="M-104 61q-1 8 -1 17q0 30 16 68q21 48 58 92.5t80 86.5t77 87q56 74 56 148q0 27 -8 54q42 -48 42 -107q0 -96 -108 -223q-45 -53 -86.5 -101t-69.5 -87q-23 -32 -23 -55q0 -5 1 -10q0 -6 2 -6q130 94 306 271q49 50 86 93q59 82 59 161q0 32 -10 64q52 -61 52 -132 q0 -86 -76 -187q-38 -51 -73.5 -98t-62.5 -89q-24 -37 -24 -69q0 -5 1 -10q109 84 195 168q77 70 152 149l-15 -39q0 -2 -4 -6l-112 -117q-121 -112 -205 -176l-4 -4v2q-18 -4 -29 10q-10 8 -17 46q-2 10 -2 21q0 64 64 161l-59 -58q-132 -123 -205 -178q-5 -4 -12 -4 q-3 0 -7 1q-12 3 -20 11t-14 45z" />
<glyph unicode="v" horiz-adv-x="452" d="M-49 41q-2 14 -2 28q0 79 61 168q31 44 67 86t65 87q47 74 47 143q0 30 -9 59q49 -55 49 -124q0 -91 -85 -206q-40 -55 -76 -102q-38 -48 -64 -86q-23 -33 -23 -58q0 -4 1 -7q2 -8 34.5 17.5t79.5 73.5q117 120 203 242q-15 29 -15 85q0 51 20 93q22 44 48 62 q18 13 36 13q8 -1 16 -3q24 -8 32 -42q3 -14 3 -30q0 -80 -83 -212q13 -6 29 -6q36 0 89 32q56 34 101 84l-2 -20q-107 -110 -190 -110q-18 0 -35 5q-87 -126 -224 -231q-56 -42 -102 -62q-27 -12 -42 -12q-10 0 -16 5q-13 13 -13 28zM313 408q0 -9 4 -19q94 143 94 189 q0 17 -11 17q-2 0 -6 -1q-16 -4 -34 -26q-47 -58 -47 -129v-11v-20z" />
<glyph unicode="w" horiz-adv-x="704" d="M-47 60q-2 10 -2 22q0 28 11 62q15 48 44 92.5t62.5 86.5t59.5 87q39 68 39 133q0 35 -11 69q54 -56 54 -132q0 -41 -16 -88q-20 -56 -57 -110.5t-71 -101.5t-58 -86q-20 -31 -19 -54q0 -6 1 -11q0 -6 4 -6q81 61 149 128t91.5 90t46.5 48q27 37 54 72.5t45 75.5 q25 53 25 105q0 36 -12 70q55 -59 55 -135q0 -87 -72 -195q-36 -55 -71 -102q-78 -105 -78 -146v-5q2 -6 4 -6q106 80 288 266q46 47 81 88q34 53 52 109q8 24 8 52q0 35 -13 74q56 -58 55 -134q0 -87 -72 -196q-36 -55 -71 -102q-78 -105 -79 -146q0 -3 1 -5q2 -6 4 -6 q85 65 195 172l33 32v-30l-119 -113q-89 -82 -107 -82h-1q-15 4 -22 11t-15 28q-4 20 -4 41q0 76 53 154l-54 -52q-122 -122 -196 -178q-5 -4 -12 -4q-4 0 -8 1q-12 3 -18.5 10t-14.5 28q-3 19 -3 39q0 58 31 119l-16 -15q-104 -104 -197 -178q-7 -5 -15 -5q-9 0 -19 8 q-18 15 -23 51z" />
<glyph unicode="x" horiz-adv-x="483" d="M-16 199q115 141 314 323q58 53 101 88q8 6 15 6q8 0 18 -10q16 -16 24 -41q6 -19 5 -40q0 -35 -15 -74l142 163h28q-10 -14 -32.5 -39.5t-51.5 -58.5q-73 -85 -122 -139q-25 -41 -55.5 -82t-52.5 -83q-37 -69 -38 -131q0 -28 8 -54q120 97 189 170l37 36v-30 l-57.5 -57.5t-59.5 -58.5q-79 -76 -102 -83q-35 29 -49 80q-11 40 -12 73q0 9 1 17q-94 -103 -170 -170h-37q32 28 79.5 75.5t78.5 78t57 57.5q22 79 118 217q33 49 57 89q19 32 19 55q0 6 -1 12q0 6 -4 6q-82 -64 -174 -160t-143.5 -150.5t-98.5 -99.5z" />
<glyph unicode="y" d="M-520 -337q18 75 82 140q6 8 14 15q0 4 4 4q61 61 166 94q131 47 288 47q55 0 113 -6l93 166q43 76 106 170l-117 -109q-147 -132 -219 -180q-37 49 -37 110q0 105 108 246q44 58 81 106t56 86q10 18 10 33q0 16 -11 27q51 -29 55 -66q1 -4 1 -10q0 -32 -23 -71 q-25 -45 -69 -97.5t-84 -107.5q-92 -127 -92 -215q0 -8 1 -16q253 185 407 375q42 51 79.5 101t76.5 101q-151 -279 -239 -461l-68 -141q-8 -14 -14 -28.5t-15 -30.5q207 -40 290 -137q41 -49 41 -102q0 -68 -66 -142q0 168 -178 275q-54 32 -115 55q-88 -154 -151 -221 q-118 -128 -244 -175q-92 -35 -160 -35q-24 0 -45 5q-80 16 -111 68q-20 33 -20 76q0 24 6 51zM-456 -326q-1 -10 -1 -20q0 -43 19 -79q22 -44 66 -63q28 -12 59 -12q83 0 186 86q84 72 142.5 155t109.5 173q-86 18 -166 18q-139 0 -262 -55q-142 -78 -153 -203z" />
<glyph unicode="z" horiz-adv-x="399" d="M-342 -373q0 117 84 228q26 42 90 106q69 64 119.5 104.5t118.5 88.5l32 22q30 18 80 53q-27 35 -50 41t-62 19q-26 0 4 20q144 62 233 158q43 45 43 69q0 16 -18 23q-17 7 -39 7q-28 0 -62 -12q-124 -45 -156 -95q-9 -15 1 -15h4q16 -4 29.5 5.5t19.5 5.5q2 -4 -2 -9 q-27 -18 -43 -16t-18 8q-6 2 -6.5 13.5t14.5 25.5q45 56 151 103q67 29 112 29q32 0 54 -15q19 -12 19 -39q0 -25 -32 -63t-75 -76q-62 -53 -153 -107q27 -10 38 -23.5t31 -31.5l139 90q166 110 210 110q13 0 16 -10q-127 -56 -192 -99q-20 -12 -73 -48.5t-61 -41.5 q-13 -8 -25 -15q21 -21 43 -70q13 -44 13 -84v-10q-2 -44 -19.5 -105t-39.5 -104q-60 -114 -103 -161.5t-67 -71.5q-47 -47 -97 -85q-63 -41 -104 -58t-86 -17q-115 0 -115 153zM-326 -387.5q0 -122.5 97 -122.5q89 0 205 122q93 97 152 211q89 173 89 286q0 58 -24 104 q-16 -12 -36 -24.5t-38 -24.5l-29 -21q-35 -23 -65.5 -46t-61.5 -47q-46 -35 -107 -90.5t-100 -109.5q-82 -115 -82 -237.5z" />
<glyph unicode="{" horiz-adv-x="462" d="M8 379q114 0 150 98q16 45 21 101.5t10.5 116t15.5 115.5t39 101q62 99 219 99q-113 0 -153 -99q-24 -58 -37 -167t-24 -165.5t-38 -101.5q-59 -98 -203 -98zM8 379q202 0 241 -199q11 -57 18 -116.5t15.5 -116t27.5 -101.5q40 -98 153 -98q-223 0 -258 200 q-11 61 -21 174.5t-26 158.5q-36 98 -150 98z" />
<glyph unicode="|" horiz-adv-x="219" d="M86 1110l23 18l10 -1517l-8 8q-11 4 -11 -4q-2 -4 -3 58.5t-3 166.5q-4 210 -5 528t-3 742z" />
<glyph unicode="}" horiz-adv-x="462" d="M0 -252q113 0 154 98q21 51 35 164t25 169.5t38 101.5q59 98 203 98q-114 0 -149 -98q-17 -45 -22 -101.5t-10.5 -116t-15.5 -116t-39 -101.5q-63 -98 -219 -98zM0 1010q117 0 171 -47.5t76.5 -117t25.5 -151.5t15.5 -151.5t46.5 -116.5t120 -47q-202 0 -241 199 q-11 57 -18.5 116.5t-15.5 115.5t-26 101q-41 99 -154 99z" />
<glyph unicode="~" horiz-adv-x="468" d="M51 219q55 222 187 133q85 -58 118 -59.5t50 41.5q-23 -59 -51.5 -76.5t-62.5 -13.5t-69 20.5t-67.5 23.5t-59.5 -5.5t-45 -63.5z" />
<glyph unicode="&#xa1;" horiz-adv-x="661" d="M-86 -319q180 301 270 455.5t131 223.5q94 161 125 220q-16 -35 -42.5 -90.5t-57.5 -123.5q-81 -176 -145 -318t-152 -335zM440 580q23 49 23 45t-23 -45zM575 956l103 91l6 -91l-102 -88z" />
<glyph unicode="&#xa2;" horiz-adv-x="389" d="M-139 -328q0 2 15 29l40 72q25 45 57.5 105.5t71.5 129.5l-4 -2q-68 27 -57 144q18 156 126 298q119 158 269 166q79 145 103 187.5t42 75.5l25 14l-152 -277h2q51 -4 69.5 -21t19.5 -31.5t-19 -37t-48 -45t-55.5 -42t-44 -28t-14.5 -2t24.5 24.5t42 32.5t38.5 31.5 q48 40 45 65q-4 33 -92 -6l-261 -475q39 31 87.5 68.5t96.5 77.5t92 76t73 63v-27q-150 -129 -373 -305l-203 -369q-2 4 -8 10t-8 -2zM35 27q6 4 14 10t19 14l272 492q-131 -67 -240 -271q-12 -27 -27.5 -57.5t-25.5 -62.5q-23 -76 -12 -125z" />
<glyph unicode="&#xa3;" horiz-adv-x="2299" d="M135 -451h37l21 -96l18 96h37l18 -96l23 96h35l-37 -127v-6h-37l-21 97l-20 -97h-37l-37 129v4zM205 379v579l315 68l-12 43l47 14l-10 47l49 11l-6 51l47 4v47h43l4 43l47 -6l8 47l51 -8l13 47l45 -12l18 43l47 -19l25 45l43 -22l25 41l43 -29l30 39l39 -31l33 33 l31 -29l30 27l31 -35l41 27l27 -43l45 24l22 -41l43 19l21 -47l49 14l14 -45l45 10l11 -49l51 4l2 -30l473 102v-580l-217 -47l4 -4l-27 -31l27 -32l-37 -31l27 -41l-43 -27l26 -43l-43 -24l19 -43l-47 -21l16 -49l-45 -14l8 -45l-49 -11l4 -51l-47 -4v-47h-41l-6 -43l-45 4 l-10 -45l-50 8l-14 -47l-45 15l-16 -48l-50 21l-22 -45l-43 22l-27 -41l-43 27l-28 -37l-37 31l-35 -33l-31 29l-33 -29l-28 37l-41 -27l-29 43l-43 -24l-22 41l-45 -19l-21 47l-47 -14l-14 45l-47 -10l-11 49l-49 -4l-6 47h-47v43l-41 4l4 47l-47 8l10 50l-49 14l14 45 l-32 12zM330 -451h35l22 -96l19 96h34l21 -96l20 96h37l-37 -127l-2 -6h-35l-22 97l-21 -97h-36l-35 129v4zM334 -212q0 27 4 47.5t13 30.5q29 34 71 34h6q17 0 25 -4q26 -15 33 -25q14 -20 14 -31h-39q0 12 -17 23q-10 6 -18 6t-12 -2h-8l-17 -12q-16 -16 -16 -43t4 -41 t13 -19q11 -5 26 -10h6q14 0 20 6q10 0 17.5 13.5t7.5 19.5h-43v33h76v-99h-25l-4 23q-11 -19 -22 -21t-15 -6l-22 -2q-18 0 -32 7.5t-22 19.5q-24 24 -24 52zM334 543q0 -2 2 -4h10l10 6l13 12l8 12l12 13q2 4 10 12l74 102q6 10 12.5 17.5t10.5 17.5l24 37q6 10 12.5 18.5 t10.5 18.5q6 10 11 18q18 29 3 29q-7 0 -20 -8l-21 -23l-18 -24q-10 -10 -17 -23l-18 -22l-66 -95l-30 -49l-31 -55l-2 -6v-4zM383 778q-4 -24 12 -35l21 -6q35 0 35 8q0 2 -2 3h-7q-4 0 -4 -3q-37 -4 -43 8.5t-6 18.5q0 8 10 29l21 22q9 9 20.5 16t17.5 11q14 9 26 13.5 l20 7.5t15 5.5t18 6.5l32 6q20 4 31 4q10 0 20.5 -3t15.5 -4q7 -1 14 -13.5t7 -22.5t-4 -27l-12 -22q-13 -25 -23 -33t-15 -14t-12 -11.5t-13 -11.5l-27 -16l-29 -13l-16 -6q-6 0 -14 -4h-7q-10 0 -10 -4q-4 0 -4 -3t2 -3h6q4 0 6 2h7l30 10l62 27l30 18l27 19l25 22l20 23 q8 12 13 24q15 37 -3 62q-21 16 -35 17t-27 1t-32 -3q-65 -11 -90 -22.5t-37 -17.5q-44 -22 -56.5 -34.5t-25.5 -28.5zM522 -215q0 21 6 35t18 21q14 9 40.5 9t36.5 -8t16 -22q8 -19 8 -41v-8h-92q0 -12 8 -21.5t19.5 -9.5t19.5 4q8 8 8 10h37q-17 -43 -59 -43q-66 0 -66 74 zM522 -451h37l21 -96l18 96h37l18 -96l21 96h37l-37 -127l-2 -6h-35l-21 97l-22 -97h-35l-37 129v4zM559 -205h53q-8 23 -14 26t-12 3q-23 0 -27 -29zM641 557h2q23 0 23 -18v-56q0 -34 53 -34q51 0 51 38v58l10 10h2l2 2h9v4h-56v-4h13q18 -6 18 -29v-39q0 -16 -10 -26 l-15 -10h-18q-37 0 -37 30v56q0 12 4 15t17 3h8v4h-76v-4zM657 -152h19v35h35v-35h20v-24h-20v-72q0 -8 2 -10l12 -2l4 2h2v-27h-20q-16 0 -23 4q-12 0 -12 23v82h-19v24zM657 678q8 -23 30 -22q39 2 77 26q18 8 37 25l28 24l17 19q0 2 4 6q0 4 4 4l4 8l19 18l18 25 q13 13 20 25q15 -8 15 -19q0 -2 -8 -10l-19 -21l-16 -22l-15 -23l-6 -20q-2 -4 -2 -10v-9q7 -10 13 -10t22 4l19 13q27 20 33.5 28t13 14.5t8.5 10.5l10 12l4 6q10 10 10 13l15 18l24 35l6 -33l5 -8q-20 -8 -29 -14l-23 -19q-18 -18 -18 -41q4 -12 27 -11q37 2 63 28 q10 6 18 20l11 20q6 12 6 23v18q0 23 -19 45q0 7 -8 15v6q2 2 2 4h-10l-4 -4q-6 -2 -14 -10l-7 -15l-2 -2l-49 -67l-6 -10l-2 -3v-2q-1 0 -16 -20l-19 -23l-24 -22q-12 -12 -29 -12h-2l2 2l8 12l17 22q2 1 18 27l10 19q8 21 7 27.5t-1 12.5l-4 7q0 4 -2 6v26q14 22 6 27.5 t-22 0.5q-35 -12 -35 -38q0 -10 10 -20l-6 -9l-57 -69q-2 0 -6 -4v-2l-2 -2q0 -2 -2 -2l-13 -17l-15 -15q-20 -20 -40 -31t-26.5 -12t-17.5 -5t-17 -2q-11 0 -11 12l8 20l13 21q8 -4 17 -4q26 0 42 9t35 24l18 18q9 9 21 35q0 17 -14 26q-25 8 -43 -4q-38 -9 -68.5 -35 t-42.5 -49q-16 -16 -23 -45v-20zM711 -547h37v-37h-37v37zM723 737l18 25l21 24q10 14 13 15.5t5 5.5l13 10l14 6q10 2 16 0q3 -7 -3.5 -16.5t-10.5 -16t-5 -8.5t-5 -4q-4 -8 -24 -26.5t-32 -18.5t-20 4zM780 -451h33v-20q12 25 37.5 25t38.5 -23q8 21 30 21q29 1 46 -23 q4 -4 4 -21v-92h-33v80q0 27 -22 27t-21 -27v-80h-37v92q0 15 -21.5 15t-21.5 -25v-82h-33v133zM807 532q0 -10 12 -22l15 -6q2 -2 8 -3l24 -7q12 -4 17 -5q6 0 12 -6t6 -12.5t-14 -17.5h-13q-12 0 -18 2l-20 8l-13 12q-10 14 -10 25h-4v-51h4q0 12 14 12q2 0 2 -1t5 -1 l8 -2q21 -8 29.5 -8t16.5 2q23 5 23 10.5t4 9.5v23l-6 8q-6 4 -14 8l-21 8h-12l-2 2l-16 4q-4 2 -6 2q-4 0 -11 6q-4 4 -4 9.5t1 5.5t5 8l9 4l12 2q8 0 16 -4q15 0 29 -14q4 -4 5 -9.5t5 -11.5h4v37h-4q-2 -8 -8 -8l-47 12q-10 0 -23 -4l-14 -10q-6 -10 -6 -17zM809 -152h18 v11q0 37 39 37h19v-27h-11q-12 0 -12 -6v-15h23v-24h-23v-109h-35v109h-18v24zM905 -152h35v-81q0 -25 23 -25q12 0 24 12l4 17v77h33v-133h-33v19q-14 -23 -37 -23q-47 0 -49 49v88zM928 451h119v45q-4 -4 -5 -8q0 -5 -10 -17q-15 -18 -39 -18h-18v49h2q16 0 27 -15 q4 -16 4 -18h2v72h-2v-11q-14 -24 -27 -24h-6v51h20q18 0 25 -2l10 -8l6 -12l6 -17h5v43h-119v-4h4q18 0 18 -18v-66q0 -20 -18 -20h-4v-2zM987 733v10l4 13q17 22 31 30l27 13l2 -13q-2 -4 -2 -10l-2 -12q-7 -14 -15 -23q-16 -12 -28 -12q-6 -7 -17 4zM991 -546q0 31 39 40 l33 4q10 4 10 10q0 16 -20 17l-17 -2q-6 -12 -6 -17h-33q0 14 7 27q15 15 49 21q36 0 53 -23q2 -6 2 -16v-72q0 -10 2 -14q0 -6 6 -7v-6h-37q0 2 -2 4v2q-2 4 -2 11q-19 -19 -37 -19t-25 2t-14 15q-8 6 -8 23zM1026 -547q0 -14 18 -14h7l6 2l12 8q4 4 4 14v19q-6 -6 -12 -6 q-35 -4 -35 -23zM1057 -104h35v-181h-35v181zM1118 -104h33v-181h-33v181zM1120 506q0 -37 29 -47q6 -2 17 -6t32 -4t37 19t16 34q0 21 -16 43q-10 10 -23 12q-12 6 -30.5 6t-28.5 -6q-13 -8 -25 -22q-8 -14 -8 -29zM1126 -451h37l21 -96l18 96h35l20 -96l23 96h35l-37 -127 v-6h-37l-20 97l-21 -97h-37l-37 129v4zM1133 772q0 -10 16 -18q13 0 25 1t32 9l31 16l49 43l17 23l12 20l6 21q2 12 0 18q0 19 -35 23q-21 0 -51 -15l-29 -18q-8 -4 -14 -10t-12 -11l-21 -22l-14 -23q-20 -32 -12 -57zM1157 467q-21 57 6 84q0 2 9.5 6t15.5 4l8 -2l8 -4 l10 -10q2 -4 4.5 -8.5t4.5 -10.5l2 -20q0 -12 -5 -26q-9 -27 -27.5 -27t-21.5 4q-8 0 -14 10zM1159 773q0 14 12 31q24 34 39 52l19 25q6 6 20 22.5t36 16.5q7 0 7 -8q0 -5 -10 -27q-19 -40 -39 -60l-18 -22l-23 -23q-18 -18 -37 -18q-6 6 -6 11zM1241 -152h19v11 q0 37 38 37h17v-27h-8q-10 0 -13 -6v-15h25v-24h-25v-109h-34v109h-19v24zM1268 451h57v2l-20 4q-9 13 -9 24v66l95 -96h4v77q0 29 24 29v4h-55v-4h10q0 -2 4 -2q12 -12 13 -27v-47l-78 80h-43v-4h2q20 0 20 -16v-64q0 -24 -24 -24v-2zM1290 776l6 -2q8 0 21 8l8 11l6 6 q0 2 4 6l64 74l59 57q4 2 12 10l13 8l14 7q2 0 2 -3h-2l-6 -6q-2 -6 -8 -8l-6 -8l-15 -16q-17 -17 -30 -43l-17 -25q-16 -24 -8 -41q4 -8 13 -8t16.5 2t13.5 6t16 9t21 16l24 22l2 2q-2 -2 -2 -8q0 -33 39 -23q20 8 29 15l25 18q12 12 16 17l16 14q-2 -2 -2 -6l-2 -6v-9 q-4 -6 0 -10q4 -14 8 -15t11 -1q5 0 43 20l37 31l20 21q-10 -25 -10 -37v-7q6 -6 10 -6t10 3t9 5l20 13l12 12q13 7 21 17t14 16l21 24q2 2 2 5q-2 2 -6 2q-5 0 -11 -11l-26 -30q-7 -8 -15 -15l-16 -14l-8 -6l-11 -4l-2 -2q-2 0 -4 2h2l9 16q4 8 13 20.5t13 20.5l74 109 q12 12 16 20l62 68q10 12 19 24.5t20 24.5l12 20v11q-2 2 -8 2t-12.5 -2t-9.5 -4.5t-9 -5.5q-20 -10 -45 -35l-21 -23q-8 -8 -16 -20.5t-19 -26.5t-18.5 -26.5t-15.5 -24.5l-53 -90l-9 -19q-2 0 -2 -2l-16 -16q-5 -8 -23 -23l-32 -29l-9 -6l-4 -2l-6 -4h-10l12 23q0 2 1 2 t1 2l2 2q4 8 9.5 15t10.5 16q12 20 21 32l17 25l8 14q4 4 8 13q2 2 3 4t2 2t5 5q7 9 -6 9l-12 -4l-12 -6l-21 -15l-16 -16q0 8 -2 12q0 4 -8 9q-21 3 -44.5 -7t-32.5 -16q-12 -8 -32.5 -25.5t-36.5 -40t-20 -33t-4 -11.5t-3 -1q-53 -53 -71 -53h-4q-1 1 14 25l39 49 q6 8 12 15t10 18l11 20q4 12 2 19q0 12 -8 12q-13 0 -41 -16q-25 -25 -37 -31l-25 -25q-6 -6 -12 -11l-35 -38l64 90q0 2 1 2q5 0 5 15l-6 6l-9 2l-10 -2l-12 -6l-6 -7q-4 -2 -4 -4t-9 -12l-90 -156q-2 -2 -2 -8zM1329 -224q0 54 39 70q8 4 29 4q33 0 49 -16q18 -22 18 -47 q0 -45 -30 -66q-16 -10 -38 -10t-38 10q-12 10 -20.5 25.5t-8.5 29.5zM1331 -451h35v-20q14 25 41 25q45 -3 45 -46v-92h-35v80q0 16 -3 21.5t-19 5.5q-27 0 -27 -31v-76h-37v133zM1364 -218q0 -40 33 -40q31 0 32 40t-32 40t-33 -40zM1425 451h125v49h-2q-4 -4 -4 -8 l-6 -17q-2 -2 -8 -9q-11 -13 -29 -13h-28v86q0 18 20 18h8v4h-76v-4h7q18 0 18 -18v-66q0 -20 -18 -20h-7v-2zM1477 -541h34q0 -18 26 -18t26 10t-15 12l-30 9q-20 7 -28.5 13.5t-8.5 22.5q0 43 53 46q45 0 55 -25l4 -10v-11h-34q0 17 -21.5 17t-21.5 -12q0 -6 12 -9l31 -8 q38 -6 38 -37q0 -45 -57 -45h-12q-13 0 -29 10q-22 13 -22 35zM1489 -152h33v-18q14 20 36.5 20t28.5 -4l17 -14q6 -12 6 -25v-92h-35v80q0 8 -4 21q-6 6 -21 6q-24 0 -24 -31v-76h-37v133zM1542 844l2 4q0 2 10 17q15 22 17 26t10 12l59 76l9 8q17 10 30 10l7 -4l2 -8 q0 -10 -7 -16l-18 -25l-16 -26l-19 -19l-18 -20l-27 -23q-12 -6 -16 -10q-10 -10 -21 -6h-2q-2 2 -2 4zM1544 557h2q20 0 27 -14l35 -45v-25q0 -20 -21 -20h-6v-2h78v2h-8q-21 0 -21 20v27l35 47q8 4 10 6q4 4 17 4v4h-56v-4h6q17 0 17 -10q0 -4 -6 -12l-23 -31l-28 37 q-4 8 -5 8v2q0 6 9 6h10v4h-72v-4zM1624 -547h37v-37h-37v37zM1626 -152h21v35h32v-35h23v-24h-23v-72l2 -10l13 -2l4 2h4v-27h-23q-16 0 -20 4q-10 0 -12 9v96h-21v24zM1686 -520q0 74 59 74q18 0 31 -7q14 -4 20 -18q10 -10 10 -27h-37q0 21 -20 21q-27 0 -29 -37 q0 -33 7.5 -38t19.5 -5q22 0 22 22h37q0 -27 -20 -39t-44 -12q-36 0 -54 35q-2 8 -2 31zM1784 -249q0 21 10 30q12 8 29 12l30 4q12 2 12.5 14t-20.5 12.5t-24 -20.5h-33q4 34 27 43q8 4 14 4h16q41 0 48 -16t8 -20v-86q0 -6 8 -7v-6h-39q-2 0 -2 2v4q0 4 -1 6.5t-1 4.5 q-14 -21 -41 -21q-6 0 -19 4q-4 4 -8 7q-14 8 -14 29zM1819 -248q0 -14 16 -14h10q12 6 17 10q4 8 4 16v17q-6 -6 -15 -6l-16 -4q-16 0 -16 -19zM1823 -518q0 27 16 51q12 12 23 14q8 6 30.5 6.5t49.5 -18.5q4 -4 6 -10t6 -13t4 -28q0 -42 -22.5 -56t-47.5 -14q-39 0 -59 35 q-6 14 -6 33zM1860 -517q0 -40 30 -40q31 0 31 31t-6 40t-25 9q-30 0 -30 -40zM1894 1083l33 45l17 27l30 41l2 2q0 6 4 7t5 -1q0 -6 -12.5 -24.5t-16.5 -20.5l-39 -49l-12 -14q-2 -4 -11 -13zM1917 -152h16v35h37v-35h23v-24h-23v-72l2 -10l10 -2l7 2h4v-27h-23 q-16 0 -22 4q-8 0 -15 23v82h-16v24zM1982 -451h33v-20q14 25 39.5 25t36.5 -23q11 21 32 22t29 -8q13 -6 15 -16q6 -6 6 -21v-92h-35v80q0 27 -21.5 27t-21.5 -27v-80h-35v80q0 10 -2 12q0 15 -18 15q-23 0 -23 -25v-82h-35v133z" />
<glyph unicode="&#xa4;" horiz-adv-x="528" d="M98 141q42 48 60 66q-31 37 -31 86t33 86l-54 59l29 25l49 -62q35 20 77 20.5t77 -28.5l49 62l29 -25l-23 -22q-10 -10 -18 -20.5t-15 -18.5q25 -35 25 -80t-33 -82q6 -8 14 -17l42 -40l-29 -25l-49 61q-33 -23 -76 -22.5t-72 20.5l-55 -67zM156 293q0 -41 29.5 -70.5 t70.5 -29.5t70.5 29.5t29.5 70.5t-29.5 70.5t-70.5 29.5t-70.5 -29.5t-29.5 -70.5z" />
<glyph unicode="&#xa5;" horiz-adv-x="1447" d="M24.5 -259q-8.5 69 17.5 138.5t69 116.5t94 60.5t92 -33.5q-121 -16 -199 -121q-76 -102 -44 -203q35 -111 200 -133h2q-23 133 56 298q78 162 193 240q129 86 220 9q41 -39 41 -110t-33 -140.5t-75 -122.5t-99 -95q-128 -94 -280 -98q2 -2 2 -8q25 -119 107 -126 q108 -9 290 186q118 135 293 434q-53 10 -98 5t-74 -50q39 86 94 103.5t115 4.5l30 56q-55 10 -102 7t-76 -50q39 88 96.5 104t116.5 2q82 146 199 330q-85 -62 -227 -144t-221 -129t-160 -106q-121 263 101 506q58 63 110.5 121.5t85 114t20.5 114.5q-34 75 -152 65h-2 q12 -93 -51 -219q-59 -119 -151 -194q-100 -81 -164 -39q-33 18 -30 68.5t29.5 103.5t59.5 96t77 82q98 87 212 111v4q-22 105 -127 76q-89 -25 -187 -114q-96 -87 -100 -130l-22 10q21 60 123 148q107 91 196 106q109 19 131 -90v-4q0 -2 2 -2h4q94 6 138 -37l4 -2 q112 -112 24 -263q-37 -63 -94 -128.5t-110.5 -138t-89 -152.5t-25.5 -172q111 76 201 130t171 105q196 124 328 250q107 150 226 246t239 123q-141 -51 -327 -325q-82 -122 -166 -267t-170 -289q49 -16 90 -19t65 32q-35 -53 -84 -62.5t-102 -1.5l-39 -66q47 -16 89 -22 t69 22q-37 -47 -87.5 -54t-105.5 3q-122 -191 -201 -277.5t-147 -148t-140.5 -113t-136.5 -67.5q-148 -37 -186 133l-4 8h-6q-115 16 -167 70.5t-60.5 123.5zM276 -434q146 0 290 147q42 43 93.5 114.5t71 139.5t3 106t-59.5 45t-98.5 -15.5t-115 -76t-106.5 -137.5 q-103 -184 -78 -323zM455.5 660.5q11.5 -23.5 43 -22.5t73.5 26q105 61 171 182q86 145 70 239q-78 -18 -153.5 -82.5t-129 -141.5t-70 -127t-5 -73.5z" />
<glyph unicode="&#xa6;" horiz-adv-x="200" d="M86 738v372l23 18l4 -618h-25q-2 119 -2 228zM90 303h23l6 -692l-8 8q-11 4 -11 -4q-4 -7 -6 274t-4 414z" />
<glyph unicode="&#xa7;" horiz-adv-x="495" d="M-92 -152q33 -14 77 -3.5t78.5 45t52.5 95t-3.5 142.5t-7.5 138.5t41 94.5q39 55 102 86q-18 86 9.5 158t75.5 114t106.5 47t103.5 -42q-33 14 -77 4t-79 -45t-52.5 -95.5t4 -142.5t6.5 -139t-43 -96q-40 -55 -101 -86q18 -86 -8.5 -156.5t-74.5 -112.5t-106.5 -47.5 t-103.5 41.5zM173 278q-3 -51 20 -120l8 -33q68 51 77 168q3 51 -10.5 91t-17.5 60q-70 -53 -77 -166z" />
<glyph unicode="&#xa8;" horiz-adv-x="382" d="M72 911l104 76l-14 -96l-41 -33q-39 -29 -39 -35q-3 18 -6 43zM190 911l105 76l-14 -96l-41 -33q-39 -29 -39 -35q-3 18 -6 43z" />
<glyph unicode="&#xa9;" horiz-adv-x="2285" d="M135 -451h37l21 -96l18 96h37l18 -96l23 96h35l-37 -127v-6h-37l-21 97l-20 -97h-37l-37 129v4zM205 379v579l315 68l-12 43l47 14l-10 47l49 11l-6 51l47 4v47h43l4 43l47 -6l8 47l51 -8l13 47l45 -12l18 43l47 -19l25 45l43 -22l25 41l43 -29l30 39l39 -31l33 33 l31 -29l30 27l31 -35l41 27l27 -43l45 24l22 -41l43 19l21 -47l49 14l14 -45l45 10l11 -49l51 4l2 -30l473 102v-580l-217 -47l4 -4l-27 -31l27 -32l-37 -31l27 -41l-43 -27l26 -43l-43 -24l19 -43l-47 -21l16 -49l-45 -14l8 -45l-49 -11l4 -51l-47 -4v-47h-41l-6 -43l-45 4 l-10 -45l-50 8l-14 -47l-45 15l-16 -48l-50 21l-22 -45l-43 22l-27 -41l-43 27l-28 -37l-37 31l-35 -33l-31 29l-33 -29l-28 37l-41 -27l-29 43l-43 -24l-22 41l-45 -19l-21 47l-47 -14l-14 45l-47 -10l-11 49l-49 -4l-6 47h-47v43l-41 4l4 47l-47 8l10 50l-49 14l14 45 l-32 12zM330 -451h35l22 -96l19 96h34l21 -96l20 96h37l-37 -127l-2 -6h-35l-22 97l-21 -97h-36l-35 129v4zM334 -212q0 27 4 47.5t13 30.5q29 34 71 34h6q17 0 25 -4q26 -15 33 -25q14 -20 14 -31h-39q0 12 -17 23q-10 6 -18 6t-12 -2h-8l-17 -12q-16 -16 -16 -43t4 -41 t13 -19q11 -5 26 -10h6q14 0 20 6q10 0 17.5 13.5t7.5 19.5h-43v33h76v-99h-25l-4 23q-11 -19 -22 -21t-15 -6l-22 -2q-18 0 -32 7.5t-22 19.5q-24 24 -24 52zM334 543q0 -2 2 -4h10l10 6l13 12l8 12l12 13q2 4 10 12l74 102q6 10 12.5 17.5t10.5 17.5l24 37q6 10 12.5 18.5 t10.5 18.5q6 10 11 18q18 29 3 29q-7 0 -20 -8l-21 -23l-18 -24q-10 -10 -17 -23l-18 -22l-66 -95l-30 -49l-31 -55l-2 -6v-4zM383 778q-4 -24 12 -35l21 -6q35 0 35 8q0 2 -2 3h-7q-4 0 -4 -3q-37 -4 -43 8.5t-6 18.5q0 8 10 29l21 22q9 9 20.5 16t17.5 11q14 9 26 13.5 l20 7.5t15 5.5t18 6.5l32 6q20 4 31 4q10 0 20.5 -3t15.5 -4q7 -1 14 -13.5t7 -22.5t-4 -27l-12 -22q-13 -25 -23 -33t-15 -14t-12 -11.5t-13 -11.5l-27 -16l-29 -13l-16 -6q-6 0 -14 -4h-7q-10 0 -10 -4q-4 0 -4 -3t2 -3h6q4 0 6 2h7l30 10l62 27l30 18l27 19l25 22l20 23 q8 12 13 24q15 37 -3 62q-21 16 -35 17t-27 1t-32 -3q-65 -11 -90 -22.5t-37 -17.5q-44 -22 -56.5 -34.5t-25.5 -28.5zM522 -215q0 21 6 35t18 21q14 9 40.5 9t36.5 -8t16 -22q8 -19 8 -41v-8h-92q0 -12 8 -21.5t19.5 -9.5t19.5 4q8 8 8 10h37q-17 -43 -59 -43q-66 0 -66 74 zM522 -451h37l21 -96l18 96h37l18 -96l21 96h37l-37 -127l-2 -6h-35l-21 97l-22 -97h-35l-37 129v4zM559 -205h53q-8 23 -14 26t-12 3q-23 0 -27 -29zM641 557h2q23 0 23 -18v-56q0 -34 53 -34q51 0 51 38v58l10 10h2l2 2h9v4h-56v-4h13q18 -6 18 -29v-39q0 -16 -10 -26 l-15 -10h-18q-37 0 -37 30v56q0 12 4 15t17 3h8v4h-76v-4zM657 -152h19v35h35v-35h20v-24h-20v-72q0 -8 2 -10l12 -2l4 2h2v-27h-20q-16 0 -23 4q-12 0 -12 23v82h-19v24zM657 678q8 -23 30 -22q39 2 77 26q18 8 37 25l28 24l17 19q0 2 4 6q0 4 4 4l4 8l19 18l18 25 q13 13 20 25q15 -8 15 -19q0 -2 -8 -10l-19 -21l-16 -22l-15 -23l-6 -20q-2 -4 -2 -10v-9q7 -10 13 -10t22 4l19 13q27 20 33.5 28t13 14.5t8.5 10.5l10 12l4 6q10 10 10 13l15 18l24 35l6 -33l5 -8q-20 -8 -29 -14l-23 -19q-18 -18 -18 -41q4 -12 27 -11q37 2 63 28 q10 6 18 20l11 20q6 12 6 23v18q0 23 -19 45q0 7 -8 15v6q2 2 2 4h-10l-4 -4q-6 -2 -14 -10l-7 -15l-2 -2l-49 -67l-6 -10l-2 -3v-2q-1 0 -16 -20l-19 -23l-24 -22q-12 -12 -29 -12h-2l2 2l8 12l17 22q2 1 18 27l10 19q8 21 7 27.5t-1 12.5l-4 7q0 4 -2 6v26q14 22 6 27.5 t-22 0.5q-35 -12 -35 -38q0 -10 10 -20l-6 -9l-57 -69q-2 0 -6 -4v-2l-2 -2q0 -2 -2 -2l-13 -17l-15 -15q-20 -20 -40 -31t-26.5 -12t-17.5 -5t-17 -2q-11 0 -11 12l8 20l13 21q8 -4 17 -4q26 0 42 9t35 24l18 18q9 9 21 35q0 17 -14 26q-25 8 -43 -4q-38 -9 -68.5 -35 t-42.5 -49q-16 -16 -23 -45v-20zM711 -547h37v-37h-37v37zM723 737l18 25l21 24q10 14 13 15.5t5 5.5l13 10l14 6q10 2 16 0q3 -7 -3.5 -16.5t-10.5 -16t-5 -8.5t-5 -4q-4 -8 -24 -26.5t-32 -18.5t-20 4zM780 -451h33v-20q12 25 37.5 25t38.5 -23q8 21 30 21q29 1 46 -23 q4 -4 4 -21v-92h-33v80q0 27 -22 27t-21 -27v-80h-37v92q0 15 -21.5 15t-21.5 -25v-82h-33v133zM807 532q0 -10 12 -22l15 -6q2 -2 8 -3l24 -7q12 -4 17 -5q6 0 12 -6t6 -12.5t-14 -17.5h-13q-12 0 -18 2l-20 8l-13 12q-10 14 -10 25h-4v-51h4q0 12 14 12q2 0 2 -1t5 -1 l8 -2q21 -8 29.5 -8t16.5 2q23 5 23 10.5t4 9.5v23l-6 8q-6 4 -14 8l-21 8h-12l-2 2l-16 4q-4 2 -6 2q-4 0 -11 6q-4 4 -4 9.5t1 5.5t5 8l9 4l12 2q8 0 16 -4q15 0 29 -14q4 -4 5 -9.5t5 -11.5h4v37h-4q-2 -8 -8 -8l-47 12q-10 0 -23 -4l-14 -10q-6 -10 -6 -17zM809 -152h18 v11q0 37 39 37h19v-27h-11q-12 0 -12 -6v-15h23v-24h-23v-109h-35v109h-18v24zM905 -152h35v-81q0 -25 23 -25q12 0 24 12l4 17v77h33v-133h-33v19q-14 -23 -37 -23q-47 0 -49 49v88zM928 451h119v45q-4 -4 -5 -8q0 -5 -10 -17q-15 -18 -39 -18h-18v49h2q16 0 27 -15 q4 -16 4 -18h2v72h-2v-11q-14 -24 -27 -24h-6v51h20q18 0 25 -2l10 -8l6 -12l6 -17h5v43h-119v-4h4q18 0 18 -18v-66q0 -20 -18 -20h-4v-2zM987 733v10l4 13q17 22 31 30l27 13l2 -13q-2 -4 -2 -10l-2 -12q-7 -14 -15 -23q-16 -12 -28 -12q-6 -7 -17 4zM991 -546q0 31 39 40 l33 4q10 4 10 10q0 16 -20 17l-17 -2q-6 -12 -6 -17h-33q0 14 7 27q15 15 49 21q36 0 53 -23q2 -6 2 -16v-72q0 -10 2 -14q0 -6 6 -7v-6h-37q0 2 -2 4v2q-2 4 -2 11q-19 -19 -37 -19t-25 2t-14 15q-8 6 -8 23zM1026 -547q0 -14 18 -14h7l6 2l12 8q4 4 4 14v19q-6 -6 -12 -6 q-35 -4 -35 -23zM1057 -104h35v-181h-35v181zM1118 -104h33v-181h-33v181zM1120 506q0 -37 29 -47q6 -2 17 -6t32 -4t37 19t16 34q0 21 -16 43q-10 10 -23 12q-12 6 -30.5 6t-28.5 -6q-13 -8 -25 -22q-8 -14 -8 -29zM1126 -451h37l21 -96l18 96h35l20 -96l23 96h35l-37 -127 v-6h-37l-20 97l-21 -97h-37l-37 129v4zM1133 772q0 -10 16 -18q13 0 25 1t32 9l31 16l49 43l17 23l12 20l6 21q2 12 0 18q0 19 -35 23q-21 0 -51 -15l-29 -18q-8 -4 -14 -10t-12 -11l-21 -22l-14 -23q-20 -32 -12 -57zM1157 467q-21 57 6 84q0 2 9.5 6t15.5 4l8 -2l8 -4 l10 -10q2 -4 4.5 -8.5t4.5 -10.5l2 -20q0 -12 -5 -26q-9 -27 -27.5 -27t-21.5 4q-8 0 -14 10zM1159 773q0 14 12 31q24 34 39 52l19 25q6 6 20 22.5t36 16.5q7 0 7 -8q0 -5 -10 -27q-19 -40 -39 -60l-18 -22l-23 -23q-18 -18 -37 -18q-6 6 -6 11zM1241 -152h19v11 q0 37 38 37h17v-27h-8q-10 0 -13 -6v-15h25v-24h-25v-109h-34v109h-19v24zM1268 451h57v2l-20 4q-9 13 -9 24v66l95 -96h4v77q0 29 24 29v4h-55v-4h10q0 -2 4 -2q12 -12 13 -27v-47l-78 80h-43v-4h2q20 0 20 -16v-64q0 -24 -24 -24v-2zM1290 776l6 -2q8 0 21 8l8 11l6 6 q0 2 4 6l64 74l59 57q4 2 12 10l13 8l14 7q2 0 2 -3h-2l-6 -6q-2 -6 -8 -8l-6 -8l-15 -16q-17 -17 -30 -43l-17 -25q-16 -24 -8 -41q4 -8 13 -8t16.5 2t13.5 6t16 9t21 16l24 22l2 2q-2 -2 -2 -8q0 -33 39 -23q20 8 29 15l25 18q12 12 16 17l16 14q-2 -2 -2 -6l-2 -6v-9 q-4 -6 0 -10q4 -14 8 -15t11 -1q5 0 43 20l37 31l20 21q-10 -25 -10 -37v-7q6 -6 10 -6t10 3t9 5l20 13l12 12q13 7 21 17t14 16l21 24q2 2 2 5q-2 2 -6 2q-5 0 -11 -11l-26 -30q-7 -8 -15 -15l-16 -14l-8 -6l-11 -4l-2 -2q-2 0 -4 2h2l9 16q4 8 13 20.5t13 20.5l74 109 q12 12 16 20l62 68q10 12 19 24.5t20 24.5l12 20v11q-2 2 -8 2t-12.5 -2t-9.5 -4.5t-9 -5.5q-20 -10 -45 -35l-21 -23q-8 -8 -16 -20.5t-19 -26.5t-18.5 -26.5t-15.5 -24.5l-53 -90l-9 -19q-2 0 -2 -2l-16 -16q-5 -8 -23 -23l-32 -29l-9 -6l-4 -2l-6 -4h-10l12 23q0 2 1 2 t1 2l2 2q4 8 9.5 15t10.5 16q12 20 21 32l17 25l8 14q4 4 8 13q2 2 3 4t2 2t5 5q7 9 -6 9l-12 -4l-12 -6l-21 -15l-16 -16q0 8 -2 12q0 4 -8 9q-21 3 -44.5 -7t-32.5 -16q-12 -8 -32.5 -25.5t-36.5 -40t-20 -33t-4 -11.5t-3 -1q-53 -53 -71 -53h-4q-1 1 14 25l39 49 q6 8 12 15t10 18l11 20q4 12 2 19q0 12 -8 12q-13 0 -41 -16q-25 -25 -37 -31l-25 -25q-6 -6 -12 -11l-35 -38l64 90q0 2 1 2q5 0 5 15l-6 6l-9 2l-10 -2l-12 -6l-6 -7q-4 -2 -4 -4t-9 -12l-90 -156q-2 -2 -2 -8zM1329 -224q0 54 39 70q8 4 29 4q33 0 49 -16q18 -22 18 -47 q0 -45 -30 -66q-16 -10 -38 -10t-38 10q-12 10 -20.5 25.5t-8.5 29.5zM1331 -451h35v-20q14 25 41 25q45 -3 45 -46v-92h-35v80q0 16 -3 21.5t-19 5.5q-27 0 -27 -31v-76h-37v133zM1364 -218q0 -40 33 -40q31 0 32 40t-32 40t-33 -40zM1425 451h125v49h-2q-4 -4 -4 -8 l-6 -17q-2 -2 -8 -9q-11 -13 -29 -13h-28v86q0 18 20 18h8v4h-76v-4h7q18 0 18 -18v-66q0 -20 -18 -20h-7v-2zM1477 -541h34q0 -18 26 -18t26 10t-15 12l-30 9q-20 7 -28.5 13.5t-8.5 22.5q0 43 53 46q45 0 55 -25l4 -10v-11h-34q0 17 -21.5 17t-21.5 -12q0 -6 12 -9l31 -8 q38 -6 38 -37q0 -45 -57 -45h-12q-13 0 -29 10q-22 13 -22 35zM1489 -152h33v-18q14 20 36.5 20t28.5 -4l17 -14q6 -12 6 -25v-92h-35v80q0 8 -4 21q-6 6 -21 6q-24 0 -24 -31v-76h-37v133zM1542 844l2 4q0 2 10 17q15 22 17 26t10 12l59 76l9 8q17 10 30 10l7 -4l2 -8 q0 -10 -7 -16l-18 -25l-16 -26l-19 -19l-18 -20l-27 -23q-12 -6 -16 -10q-10 -10 -21 -6h-2q-2 2 -2 4zM1544 557h2q20 0 27 -14l35 -45v-25q0 -20 -21 -20h-6v-2h78v2h-8q-21 0 -21 20v27l35 47q8 4 10 6q4 4 17 4v4h-56v-4h6q17 0 17 -10q0 -4 -6 -12l-23 -31l-28 37 q-4 8 -5 8v2q0 6 9 6h10v4h-72v-4zM1624 -547h37v-37h-37v37zM1626 -152h21v35h32v-35h23v-24h-23v-72l2 -10l13 -2l4 2h4v-27h-23q-16 0 -20 4q-10 0 -12 9v96h-21v24zM1686 -520q0 74 59 74q18 0 31 -7q14 -4 20 -18q10 -10 10 -27h-37q0 21 -20 21q-27 0 -29 -37 q0 -33 7.5 -38t19.5 -5q22 0 22 22h37q0 -27 -20 -39t-44 -12q-36 0 -54 35q-2 8 -2 31zM1784 -249q0 21 10 30q12 8 29 12l30 4q12 2 12.5 14t-20.5 12.5t-24 -20.5h-33q4 34 27 43q8 4 14 4h16q41 0 48 -16t8 -20v-86q0 -6 8 -7v-6h-39q-2 0 -2 2v4q0 4 -1 6.5t-1 4.5 q-14 -21 -41 -21q-6 0 -19 4q-4 4 -8 7q-14 8 -14 29zM1819 -248q0 -14 16 -14h10q12 6 17 10q4 8 4 16v17q-6 -6 -15 -6l-16 -4q-16 0 -16 -19zM1823 -518q0 27 16 51q12 12 23 14q8 6 30.5 6.5t49.5 -18.5q4 -4 6 -10t6 -13t4 -28q0 -42 -22.5 -56t-47.5 -14q-39 0 -59 35 q-6 14 -6 33zM1860 -517q0 -40 30 -40q31 0 31 31t-6 40t-25 9q-30 0 -30 -40zM1894 1083l33 45l17 27l30 41l2 2q0 6 4 7t5 -1q0 -6 -12.5 -24.5t-16.5 -20.5l-39 -49l-12 -14q-2 -4 -11 -13zM1917 -152h16v35h37v-35h23v-24h-23v-72l2 -10l10 -2l7 2h4v-27h-23 q-16 0 -22 4q-8 0 -15 23v82h-16v24zM1982 -451h33v-20q14 25 39.5 25t36.5 -23q11 21 32 22t29 -8q13 -6 15 -16q6 -6 6 -21v-92h-35v80q0 27 -21.5 27t-21.5 -27v-80h-35v80q0 10 -2 12q0 15 -18 15q-23 0 -23 -25v-82h-35v133z" />
<glyph unicode="&#xaa;" horiz-adv-x="575" d="M145 559q23 116 111 221q98 117 215 113q39 0 51 -16t10 -35q66 53 105 35.5t27 -68.5q0 91 -82 15q-70 -63 -140.5 -192t-46.5 -161q73 48 203 162l-8 -27q-61 -58 -191 -151q-56 22 -26 131l8 28l-33 -28q-143 -118 -168 -131q-52 18 -35 104zM176 469q36 23 158 123 l59 51q51 117 133 195q-19 37 -78 18q-49 -16 -92 -59q-90 -79 -164 -237q-24 -50 -16 -91z" />
<glyph unicode="&#xab;" horiz-adv-x="593" d="M63 227q57 36 142.5 80.5t177.5 93.5l-233 -161l59 -138zM207 227q47 31 137.5 78t181.5 96l-233 -161l59 -138z" />
<glyph unicode="&#xac;" horiz-adv-x="489" d="M66 299v20h348v-118h-21v98h-327z" />
<glyph unicode="&#xad;" horiz-adv-x="634" d="M70 303v43h473v-43h-473z" />
<glyph unicode="&#xae;" horiz-adv-x="2301" d="M135 -451h37l21 -96l18 96h37l18 -96l23 96h35l-37 -127v-6h-37l-21 97l-20 -97h-37l-37 129v4zM205 379v579l315 68l-12 43l47 14l-10 47l49 11l-6 51l47 4v47h43l4 43l47 -6l8 47l51 -8l13 47l45 -12l18 43l47 -19l25 45l43 -22l25 41l43 -29l30 39l39 -31l33 33 l31 -29l30 27l31 -35l41 27l27 -43l45 24l22 -41l43 19l21 -47l49 14l14 -45l45 10l11 -49l51 4l2 -30l473 102v-580l-217 -47l4 -4l-27 -31l27 -32l-37 -31l27 -41l-43 -27l26 -43l-43 -24l19 -43l-47 -21l16 -49l-45 -14l8 -45l-49 -11l4 -51l-47 -4v-47h-41l-6 -43l-45 4 l-10 -45l-50 8l-14 -47l-45 15l-16 -48l-50 21l-22 -45l-43 22l-27 -41l-43 27l-28 -37l-37 31l-35 -33l-31 29l-33 -29l-28 37l-41 -27l-29 43l-43 -24l-22 41l-45 -19l-21 47l-47 -14l-14 45l-47 -10l-11 49l-49 -4l-6 47h-47v43l-41 4l4 47l-47 8l10 50l-49 14l14 45 l-32 12zM330 -451h35l22 -96l19 96h34l21 -96l20 96h37l-37 -127l-2 -6h-35l-22 97l-21 -97h-36l-35 129v4zM334 -212q0 27 4 47.5t13 30.5q29 34 71 34h6q17 0 25 -4q26 -15 33 -25q14 -20 14 -31h-39q0 12 -17 23q-10 6 -18 6t-12 -2h-8l-17 -12q-16 -16 -16 -43t4 -41 t13 -19q11 -5 26 -10h6q14 0 20 6q10 0 17.5 13.5t7.5 19.5h-43v33h76v-99h-25l-4 23q-11 -19 -22 -21t-15 -6l-22 -2q-18 0 -32 7.5t-22 19.5q-24 24 -24 52zM334 543q0 -2 2 -4h10l10 6l13 12l8 12l12 13q2 4 10 12l74 102q6 10 12.5 17.5t10.5 17.5l24 37q6 10 12.5 18.5 t10.5 18.5q6 10 11 18q18 29 3 29q-7 0 -20 -8l-21 -23l-18 -24q-10 -10 -17 -23l-18 -22l-66 -95l-30 -49l-31 -55l-2 -6v-4zM383 778q-4 -24 12 -35l21 -6q35 0 35 8q0 2 -2 3h-7q-4 0 -4 -3q-37 -4 -43 8.5t-6 18.5q0 8 10 29l21 22q9 9 20.5 16t17.5 11q14 9 26 13.5 l20 7.5t15 5.5t18 6.5l32 6q20 4 31 4q10 0 20.5 -3t15.5 -4q7 -1 14 -13.5t7 -22.5t-4 -27l-12 -22q-13 -25 -23 -33t-15 -14t-12 -11.5t-13 -11.5l-27 -16l-29 -13l-16 -6q-6 0 -14 -4h-7q-10 0 -10 -4q-4 0 -4 -3t2 -3h6q4 0 6 2h7l30 10l62 27l30 18l27 19l25 22l20 23 q8 12 13 24q15 37 -3 62q-21 16 -35 17t-27 1t-32 -3q-65 -11 -90 -22.5t-37 -17.5q-44 -22 -56.5 -34.5t-25.5 -28.5zM522 -215q0 21 6 35t18 21q14 9 40.5 9t36.5 -8t16 -22q8 -19 8 -41v-8h-92q0 -12 8 -21.5t19.5 -9.5t19.5 4q8 8 8 10h37q-17 -43 -59 -43q-66 0 -66 74 zM522 -451h37l21 -96l18 96h37l18 -96l21 96h37l-37 -127l-2 -6h-35l-21 97l-22 -97h-35l-37 129v4zM559 -205h53q-8 23 -14 26t-12 3q-23 0 -27 -29zM641 557h2q23 0 23 -18v-56q0 -34 53 -34q51 0 51 38v58l10 10h2l2 2h9v4h-56v-4h13q18 -6 18 -29v-39q0 -16 -10 -26 l-15 -10h-18q-37 0 -37 30v56q0 12 4 15t17 3h8v4h-76v-4zM657 -152h19v35h35v-35h20v-24h-20v-72q0 -8 2 -10l12 -2l4 2h2v-27h-20q-16 0 -23 4q-12 0 -12 23v82h-19v24zM657 678q8 -23 30 -22q39 2 77 26q18 8 37 25l28 24l17 19q0 2 4 6q0 4 4 4l4 8l19 18l18 25 q13 13 20 25q15 -8 15 -19q0 -2 -8 -10l-19 -21l-16 -22l-15 -23l-6 -20q-2 -4 -2 -10v-9q7 -10 13 -10t22 4l19 13q27 20 33.5 28t13 14.5t8.5 10.5l10 12l4 6q10 10 10 13l15 18l24 35l6 -33l5 -8q-20 -8 -29 -14l-23 -19q-18 -18 -18 -41q4 -12 27 -11q37 2 63 28 q10 6 18 20l11 20q6 12 6 23v18q0 23 -19 45q0 7 -8 15v6q2 2 2 4h-10l-4 -4q-6 -2 -14 -10l-7 -15l-2 -2l-49 -67l-6 -10l-2 -3v-2q-1 0 -16 -20l-19 -23l-24 -22q-12 -12 -29 -12h-2l2 2l8 12l17 22q2 1 18 27l10 19q8 21 7 27.5t-1 12.5l-4 7q0 4 -2 6v26q14 22 6 27.5 t-22 0.5q-35 -12 -35 -38q0 -10 10 -20l-6 -9l-57 -69q-2 0 -6 -4v-2l-2 -2q0 -2 -2 -2l-13 -17l-15 -15q-20 -20 -40 -31t-26.5 -12t-17.5 -5t-17 -2q-11 0 -11 12l8 20l13 21q8 -4 17 -4q26 0 42 9t35 24l18 18q9 9 21 35q0 17 -14 26q-25 8 -43 -4q-38 -9 -68.5 -35 t-42.5 -49q-16 -16 -23 -45v-20zM711 -547h37v-37h-37v37zM723 737l18 25l21 24q10 14 13 15.5t5 5.5l13 10l14 6q10 2 16 0q3 -7 -3.5 -16.5t-10.5 -16t-5 -8.5t-5 -4q-4 -8 -24 -26.5t-32 -18.5t-20 4zM780 -451h33v-20q12 25 37.5 25t38.5 -23q8 21 30 21q29 1 46 -23 q4 -4 4 -21v-92h-33v80q0 27 -22 27t-21 -27v-80h-37v92q0 15 -21.5 15t-21.5 -25v-82h-33v133zM807 532q0 -10 12 -22l15 -6q2 -2 8 -3l24 -7q12 -4 17 -5q6 0 12 -6t6 -12.5t-14 -17.5h-13q-12 0 -18 2l-20 8l-13 12q-10 14 -10 25h-4v-51h4q0 12 14 12q2 0 2 -1t5 -1 l8 -2q21 -8 29.5 -8t16.5 2q23 5 23 10.5t4 9.5v23l-6 8q-6 4 -14 8l-21 8h-12l-2 2l-16 4q-4 2 -6 2q-4 0 -11 6q-4 4 -4 9.5t1 5.5t5 8l9 4l12 2q8 0 16 -4q15 0 29 -14q4 -4 5 -9.5t5 -11.5h4v37h-4q-2 -8 -8 -8l-47 12q-10 0 -23 -4l-14 -10q-6 -10 -6 -17zM809 -152h18 v11q0 37 39 37h19v-27h-11q-12 0 -12 -6v-15h23v-24h-23v-109h-35v109h-18v24zM905 -152h35v-81q0 -25 23 -25q12 0 24 12l4 17v77h33v-133h-33v19q-14 -23 -37 -23q-47 0 -49 49v88zM928 451h119v45q-4 -4 -5 -8q0 -5 -10 -17q-15 -18 -39 -18h-18v49h2q16 0 27 -15 q4 -16 4 -18h2v72h-2v-11q-14 -24 -27 -24h-6v51h20q18 0 25 -2l10 -8l6 -12l6 -17h5v43h-119v-4h4q18 0 18 -18v-66q0 -20 -18 -20h-4v-2zM987 733v10l4 13q17 22 31 30l27 13l2 -13q-2 -4 -2 -10l-2 -12q-7 -14 -15 -23q-16 -12 -28 -12q-6 -7 -17 4zM991 -546q0 31 39 40 l33 4q10 4 10 10q0 16 -20 17l-17 -2q-6 -12 -6 -17h-33q0 14 7 27q15 15 49 21q36 0 53 -23q2 -6 2 -16v-72q0 -10 2 -14q0 -6 6 -7v-6h-37q0 2 -2 4v2q-2 4 -2 11q-19 -19 -37 -19t-25 2t-14 15q-8 6 -8 23zM1026 -547q0 -14 18 -14h7l6 2l12 8q4 4 4 14v19q-6 -6 -12 -6 q-35 -4 -35 -23zM1057 -104h35v-181h-35v181zM1118 -104h33v-181h-33v181zM1120 506q0 -37 29 -47q6 -2 17 -6t32 -4t37 19t16 34q0 21 -16 43q-10 10 -23 12q-12 6 -30.5 6t-28.5 -6q-13 -8 -25 -22q-8 -14 -8 -29zM1126 -451h37l21 -96l18 96h35l20 -96l23 96h35l-37 -127 v-6h-37l-20 97l-21 -97h-37l-37 129v4zM1133 772q0 -10 16 -18q13 0 25 1t32 9l31 16l49 43l17 23l12 20l6 21q2 12 0 18q0 19 -35 23q-21 0 -51 -15l-29 -18q-8 -4 -14 -10t-12 -11l-21 -22l-14 -23q-20 -32 -12 -57zM1157 467q-21 57 6 84q0 2 9.5 6t15.5 4l8 -2l8 -4 l10 -10q2 -4 4.5 -8.5t4.5 -10.5l2 -20q0 -12 -5 -26q-9 -27 -27.5 -27t-21.5 4q-8 0 -14 10zM1159 773q0 14 12 31q24 34 39 52l19 25q6 6 20 22.5t36 16.5q7 0 7 -8q0 -5 -10 -27q-19 -40 -39 -60l-18 -22l-23 -23q-18 -18 -37 -18q-6 6 -6 11zM1241 -152h19v11 q0 37 38 37h17v-27h-8q-10 0 -13 -6v-15h25v-24h-25v-109h-34v109h-19v24zM1268 451h57v2l-20 4q-9 13 -9 24v66l95 -96h4v77q0 29 24 29v4h-55v-4h10q0 -2 4 -2q12 -12 13 -27v-47l-78 80h-43v-4h2q20 0 20 -16v-64q0 -24 -24 -24v-2zM1290 776l6 -2q8 0 21 8l8 11l6 6 q0 2 4 6l64 74l59 57q4 2 12 10l13 8l14 7q2 0 2 -3h-2l-6 -6q-2 -6 -8 -8l-6 -8l-15 -16q-17 -17 -30 -43l-17 -25q-16 -24 -8 -41q4 -8 13 -8t16.5 2t13.5 6t16 9t21 16l24 22l2 2q-2 -2 -2 -8q0 -33 39 -23q20 8 29 15l25 18q12 12 16 17l16 14q-2 -2 -2 -6l-2 -6v-9 q-4 -6 0 -10q4 -14 8 -15t11 -1q5 0 43 20l37 31l20 21q-10 -25 -10 -37v-7q6 -6 10 -6t10 3t9 5l20 13l12 12q13 7 21 17t14 16l21 24q2 2 2 5q-2 2 -6 2q-5 0 -11 -11l-26 -30q-7 -8 -15 -15l-16 -14l-8 -6l-11 -4l-2 -2q-2 0 -4 2h2l9 16q4 8 13 20.5t13 20.5l74 109 q12 12 16 20l62 68q10 12 19 24.5t20 24.5l12 20v11q-2 2 -8 2t-12.5 -2t-9.5 -4.5t-9 -5.5q-20 -10 -45 -35l-21 -23q-8 -8 -16 -20.5t-19 -26.5t-18.5 -26.5t-15.5 -24.5l-53 -90l-9 -19q-2 0 -2 -2l-16 -16q-5 -8 -23 -23l-32 -29l-9 -6l-4 -2l-6 -4h-10l12 23q0 2 1 2 t1 2l2 2q4 8 9.5 15t10.5 16q12 20 21 32l17 25l8 14q4 4 8 13q2 2 3 4t2 2t5 5q7 9 -6 9l-12 -4l-12 -6l-21 -15l-16 -16q0 8 -2 12q0 4 -8 9q-21 3 -44.5 -7t-32.5 -16q-12 -8 -32.5 -25.5t-36.5 -40t-20 -33t-4 -11.5t-3 -1q-53 -53 -71 -53h-4q-1 1 14 25l39 49 q6 8 12 15t10 18l11 20q4 12 2 19q0 12 -8 12q-13 0 -41 -16q-25 -25 -37 -31l-25 -25q-6 -6 -12 -11l-35 -38l64 90q0 2 1 2q5 0 5 15l-6 6l-9 2l-10 -2l-12 -6l-6 -7q-4 -2 -4 -4t-9 -12l-90 -156q-2 -2 -2 -8zM1329 -224q0 54 39 70q8 4 29 4q33 0 49 -16q18 -22 18 -47 q0 -45 -30 -66q-16 -10 -38 -10t-38 10q-12 10 -20.5 25.5t-8.5 29.5zM1331 -451h35v-20q14 25 41 25q45 -3 45 -46v-92h-35v80q0 16 -3 21.5t-19 5.5q-27 0 -27 -31v-76h-37v133zM1364 -218q0 -40 33 -40q31 0 32 40t-32 40t-33 -40zM1425 451h125v49h-2q-4 -4 -4 -8 l-6 -17q-2 -2 -8 -9q-11 -13 -29 -13h-28v86q0 18 20 18h8v4h-76v-4h7q18 0 18 -18v-66q0 -20 -18 -20h-7v-2zM1477 -541h34q0 -18 26 -18t26 10t-15 12l-30 9q-20 7 -28.5 13.5t-8.5 22.5q0 43 53 46q45 0 55 -25l4 -10v-11h-34q0 17 -21.5 17t-21.5 -12q0 -6 12 -9l31 -8 q38 -6 38 -37q0 -45 -57 -45h-12q-13 0 -29 10q-22 13 -22 35zM1489 -152h33v-18q14 20 36.5 20t28.5 -4l17 -14q6 -12 6 -25v-92h-35v80q0 8 -4 21q-6 6 -21 6q-24 0 -24 -31v-76h-37v133zM1542 844l2 4q0 2 10 17q15 22 17 26t10 12l59 76l9 8q17 10 30 10l7 -4l2 -8 q0 -10 -7 -16l-18 -25l-16 -26l-19 -19l-18 -20l-27 -23q-12 -6 -16 -10q-10 -10 -21 -6h-2q-2 2 -2 4zM1544 557h2q20 0 27 -14l35 -45v-25q0 -20 -21 -20h-6v-2h78v2h-8q-21 0 -21 20v27l35 47q8 4 10 6q4 4 17 4v4h-56v-4h6q17 0 17 -10q0 -4 -6 -12l-23 -31l-28 37 q-4 8 -5 8v2q0 6 9 6h10v4h-72v-4zM1624 -547h37v-37h-37v37zM1626 -152h21v35h32v-35h23v-24h-23v-72l2 -10l13 -2l4 2h4v-27h-23q-16 0 -20 4q-10 0 -12 9v96h-21v24zM1686 -520q0 74 59 74q18 0 31 -7q14 -4 20 -18q10 -10 10 -27h-37q0 21 -20 21q-27 0 -29 -37 q0 -33 7.5 -38t19.5 -5q22 0 22 22h37q0 -27 -20 -39t-44 -12q-36 0 -54 35q-2 8 -2 31zM1784 -249q0 21 10 30q12 8 29 12l30 4q12 2 12.5 14t-20.5 12.5t-24 -20.5h-33q4 34 27 43q8 4 14 4h16q41 0 48 -16t8 -20v-86q0 -6 8 -7v-6h-39q-2 0 -2 2v4q0 4 -1 6.5t-1 4.5 q-14 -21 -41 -21q-6 0 -19 4q-4 4 -8 7q-14 8 -14 29zM1819 -248q0 -14 16 -14h10q12 6 17 10q4 8 4 16v17q-6 -6 -15 -6l-16 -4q-16 0 -16 -19zM1823 -518q0 27 16 51q12 12 23 14q8 6 30.5 6.5t49.5 -18.5q4 -4 6 -10t6 -13t4 -28q0 -42 -22.5 -56t-47.5 -14q-39 0 -59 35 q-6 14 -6 33zM1860 -517q0 -40 30 -40q31 0 31 31t-6 40t-25 9q-30 0 -30 -40zM1894 1083l33 45l17 27l30 41l2 2q0 6 4 7t5 -1q0 -6 -12.5 -24.5t-16.5 -20.5l-39 -49l-12 -14q-2 -4 -11 -13zM1917 -152h16v35h37v-35h23v-24h-23v-72l2 -10l10 -2l7 2h4v-27h-23 q-16 0 -22 4q-8 0 -15 23v82h-16v24zM1982 -451h33v-20q14 25 39.5 25t36.5 -23q11 21 32 22t29 -8q13 -6 15 -16q6 -6 6 -21v-92h-35v80q0 27 -21.5 27t-21.5 -27v-80h-35v80q0 10 -2 12q0 15 -18 15q-23 0 -23 -25v-82h-35v133z" />
<glyph unicode="&#xaf;" horiz-adv-x="522" d="M66 934v20h389v-20h-389z" />
<glyph unicode="&#xb0;" horiz-adv-x="434" d="M225 647q0 39 27 65.5t65 26.5q39 0 66 -26.5t27 -65.5t-27 -65.5t-66 -26.5t-65.5 26.5t-26.5 65.5zM246 647q0 -29 21.5 -50.5t49.5 -21.5q29 0 50.5 21.5t21.5 50.5t-21.5 50.5t-50.5 21.5t-50 -21.5t-21 -50.5z" />
<glyph unicode="&#xb1;" horiz-adv-x="614" d="M66 45v21h471v-21h-471zM66 324v20h225v225h20v-225h226v-20h-226v-226h-20v226h-225z" />
<glyph unicode="&#xb2;" horiz-adv-x="524" d="M-43 600q549 314 599 465q11 33 -15 55q-88 66 -202 22q-99 -39 -172 -128q-72 -87 -50 -131q-50 90 23 183q68 86 192 110q133 27 239 -43q169 -116 -247 -360q-92 -54 -301 -157q274 104 552 -14q215 -92 193 -227q-8 -61 -66 -119q-4 112 -92 210q-49 54 -138 99 t-175 55.5t-155 5.5q-96 -7 -177 -34l-6 -4z" />
<glyph unicode="&#xb3;" horiz-adv-x="675" d="M-300 426q-13 72 23.5 152.5t101 142t149.5 90.5t169 -4q-49 8 -113.5 -29t-122 -96t-96 -132t-36.5 -135.5t56 -104.5t175 -42t212 48.5t153.5 121t91.5 157.5t17.5 157.5t-66 121t-160.5 48.5l-4 12q80 0 186 74q107 74 152 156q22 42 22 79t-38.5 68t-91 33 t-101.5 -18.5t-93 -56.5t-75 -75q-72 -91 -47 -133q-50 90 24 183q67 86 192 110q134 27 238 -43q72 -49 67 -107.5t-56 -113t-131 -97.5t-158 -61q106 -12 165.5 -67.5t73 -131.5t-16.5 -160t-102.5 -154.5t-187 -117.5t-266.5 -47t-222.5 50t-83.5 122z" />
<glyph unicode="&#xb4;" horiz-adv-x="346" d="M39 791q17 10 103 75.5t147 116.5l16 -86q-68 -27 -119 -47t-94 -37.5t-53 -21.5z" />
<glyph unicode="&#xb6;" horiz-adv-x="591" d="M63 594q0 84 61.5 139t147.5 55h263v-18h-58l10 -1077l-8 8q-10 4 -10 -4q-2 -4 -3 69.5t-3 187.5t-3 249t-2 256t-2 208t-1 103h-183l11 -1077l-9 8q-10 4 -10 -4q-2 -4 -3 59.5t-3 163.5t-3 223t-3 240q-78 8 -133.5 67.5t-55.5 143.5z" />
<glyph unicode="&#xb7;" horiz-adv-x="233" d="M55 340l103 88l6 -88l-103 -90z" />
<glyph unicode="&#xb8;" horiz-adv-x="167" d="M23 -88q4 -19 33 -21q57 -4 57 25q0 38 -58 31l37 71h21l-33 -61q18 2 30 -1q29 -8 29 -34t-18.5 -35.5t-40 -8.5t-39.5 10.5t-18 23.5z" />
<glyph unicode="&#xb9;" horiz-adv-x="364" d="M-4 602q51 0 88 53.5t70.5 130t67.5 161.5t81 151l-240 -183v21l291 223q64 51 127 51q-45 0 -78.5 -45t-63.5 -112.5t-60.5 -146.5t-70.5 -146q-93 -158 -212 -158z" />
<glyph unicode="&#xba;" horiz-adv-x="438" d="M-20 666.5q-13 56.5 10.5 134.5t75 164t114 150.5t127 92t111.5 -11.5q76 -87 22 -238q-56 -128 -156 -231q-121 -125 -228 -120q-63 3 -76 59.5zM23 672q7 -71 64 -44q74 36 192 193q-69 -11 -71 99q-2 109 46 208q-70 -66 -150 -218q-89 -169 -81 -238zM235.5 931 q-2.5 -46 14 -68.5t59.5 3.5q88 140 88 252q0 37 -17 68t-42 13.5t-47.5 -61.5t-37.5 -102.5t-17.5 -104.5z" />
<glyph unicode="&#xbb;" horiz-adv-x="614" d="M59 102l234 162l-60 137l146 -125q-40 -23 -83 -47q-62 -34 -237 -127zM203 102l233 162l-59 137l145 -125q-39 -24 -83 -47.5t-94 -50.5t-142 -76z" />
<glyph unicode="&#xbc;" horiz-adv-x="1404" d="M92 -246l48 64q50 65 135 173.5t193 248.5q115 150 830 1063h27l-1219 -1565q0 26 -14 16zM303 449q51 0 88 53t71 130t67.5 162t80.5 150l-239 -182v20l291 224q64 51 126 51q-45 0 -78.5 -45t-63.5 -113t-60.5 -146.5t-70.5 -146.5q-93 -157 -212 -157zM408 -98 q637 661 827 934q43 61 51 96q0 -175 -284 -475q-132 -138 -277 -273t-213 -200q170 147 414 174q46 87 94.5 165t75.5 115l28 -6q-65 -127 -123 -270q213 0 246 -131q14 -57 -10 -131q-32 77 -136 134q-52 29 -132 44q-135 -347 -73 -469q24 -47 89 -47q-109 0 -154 48 t-47 122q-4 132 105 354q-174 3 -334 -94q-72 -43 -129 -98z" />
<glyph unicode="&#xbd;" horiz-adv-x="1265" d="M92 -246l48 64q50 65 135 173.5t193 248.5q115 150 830 1063h27l-1219 -1565q0 26 -14 16zM262 367q51 0 88 53t71 130t67.5 162t80.5 150l-239 -182v20l291 224q64 51 127 51q-45 0 -79 -45t-64 -112.5t-60.5 -146.5t-70.5 -147q-93 -157 -212 -157zM494 -137 q544 311 598 465q12 32 -15 55q-88 65 -201 21q-99 -37 -172 -128q-73 -88 -51 -131q-50 91 24 184q70 87 191 111q135 26 240 -45q170 -116 -247 -359q-109 -64 -302 -157q174 66 377 37q84 -12 161.5 -45t117.5 -62.5t61 -59.5q38 -56 29.5 -114t-66.5 -116 q-4 109 -93 209q-48 55 -137 100t-175 55.5t-156 4.5q-99 -7 -176 -33l-6 -5z" />
<glyph unicode="&#xbe;" horiz-adv-x="1716" d="M48 350.5q-13 71.5 24 152.5t101.5 142.5t149.5 90t169 -4.5q-49 8 -114 -28.5t-122 -96t-96 -132.5t-37 -135.5t56 -104t175 -41.5t212 48t153.5 120.5t91.5 157.5t17.5 158t-65.5 121t-161 48l-4 12q81 0 186 74q108 76 152 156q22 42 22 79t-38.5 68t-91 33 t-101.5 -18.5t-93 -56.5t-75 -75q-72 -91 -47 -133q-50 90 24 183q69 88 191 111q135 25 240 -44q72 -49 66.5 -107.5t-56.5 -112.5t-131 -97.5t-158 -61.5q106 -12 165.5 -67.5t73 -131t-16 -159.5t-102.5 -155t-187.5 -118t-266.5 -47t-222.5 50.5t-83.5 122zM403 -246 l49 64q50 65 135 173.5t193 248.5q228 296 830 1063h26l-1218 -1565q0 6 -3.5 14t-11.5 2zM586 -190q637 661 827 934q43 61 51 96q0 -177 -284 -475q-134 -141 -278 -274.5t-212 -199.5q171 148 414 175q79 151 170 280l29 -6q-18 -35 -36.5 -75t-41.5 -89t-45 -106 q212 0 245 -131q14 -57 -10 -132q-32 79 -136 135q-52 29 -132 44q-134 -345 -73 -469q24 -47 89 -47q-109 0 -153.5 48t-46.5 122q-4 134 104 354q-171 3 -334 -94q-72 -43 -129 -99z" />
<glyph unicode="&#xbf;" horiz-adv-x="944" d="M100 -344q-26 112 72 274q89 149 215 248q200 158 245.5 213t55.5 104.5t-10 110.5q51 -88 53 -144t-35 -105.5t-107.5 -104.5t-147 -123.5t-130 -133.5t-90.5 -130.5t-53 -126t-6 -107.5q22 -102 176 -102q121 0 208 61.5t130 144.5t36 169t-73 135q51 -23 81 -73 t34 -111.5t-17.5 -126t-72.5 -115.5q-121 -120 -326 -105q-208 15 -238 148zM805 868l102 90l6 -90l-102 -88z" />
<glyph unicode="&#xc0;" horiz-adv-x="1994" d="M-39 23.5q6 -76.5 56.5 -141t158.5 -99.5l2 -2h8q-2 -6 -2 -17q-30 -248 66 -323q148 -115 563 174q139 97 265 217q200 192 569 668q41 12 80.5 25.5t78.5 23.5q-123 -282 -155 -533q-96 -16 -149.5 -66t-72 -112.5t-9 -128t38 -109.5t69.5 -56.5t86 30.5 q-104 16 -149.5 114t-2.5 187q48 103 187 125q-27 -275 72 -444q38 -64 104 -95l2 -2q70 -33 141 19q45 33 58 102.5t-2 142t-55 133.5q-89 135 -236 158q48 277 174 555q115 14 178 -34q-42 114 -143 110q244 509 544 728q99 73 193 91q-23 0 -43 -4q-158 -23 -311.5 -121 t-307.5 -245q-272 94 -661 38q-394 -58 -629 -235q-51 -39 -56 -59.5t14.5 -23.5t57 11.5t72.5 42.5q213 176 573 240q354 63 617 -25q-217 -217 -510 -585q-146 -33 -219 57q63 -103 190 -94q-47 -59 -124.5 -160.5t-176 -218.5t-209 -235.5t-222.5 -212.5 q-253 -213 -412 -191q-148 18 -111 321q0 4 1 6.5t1 6.5q207 -29 431 93q185 101 333 286q101 126 131 227q42 115 -0.5 184.5t-123.5 72.5t-177 -45t-196.5 -136t-187.5 -197q-196 -244 -233 -455h-4q-113 37 -158.5 105t-41.5 146.5t50 160.5t115.5 147.5t157.5 106.5 t174 39q-23 61 -73 69.5t-110 -20.5t-122.5 -87t-113 -133t-80 -158t-23.5 -159.5zM217 -197q24 161 175 365q151 206 316 314q216 143 334.5 99.5t-0.5 -242.5q-61 -101 -206 -239q-228 -221 -467 -286q-80 -21 -152 -11zM1706 575q274 348 434 525q-159 -193 -297 -471 q-63 -21 -137 -54zM1717.5 -280.5q-17.5 110.5 13.5 276.5q96 -25 176 -124q76 -95 98 -207q22 -115 -45 -171q-37 -31 -89 -17.5t-94 73t-59.5 170zM2572 1649l17 86q98 -82 166.5 -133.5t80.5 -61.5z" />
<glyph unicode="&#xc1;" horiz-adv-x="1994" d="M-39 23.5q6 -76.5 56.5 -141t158.5 -99.5l2 -2h8q-2 -6 -2 -17q-30 -248 66 -323q148 -115 563 174q139 97 265 217q200 192 569 668q41 12 80.5 25.5t78.5 23.5q-123 -282 -155 -533q-96 -16 -149.5 -66t-72 -112.5t-9 -128t38 -109.5t69.5 -56.5t86 30.5 q-104 16 -149.5 114t-2.5 187q48 103 187 125q-27 -275 72 -444q38 -64 104 -95l2 -2q70 -33 141 19q45 33 58 102.5t-2 142t-55 133.5q-89 135 -236 158q48 277 174 555q115 14 178 -34q-42 114 -143 110q244 509 544 728q99 73 193 91q-23 0 -43 -4q-158 -23 -311.5 -121 t-307.5 -245q-272 94 -661 38q-394 -58 -629 -235q-51 -39 -56 -59.5t14.5 -23.5t57 11.5t72.5 42.5q213 176 573 240q354 63 617 -25q-217 -217 -510 -585q-146 -33 -219 57q63 -103 190 -94q-47 -59 -124.5 -160.5t-176 -218.5t-209 -235.5t-222.5 -212.5 q-253 -213 -412 -191q-148 18 -111 321q0 4 1 6.5t1 6.5q207 -29 431 93q185 101 333 286q101 126 131 227q42 115 -0.5 184.5t-123.5 72.5t-177 -45t-196.5 -136t-187.5 -197q-196 -244 -233 -455h-4q-113 37 -158.5 105t-41.5 146.5t50 160.5t115.5 147.5t157.5 106.5 t174 39q-23 61 -73 69.5t-110 -20.5t-122.5 -87t-113 -133t-80 -158t-23.5 -159.5zM217 -197q24 161 175 365q151 206 316 314q216 143 334.5 99.5t-0.5 -242.5q-61 -101 -206 -239q-228 -221 -467 -286q-80 -21 -152 -11zM1706 575q274 348 434 525q-159 -193 -297 -471 q-63 -21 -137 -54zM1717.5 -280.5q-17.5 110.5 13.5 276.5q96 -25 176 -124q76 -95 98 -207q22 -115 -45 -171q-37 -31 -89 -17.5t-94 73t-59.5 170zM2615 1550q11 7 100 74.5t150 118.5l17 -86q-68 -27 -119 -47t-94 -38t-54 -22z" />
<glyph unicode="&#xc2;" horiz-adv-x="1994" d="M-39 23.5q6 -76.5 56.5 -141t158.5 -99.5l2 -2h8q-2 -6 -2 -17q-30 -248 66 -323q148 -115 563 174q139 97 265 217q200 192 569 668q41 12 80.5 25.5t78.5 23.5q-123 -282 -155 -533q-96 -16 -149.5 -66t-72 -112.5t-9 -128t38 -109.5t69.5 -56.5t86 30.5 q-104 16 -149.5 114t-2.5 187q48 103 187 125q-27 -275 72 -444q38 -64 104 -95l2 -2q70 -33 141 19q45 33 58 102.5t-2 142t-55 133.5q-89 135 -236 158q48 277 174 555q115 14 178 -34q-42 114 -143 110q244 509 544 728q99 73 193 91q-23 0 -43 -4q-158 -23 -311.5 -121 t-307.5 -245q-272 94 -661 38q-394 -58 -629 -235q-51 -39 -56 -59.5t14.5 -23.5t57 11.5t72.5 42.5q213 176 573 240q354 63 617 -25q-217 -217 -510 -585q-146 -33 -219 57q63 -103 190 -94q-47 -59 -124.5 -160.5t-176 -218.5t-209 -235.5t-222.5 -212.5 q-253 -213 -412 -191q-148 18 -111 321q0 4 1 6.5t1 6.5q207 -29 431 93q185 101 333 286q101 126 131 227q42 115 -0.5 184.5t-123.5 72.5t-177 -45t-196.5 -136t-187.5 -197q-196 -244 -233 -455h-4q-113 37 -158.5 105t-41.5 146.5t50 160.5t115.5 147.5t157.5 106.5 t174 39q-23 61 -73 69.5t-110 -20.5t-122.5 -87t-113 -133t-80 -158t-23.5 -159.5zM217 -197q24 161 175 365q151 206 316 314q216 143 334.5 99.5t-0.5 -242.5q-61 -101 -206 -239q-228 -221 -467 -286q-80 -21 -152 -11zM1706 575q274 348 434 525q-159 -193 -297 -471 q-63 -21 -137 -54zM1717.5 -280.5q-17.5 110.5 13.5 276.5q96 -25 176 -124q76 -95 98 -207q22 -115 -45 -171q-37 -31 -89 -17.5t-94 73t-59.5 170zM2494 1583q82 55 127.5 84.5t70.5 46.5q52 34 93 58l56 -189l-109 121z" />
<glyph unicode="&#xc3;" horiz-adv-x="1994" d="M-39 23.5q6 -76.5 56.5 -141t158.5 -99.5l2 -2h8q-2 -6 -2 -17q-30 -248 66 -323q148 -115 563 174q139 97 265 217q200 192 569 668q41 12 80.5 25.5t78.5 23.5q-123 -282 -155 -533q-96 -16 -149.5 -66t-72 -112.5t-9 -128t38 -109.5t69.5 -56.5t86 30.5 q-104 16 -149.5 114t-2.5 187q48 103 187 125q-27 -275 72 -444q38 -64 104 -95l2 -2q70 -33 141 19q45 33 58 102.5t-2 142t-55 133.5q-89 135 -236 158q48 277 174 555q115 14 178 -34q-42 114 -143 110q244 509 544 728q99 73 193 91q-23 0 -43 -4q-158 -23 -311.5 -121 t-307.5 -245q-272 94 -661 38q-394 -58 -629 -235q-51 -39 -56 -59.5t14.5 -23.5t57 11.5t72.5 42.5q213 176 573 240q354 63 617 -25q-217 -217 -510 -585q-146 -33 -219 57q63 -103 190 -94q-47 -59 -124.5 -160.5t-176 -218.5t-209 -235.5t-222.5 -212.5 q-253 -213 -412 -191q-148 18 -111 321q0 4 1 6.5t1 6.5q207 -29 431 93q185 101 333 286q101 126 131 227q42 115 -0.5 184.5t-123.5 72.5t-177 -45t-196.5 -136t-187.5 -197q-196 -244 -233 -455h-4q-113 37 -158.5 105t-41.5 146.5t50 160.5t115.5 147.5t157.5 106.5 t174 39q-23 61 -73 69.5t-110 -20.5t-122.5 -87t-113 -133t-80 -158t-23.5 -159.5zM217 -197q24 161 175 365q151 206 316 314q216 143 334.5 99.5t-0.5 -242.5q-61 -101 -206 -239q-228 -221 -467 -286q-80 -21 -152 -11zM1706 575q274 348 434 525q-159 -193 -297 -471 q-63 -21 -137 -54zM1717.5 -280.5q-17.5 110.5 13.5 276.5q96 -25 176 -124q76 -95 98 -207q22 -115 -45 -171q-37 -31 -89 -17.5t-94 73t-59.5 170zM2554 1608q55 220 186 132q86 -59 119 -60t49 42q-23 -59 -51.5 -76.5t-62 -13.5t-68.5 20.5t-67.5 23.5t-59.5 -5t-45 -63 z" />
<glyph unicode="&#xc4;" horiz-adv-x="1994" d="M-39 23.5q6 -76.5 56.5 -141t158.5 -99.5l2 -2h8q-2 -6 -2 -17q-30 -248 66 -323q148 -115 563 174q139 97 265 217q200 192 569 668q41 12 80.5 25.5t78.5 23.5q-123 -282 -155 -533q-96 -16 -149.5 -66t-72 -112.5t-9 -128t38 -109.5t69.5 -56.5t86 30.5 q-104 16 -149.5 114t-2.5 187q48 103 187 125q-27 -275 72 -444q38 -64 104 -95l2 -2q70 -33 141 19q45 33 58 102.5t-2 142t-55 133.5q-89 135 -236 158q48 277 174 555q115 14 178 -34q-42 114 -143 110q244 509 544 728q99 73 193 91q-23 0 -43 -4q-158 -23 -311.5 -121 t-307.5 -245q-272 94 -661 38q-394 -58 -629 -235q-51 -39 -56 -59.5t14.5 -23.5t57 11.5t72.5 42.5q213 176 573 240q354 63 617 -25q-217 -217 -510 -585q-146 -33 -219 57q63 -103 190 -94q-47 -59 -124.5 -160.5t-176 -218.5t-209 -235.5t-222.5 -212.5 q-253 -213 -412 -191q-148 18 -111 321q0 4 1 6.5t1 6.5q207 -29 431 93q185 101 333 286q101 126 131 227q42 115 -0.5 184.5t-123.5 72.5t-177 -45t-196.5 -136t-187.5 -197q-196 -244 -233 -455h-4q-113 37 -158.5 105t-41.5 146.5t50 160.5t115.5 147.5t157.5 106.5 t174 39q-23 61 -73 69.5t-110 -20.5t-122.5 -87t-113 -133t-80 -158t-23.5 -159.5zM217 -197q24 161 175 365q151 206 316 314q216 143 334.5 99.5t-0.5 -242.5q-61 -101 -206 -239q-228 -221 -467 -286q-80 -21 -152 -11zM1706 575q274 348 434 525q-159 -193 -297 -471 q-63 -21 -137 -54zM1717.5 -280.5q-17.5 110.5 13.5 276.5q96 -25 176 -124q76 -95 98 -207q22 -115 -45 -171q-37 -31 -89 -17.5t-94 73t-59.5 170zM2611 1657l105 76l-15 -97l-41 -32q-39 -29 -39 -35q-3 19 -6 43zM2730 1657l104 76l-14 -97l-41 -32q-39 -29 -39 -35 q-3 19 -6 43z" />
<glyph unicode="&#xc5;" horiz-adv-x="1994" d="M-39 24q-12 146 103 317q106 157 236 220q60 29 110.5 20.5t72.5 -69.5q-86 2 -174 -39t-157.5 -106.5t-115.5 -147.5t-50 -160.5t42 -146.5t158 -105h4q34 208 233 455q188 235 384 333q96 48 177 45t126 -77q40 -65 -2 -180q-30 -101 -112 -204t-167.5 -179 t-184.5 -130q-227 -124 -431 -93q-48 -315 109 -334q159 -22 412 191q185 156 432 448q98 117 175.5 218t124.5 161q-127 -9 -190 94q74 -91 219 -57q284 359 510 585q-263 88 -617 25q-360 -64 -573 -240q-35 -29 -72.5 -43t-57 -11t-14.5 23.5t69.5 69.5t166 96.5t215 79 t234.5 49t238 19.5q240 4 423 -57q154 147 307 245q196 125 355 125q-178 -34 -391 -274q-191 -217 -346 -545q101 4 143 -110q-62 48 -178 34q-131 -292 -174 -555q147 -23 236 -158q87 -132 56 -276q-12 -70 -57 -102q-72 -51 -141 -19l-2 2q-118 56 -160 239 q-34 147 -16 300q-139 -22 -187 -125q-43 -89 2.5 -187t149.5 -114q-45 -43 -86 -30.5t-69.5 56.5t-38 109.5t9 128t71.5 112.5t150 66q32 251 155 533q-39 -10 -78.5 -23.5t-80.5 -25.5q-367 -474 -584 -682q-178 -170 -407 -303q-404 -235 -470 39q-18 77 -2 210 q0 10 2 17h-8l-2 2q-201 65 -215 241zM217 -197q131 -18 313 74q156 80 303.5 220t208 241.5t58.5 162t-57.5 81t-141.5 -4t-193 -95.5q-163 -106 -316 -313q-151 -205 -175 -366zM1706 575q74 33 137 54q130 266 297 471q-160 -177 -434 -525zM1717.5 -280.5 q17.5 -110.5 59.5 -170t94 -73t88 16.5t46 75t0 97t-35.5 106.5t-62.5 100.5q-80 99 -176 124q-31 -166 -13.5 -276.5zM2529 1794q0 39 27 65.5t65 26.5q39 0 66 -26.5t27 -65.5t-27 -65.5t-66 -26.5t-65.5 26.5t-26.5 65.5zM2550 1794q0 -29 21.5 -50.5t49.5 -21.5 q29 0 50.5 21.5t21.5 50.5t-21.5 50.5t-50.5 21.5t-50 -21.5t-21 -50.5z" />
<glyph unicode="&#xc6;" horiz-adv-x="2881" d="M-39 24q-12 146 103 317q106 157 236 220q60 29 110.5 20.5t72.5 -69.5q-86 2 -174 -39t-157.5 -106.5t-115.5 -147.5t-50 -160.5t42 -146.5t158 -105h4q34 208 233 455q188 235 384 333q96 48 177 45t126 -77q40 -65 -2 -180q-30 -101 -112 -204t-167.5 -179 t-184.5 -130q-227 -124 -431 -93q-48 -315 109 -334q159 -22 412 191q185 156 432 448q98 117 175.5 218t124.5 161q-127 -9 -190 94q74 -91 219 -57q284 359 510 585q-263 88 -617 25q-360 -64 -573 -240q-35 -29 -72.5 -43t-57 -11t-14.5 23.5t69.5 69.5t166 96.5t215 79 t234.5 49t238 19.5q240 4 423 -57q154 147 307 245q196 125 355 125q-178 -34 -391 -274q-191 -217 -346 -545q96 4 139 -98q132 62 293 92q-22 4 -50 16t-67 43t-62.5 73t-23.5 94.5t35 115.5l12 23q79 146 293 233q200 81 407 75q211 -6 308 -106q35 -33 28 -73 q-2 -41 -50 -84q-110 -99 -402 -142q-230 -27 -398 1q-65 10 -106 30q-96 -187 37 -250q41 -20 94 -33q303 90 493 80q76 -4 111 -25.5t31 -43.5t-43 -43t-111 -32q-171 -26 -411 17q-181 -54 -324 -134q-266 -150 -399 -265q-29 -104 -43 -195q106 -18 182 -94t104 -174 q468 52 735 298q97 89 146 208q-22 -151 -178 -280q-123 -102 -338 -179q-186 -67 -356 -84q10 -68 -2.5 -133.5t-57.5 -97.5q-72 -51 -141 -19l-2 2q-131 60 -170 287q-148 59 -148 191q-47 -43 -59 -102.5t4 -115t58 -97.5t104 -50q-75 -68 -138 1q-62 67 -60 183 q2 125 91 199q4 78 58.5 169t146.5 177q45 138 94 246q-39 -10 -78.5 -23.5t-80.5 -25.5q-367 -474 -584 -682q-178 -170 -407 -303q-404 -235 -470 39q-18 77 -2 210q0 10 2 17h-8l-2 2q-201 65 -215 241zM217 -197q131 -18 313 74q156 80 303.5 220t208 241.5t58.5 162 t-57.5 81t-141.5 -4t-193 -95.5q-163 -106 -316 -313q-151 -205 -175 -366zM1581 -18q-63 -136 70 -201q-16 122 -2 219q-37 -6 -68 -18zM1589 2q14 4 29.5 7t32.5 7q4 35 12 84q-35 -38 -74 -98zM1706 575q74 33 137 54q130 266 297 471q-160 -177 -434 -525zM1712 -244 q45 -13 125 -22q69 0 145 8q-63 151 -174 220q-38 24 -77 34q-27 -136 -19 -240zM1716 -274q18 -159 104 -224q35 -28 73 -29t67 21q80 68 35 211q-53 -4 -98 -4t-90 6t-91 19zM1839 406q106 78 234 137q-55 36 -166 26q-40 -90 -68 -163zM2320 965q103 -53 369 -37 q211 12 333 57q199 73 204 143q2 27 -28 57t-94.5 43t-148.5 11t-177 -21.5t-180 -54.5q-197 -79 -278 -198zM2527 635q181 -33 339 -15q143 16 153 42q2 8 -30 19t-95 13q-161 5 -367 -59z" />
<glyph unicode="&#xc7;" horiz-adv-x="1359" d="M-36 32q16 181 138 402q106 195 220 311q-146 169 -86 364q26 87 91.5 160.5t156.5 124.5q247 136 517 44q108 -40 160 -123q14 -23 6 -22t-18 16q-59 95 -162.5 113.5t-204 -0.5t-194.5 -66t-173 -114.5t-121 -147.5q-96 -182 38 -338q205 218 490 348q298 137 583 137 q26 0 71.5 -7t86.5 -26q178 -70 117 -206q-57 -129 -273 -246q-361 -197 -737 -162q-129 12 -240 65q-51 -41 -114.5 -128t-118 -193.5t-90 -221t-33.5 -208.5t53 -157.5t172 -69.5q74 -5 115 2q-96 93 -42 283q48 164 200 339q149 173 296 231q168 65 256 -47 q77 -99 -28 -293q-96 -178 -277 -338q-188 -167 -321 -202q132 -35 317 70q198 111 323 302q145 219 126 472q-2 39 -2 43t18 -41q90 -216 -60 -454q-65 -105 -164.5 -192t-206 -142.5t-208.5 -75t-174 11.5q-79 -19 -168 -15q-23 4 -44.5 7.5t-41.5 7.5l-35 -47 q70 15 106 -21q19 -20 17 -58t-20.5 -55.5t-46 -24.5t-59.5 -5t-59 11q-61 21 -57 63q2 -20 31 -35t62.5 -16t62.5 11.5t31 44.5q5 77 -119 62q12 16 20 31.5t16.5 28t12.5 20.5q-238 87 -212 372zM414 -53q-69 -179 24 -260q141 24 325 177q179 150 283 319q117 188 66 292 q-49 104 -198 31q-142 -69 -288 -232q-153 -171 -212 -327zM442 674q118 -52 195 -58q195 -15 377 56q156 60 275.5 132.5t182.5 121.5q142 112 142 181q0 84 -199 99q-236 18 -539 -168q-243 -149 -434 -364z" />
<glyph unicode="&#xc8;" horiz-adv-x="1513" d="M-26 -172q-49 120 68 290q113 165 324 296q222 139 461 184q-20 4 -48.5 16t-67.5 43t-62.5 73t-23.5 94.5t34 115.5q-148 87 -81 214q58 108 247 203q181 91 355 99q190 9 239 -94q-218 54 -463 -14q-224 -61 -320 -180q-44 -54 -40 -108t76 -97q79 147 292 233 q202 81 407 75q213 -7 308 -106q35 -33 31 -73.5t-52 -83.5q-110 -99 -403 -142q-229 -27 -397 0q-65 11 -106 31q-96 -187 36 -251q41 -19 95 -32q303 90 492 80q77 -4 112 -25.5t31 -43.5t-43 -43t-111 -32q-172 -26 -412 17q-268 -78 -558 -275q-134 -91 -235.5 -188.5 t-132 -182.5t27 -147.5t239.5 -80.5q105 152 272 270q155 106 317.5 157.5t271 60.5t167.5 -11t67.5 -63.5t-40.5 -100.5q-110 -130 -428 -244q-155 -56 -318 -77q-78 -10 -156.5 -20.5t-144.5 -4.5q-61 -96 -33.5 -153.5t111.5 -78t209 -2t255 75t250.5 151.5t198.5 230 q39 -53 4.5 -115.5t-113.5 -123t-190.5 -114.5t-228.5 -90t-225.5 -48.5t-182.5 11.5q-167 54 -82 263q-246 26 -300 162zM319 -309q63 -6 138 3t150 19q166 22 320.5 78.5t252.5 113t137 103.5t24.5 82t-73.5 50q-134 33 -379 -46q-246 -77 -453 -268q-64 -59 -117 -135z M774 924q103 -53 368 -37q213 13 334 57q198 73 203 143q2 27 -24 56q-63 59 -246 55q-179 -4 -357 -76q-197 -79 -278 -198zM981 594q181 -33 339 -16q141 16 153 43q2 8 -30 19t-95 13q-161 5 -367 -59zM1272 1544l16 86q97 -81 166.5 -132.5t81.5 -61.5z" />
</font>
</defs>
</svg>
